<?xml version="1.0" encoding="UTF-8" standalone="no"?>
<!-- Created with Inkscape (http://www.inkscape.org/) -->

<svg
   xmlns:dc="http://purl.org/dc/elements/1.1/"
   xmlns:cc="http://creativecommons.org/ns#"
   xmlns:rdf="http://www.w3.org/1999/02/22-rdf-syntax-ns#"
   xmlns:svg="http://www.w3.org/2000/svg"
   xmlns="http://www.w3.org/2000/svg"
   xmlns:sodipodi="http://sodipodi.sourceforge.net/DTD/sodipodi-0.dtd"
   xmlns:inkscape="http://www.inkscape.org/namespaces/inkscape"
   id="svg2"
   version="1.1"
   inkscape:version="0.48.2 r9819"
   width="213.75"
   height="77.5"
   xml:space="preserve"
   sodipodi:docname="Logo KSI.pdf"><metadata
     id="metadata8"><rdf:RDF><cc:Work
         rdf:about=""><dc:format>image/svg+xml</dc:format><dc:type
           rdf:resource="http://purl.org/dc/dcmitype/StillImage" /><dc:title></dc:title></cc:Work></rdf:RDF></metadata><defs
     id="defs6" /><sodipodi:namedview
     pagecolor="#ffffff"
     bordercolor="#666666"
     borderopacity="1"
     objecttolerance="10"
     gridtolerance="10"
     guidetolerance="10"
     inkscape:pageopacity="0"
     inkscape:pageshadow="2"
     inkscape:window-width="640"
     inkscape:window-height="480"
     id="namedview4"
     showgrid="false"
     inkscape:zoom="1.5345029"
     inkscape:cx="106.875"
     inkscape:cy="38.75"
     inkscape:window-x="0"
     inkscape:window-y="0"
     inkscape:window-maximized="0"
     inkscape:current-layer="g14" /><g
     id="g10"
     inkscape:groupmode="layer"
     inkscape:label="Logo KSI"
     transform="matrix(1.25,0,0,-1.25,0,77.5)"><g
       id="g12" /><g
       id="g14"><g
         id="g16"
         transform="matrix(1,0,0,-1,55,50)"><g
           transform="translate(0,14)"
           style=""
           id="text18"><path
             d="m 7.632,0 -3.968,-5.408 3.968,-5.264 -0.512,0 -5.472,7.216 0,-7.216 -0.416,0 0,10.672 0.416,0 0,-2.784 L 3.392,-5.056 7.12,0 7.632,0"
             style="font-size:16px;font-variant:normal;font-weight:200;writing-mode:lr-tb;fill:#0093cb;fill-opacity:1;fill-rule:nonzero;stroke:none;font-family:AvantGardEF;-inkscape-font-specification:AvantGardEF-ExtraLight"
             id="path3014" /><path
             d="m 16.576,-3.84 c 0,-2.2399978 -1.824002,-4 -4.048,-4 -2.255998,0 -3.9999999,1.8080022 -3.9999999,4.048 0,2.1759978 1.8080019,3.984 3.9839999,3.984 2.223998,0 4.064,-1.8080022 4.064,-4.032 m -0.4,0.016 c 0,1.999998 -1.632002,3.648 -3.632,3.648 -2.015998,0 -3.6159999,-1.648002 -3.6159999,-3.648 0,-2.031998 1.6000019,-3.648 3.6319999,-3.648 2.031998,0 3.616,1.632002 3.616,3.648"
             style="font-size:16px;font-variant:normal;font-weight:200;writing-mode:lr-tb;fill:#0093cb;fill-opacity:1;fill-rule:nonzero;stroke:none;font-family:AvantGardEF;-inkscape-font-specification:AvantGardEF-ExtraLight"
             id="path3016" /></g><g
           transform="translate(17.152,14)"
           style=""
           id="text22"><path
             d="m 2.592,-6.4 0,-0.464 -0.96,0.72 0,-4.528 -0.4,0 0,4.768 -0.96,0.72 0,0.48 0.96,-0.72 0,5.424 0.4,0 0,-5.68 0.96,-0.72"
             style="font-size:16px;font-variant:normal;font-weight:200;writing-mode:lr-tb;fill:#0093cb;fill-opacity:1;fill-rule:nonzero;stroke:none;font-family:AvantGardEF;-inkscape-font-specification:AvantGardEF-ExtraLight"
             id="path3019" /></g><g
           transform="translate(20.016,14)"
           style=""
           id="text26"><path
             d="m 8.624,-3.84 c 0,-2.2399978 -1.8240022,-4 -4.048,-4 -2.2559977,0 -4,1.8080022 -4,4.048 0,2.1759978 1.8080022,3.984 3.984,3.984 2.2239978,0 4.064,-1.8080022 4.064,-4.032 m -0.4,0.016 c 0,1.999998 -1.632002,3.648 -3.632,3.648 -2.015998,0 -3.616,-1.648002 -3.616,-3.648 0,-2.031998 1.600002,-3.648 3.632,-3.648 2.031998,0 3.616,1.632002 3.616,3.648"
             style="font-size:16px;font-variant:normal;font-weight:200;writing-mode:lr-tb;fill:#0093cb;fill-opacity:1;fill-rule:nonzero;stroke:none;font-family:AvantGardEF;-inkscape-font-specification:AvantGardEF-ExtraLight"
             id="path3022" /><path
             d="m 19.84,-2.8 c 0,-0.9439991 -0.384001,-1.7760006 -1.152,-2.336 -0.624,-0.4479996 -1.264001,-0.5600002 -1.984,-0.736 -1.263999,-0.3039997 -2.384,-0.8000015 -2.384,-2.272 0,-1.3919986 1.072001,-2.32 2.432,-2.32 1.375998,0 2.112,0.7840013 2.352,2.096 l 0.448,0 c -0.208,-1.4879985 -1.216002,-2.496 -2.752,-2.496 -1.615999,0 -2.912,1.1520016 -2.912,2.8 0,0.5919994 0.176,1.1200004 0.544,1.568 0.943999,1.1519988 2.576001,0.9440007 3.76,1.632 0.783999,0.4479996 1.232,1.2160009 1.232,2.112 0,1.4719985 -1.248002,2.544 -2.688,2.544 -1.503999,0 -2.464,-1.0560014 -2.656,-2.496 l -0.448,0 c 0.144,1.6639983 1.408002,2.896 3.104,2.896 1.679998,0 3.104,-1.2800017 3.104,-2.992"
             style="font-size:16px;font-variant:normal;font-weight:200;writing-mode:lr-tb;fill:#0093cb;fill-opacity:1;fill-rule:nonzero;stroke:none;font-family:AvantGardEF;-inkscape-font-specification:AvantGardEF-ExtraLight"
             id="path3024" /><path
             d="m 24.304,-7.28 0,-0.368 -1.968,0 0,-3.024 -0.4,0 0,3.024 -1.68,0 0,0.368 1.68,0 0,7.28 0.4,0 0,-7.28 1.968,0"
             style="font-size:16px;font-variant:normal;font-weight:200;writing-mode:lr-tb;fill:#0093cb;fill-opacity:1;fill-rule:nonzero;stroke:none;font-family:AvantGardEF;-inkscape-font-specification:AvantGardEF-ExtraLight"
             id="path3026" /><path
             d="m 32.447999,0 0,-7.648 -0.4,0 0,3.888 c 0,0.975999 0.016,1.6480008 -0.608,2.432 -0.607999,0.76799923 -1.584001,1.152 -2.544,1.152 -0.863999,0 -1.696,-0.30400064 -2.304,-0.944 -0.703999,-0.7359993 -0.768,-1.504001 -0.768,-2.496 l 0,-4.032 -0.4,0 0,4.032 c 0,1.0719989 0.064,1.9520008 0.832,2.768 0.656,0.7039993 1.712001,1.04 2.656,1.04 0.783999,0 1.584001,-0.22400046 2.224,-0.688 0.416,-0.3039997 0.624001,-0.5760004 0.912,-1.008 l 0,1.504 0.4,0"
             style="font-size:16px;font-variant:normal;font-weight:200;writing-mode:lr-tb;fill:#0093cb;fill-opacity:1;fill-rule:nonzero;stroke:none;font-family:AvantGardEF;-inkscape-font-specification:AvantGardEF-ExtraLight"
             id="path3028" /><path
             d="m 42.432001,0 0,-10.672 -0.4,0 0,5.04 c -0.719999,-1.4079986 -2.144002,-2.208 -3.712,-2.208 -2.303998,0 -4.176,1.6480024 -4.176,4 0,2.3039977 1.888002,4.032 4.16,4.032 1.071999,0 2.128001,-0.40000074 2.912,-1.136 0.399999,-0.3679996 0.576,-0.6560005 0.816,-1.136 l 0,2.08 0.4,0 m -0.4,-3.84 c 0,2.0639979 -1.712002,3.664 -3.76,3.664 -2.031998,0 -3.728,-1.632002 -3.728,-3.68 0,-2.0639979 1.696002,-3.616 3.728,-3.616 2.047998,0 3.76,1.5360021 3.76,3.632"
             style="font-size:16px;font-variant:normal;font-weight:200;writing-mode:lr-tb;fill:#0093cb;fill-opacity:1;fill-rule:nonzero;stroke:none;font-family:AvantGardEF;-inkscape-font-specification:AvantGardEF-ExtraLight"
             id="path3030" /><path
             d="m 51.887998,-3.776 0,-0.208 c 0,-2.0799979 -1.824002,-3.856 -3.888,-3.856 -2.175998,0 -3.872,1.8080021 -3.872,3.952 0,2.1279979 1.728002,4.08 3.904,4.08 1.551999,0 2.896001,-0.96000142 3.488,-2.384 l -0.464,0 c -0.559999,1.1679988 -1.696001,2.016 -3.024,2.016 -2.031998,0 -3.344,-1.6800019 -3.456,-3.6 l 7.312,0 m -0.448,-0.368 -6.864,0 c 0.192,-1.8079982 1.520002,-3.328 3.424,-3.328 1.839998,0 3.296,1.5360018 3.44,3.328"
             style="font-size:16px;font-variant:normal;font-weight:200;writing-mode:lr-tb;fill:#0093cb;fill-opacity:1;fill-rule:nonzero;stroke:none;font-family:AvantGardEF;-inkscape-font-specification:AvantGardEF-ExtraLight"
             id="path3032" /><path
             d="m 60.608001,0 0,-4.224 c 0,-0.959999 -0.160001,-1.8240007 -0.864,-2.528 -0.672,-0.6719993 -1.728001,-1.088 -2.688,-1.088 -1.151999,0 -2.560001,0.5440011 -3.072,1.648 l 0,-1.456 -0.4,0 0,7.648 0.4,0 0,-4.4 c 0,-0.9279991 0.128,-1.5520007 0.816,-2.208 0.607999,-0.5759994 1.408001,-0.864 2.24,-0.864 1.935998,0 3.152,1.3440019 3.152,3.248 l 0,4.224 0.416,0"
             style="font-size:16px;font-variant:normal;font-weight:200;writing-mode:lr-tb;fill:#0093cb;fill-opacity:1;fill-rule:nonzero;stroke:none;font-family:AvantGardEF;-inkscape-font-specification:AvantGardEF-ExtraLight"
             id="path3034" /><path
             d="m 65.472001,-7.28 0,-0.368 -1.968,0 0,-3.024 -0.4,0 0,3.024 -1.68,0 0,0.368 1.68,0 0,7.28 0.4,0 0,-7.28 1.968,0"
             style="font-size:16px;font-variant:normal;font-weight:200;writing-mode:lr-tb;fill:#0093cb;fill-opacity:1;fill-rule:nonzero;stroke:none;font-family:AvantGardEF;-inkscape-font-specification:AvantGardEF-ExtraLight"
             id="path3036" /><path
             d="m 71.471997,-10.72 -0.24,-0.288 -2.656,2.176 0.224,0.288 2.672,-2.176 m 2.672,6.88 c 0,-2.2399978 -1.824003,-4 -4.048,-4 -2.255998,0 -4,1.8080022 -4,4.048 0,2.1759978 1.808002,3.984 3.984,3.984 2.223997,0 4.064,-1.8080022 4.064,-4.032 m -0.4,0.016 c 0,1.999998 -1.632002,3.648 -3.632,3.648 -2.015998,0 -3.616,-1.648002 -3.616,-3.648 0,-2.031998 1.600002,-3.648 3.632,-3.648 2.031998,0 3.616,1.632002 3.616,3.648"
             style="font-size:16px;font-variant:normal;font-weight:200;writing-mode:lr-tb;fill:#0093cb;fill-opacity:1;fill-rule:nonzero;stroke:none;font-family:AvantGardEF;-inkscape-font-specification:AvantGardEF-ExtraLight"
             id="path3038" /><path
             d="m 85.552001,-7.648 -0.448,0 -2.576,7.04 -2.144,-6 -0.304,0 -2.128,6 -2.608,-7.04 -0.448,0 2.816,7.648 0.464,0 2.048,-5.792 2.048,5.792 0.464,0 2.816,-7.648"
             style="font-size:16px;font-variant:normal;font-weight:200;writing-mode:lr-tb;fill:#0093cb;fill-opacity:1;fill-rule:nonzero;stroke:none;font-family:AvantGardEF;-inkscape-font-specification:AvantGardEF-ExtraLight"
             id="path3040" /></g></g><g
         id="g30"
         transform="matrix(1,0,0,-1,55,50)"><g
           transform="translate(0,32)"
           style=""
           id="text32"><path
             d="m 1.648,0 0,-10.672 -0.416,0 0,10.672 0.416,0"
             style="font-size:16px;font-variant:normal;font-weight:200;writing-mode:lr-tb;fill:#0093cb;fill-opacity:1;fill-rule:nonzero;stroke:none;font-family:AvantGardEF;-inkscape-font-specification:AvantGardEF-ExtraLight"
             id="path3043" /><path
             d="m 11.024,0 0,-4.224 c 0,-0.959999 -0.160001,-1.8240007 -0.864,-2.528 C 9.4880008,-7.4239993 8.4319992,-7.84 7.4720001,-7.84 c -1.1519988,0 -2.5600005,0.5440011 -3.072,1.648 l 0,-1.456 -0.4,0 0,7.648 0.4,0 0,-4.4 c 0,-0.9279991 0.1280007,-1.5520007 0.816,-2.208 0.6079994,-0.5759994 1.4080008,-0.864 2.24,-0.864 1.9359981,0 3.1519999,1.3440019 3.1519999,3.248 l 0,4.224 0.416,0"
             style="font-size:16px;font-variant:normal;font-weight:200;writing-mode:lr-tb;fill:#0093cb;fill-opacity:1;fill-rule:nonzero;stroke:none;font-family:AvantGardEF;-inkscape-font-specification:AvantGardEF-ExtraLight"
             id="path3045" /><path
             d="m 15.904,-7.28 0,-0.368 -1.984,0 0,-0.496 c 0,-1.3119987 0.704001,-1.92 1.984,-2.016 l 0,-0.448 c -0.528,0.032 -1.008001,0.144 -1.456,0.432 -0.767999,0.4959995 -0.928,1.1680009 -0.928,2.032 l 0,0.496 -1.264,0 0,0.368 1.264,0 0,7.28 0.4,0 0,-7.28 1.984,0"
             style="font-size:16px;font-variant:normal;font-weight:200;writing-mode:lr-tb;fill:#0093cb;fill-opacity:1;fill-rule:nonzero;stroke:none;font-family:AvantGardEF;-inkscape-font-specification:AvantGardEF-ExtraLight"
             id="path3047" /><path
             d="m 24.752,-3.84 c 0,-2.2399978 -1.824002,-4 -4.048,-4 -2.255997,0 -4,1.8080022 -4,4.048 0,2.1759978 1.808002,3.984 3.984,3.984 2.223998,0 4.064,-1.8080022 4.064,-4.032 m -0.4,0.016 c 0,1.999998 -1.632002,3.648 -3.632,3.648 -2.015998,0 -3.616,-1.648002 -3.616,-3.648 0,-2.031998 1.600002,-3.648 3.632,-3.648 2.031998,0 3.616,1.632002 3.616,3.648"
             style="font-size:16px;font-variant:normal;font-weight:200;writing-mode:lr-tb;fill:#0093cb;fill-opacity:1;fill-rule:nonzero;stroke:none;font-family:AvantGardEF;-inkscape-font-specification:AvantGardEF-ExtraLight"
             id="path3049" /><path
             d="m 29.551999,-7.408 0,-0.432 c -1.215999,0.08 -2.128,0.4480011 -2.704,1.568 l 0,-1.376 -0.4,0 0,7.648 0.4,0 0,-4.144 c 0,-1.1359989 0.048,-2.0160007 1.024,-2.72 0.496,-0.3679996 1.072001,-0.496 1.68,-0.544"
             style="font-size:16px;font-variant:normal;font-weight:200;writing-mode:lr-tb;fill:#0093cb;fill-opacity:1;fill-rule:nonzero;stroke:none;font-family:AvantGardEF;-inkscape-font-specification:AvantGardEF-ExtraLight"
             id="path3051" /><path
             d="m 42.352,0 0,-4.288 c 0,-0.9279991 -0.032,-1.6480008 -0.624,-2.4 -0.575999,-0.7359993 -1.456001,-1.152 -2.384,-1.152 -0.815999,0 -1.632,0.3360006 -2.176,0.928 -0.287999,0.3039997 -0.416,0.5760004 -0.576,0.96 -0.24,-0.5759994 -0.496,-0.9440004 -1.008,-1.312 -0.527999,-0.3679996 -1.168,-0.576 -1.808,-0.576 -1.087999,0 -1.888,0.4960009 -2.448,1.408 l 0,-1.216 -0.448,0 0,7.648 0.4,0 0,-4.368 c 0,-0.8319992 0.064,-1.5840007 0.624,-2.24 0.48,-0.5439995 1.200001,-0.864 1.92,-0.864 0.783999,0 1.504001,0.3840006 1.984,0.992 0.528,0.6719993 0.608,1.4400008 0.608,2.272 l 0,4.208 0.4,0 0,-4.288 c 0,-0.8639991 10e-7,-1.6160007 0.592,-2.304 0.48,-0.5599994 1.200001,-0.88 1.936,-0.88 0.704,0 1.360001,0.3040005 1.856,0.8 0.656,0.6719993 0.736,1.4880009 0.736,2.384 l 0,4.288 0.416,0"
             style="font-size:16px;font-variant:normal;font-weight:200;writing-mode:lr-tb;fill:#0093cb;fill-opacity:1;fill-rule:nonzero;stroke:none;font-family:AvantGardEF;-inkscape-font-specification:AvantGardEF-ExtraLight"
             id="path3053" /><path
             d="m 52.224001,0 0,-7.648 -0.4,0 0,2.016 c -0.288,-0.5279995 -0.512001,-0.8480004 -0.976,-1.232 -0.751999,-0.6239994 -1.760001,-0.976 -2.736,-0.976 -2.255998,0 -4.128,1.7600023 -4.128,4.032 0,2.3199977 1.904002,4 4.176,4 1.615998,0 2.912001,-0.76800144 3.664,-2.208 l 0,2.016 0.4,0 m -0.4,-3.792 c 0,2.0639979 -1.648002,3.616 -3.68,3.616 -2.047998,0 -3.76,-1.5520021 -3.76,-3.632 0,-2.0799979 1.664002,-3.664 3.728,-3.664 2.031998,0 3.712,1.632002 3.712,3.68"
             style="font-size:16px;font-variant:normal;font-weight:200;writing-mode:lr-tb;fill:#0093cb;fill-opacity:1;fill-rule:nonzero;stroke:none;font-family:AvantGardEF;-inkscape-font-specification:AvantGardEF-ExtraLight"
             id="path3055" /><path
             d="m 57.152002,-7.28 0,-0.368 -1.968,0 0,-3.024 -0.4,0 0,3.024 -1.68,0 0,0.368 1.68,0 0,7.28 0.4,0 0,-7.28 1.968,0"
             style="font-size:16px;font-variant:normal;font-weight:200;writing-mode:lr-tb;fill:#0093cb;fill-opacity:1;fill-rule:nonzero;stroke:none;font-family:AvantGardEF;-inkscape-font-specification:AvantGardEF-ExtraLight"
             id="path3057" /><path
             d="m 63.984001,-7.648 -0.48,0 -3.008,7.088 -2.832,-7.088 -0.448,0 3.04,7.632 -1.36,3.088 0.464,0 4.624,-10.72"
             style="font-size:16px;font-variant:normal;font-weight:200;writing-mode:lr-tb;fill:#0093cb;fill-opacity:1;fill-rule:nonzero;stroke:none;font-family:AvantGardEF;-inkscape-font-specification:AvantGardEF-ExtraLight"
             id="path3059" /><path
             d="m 70.496,0 -3.072,-3.904 2.816,-3.744 -0.528,0 -4.192,5.552 0,-8.576 -0.4,0 0,10.672 0.4,0 0,-1.408 1.648,-2.176 2.8,3.584 0.528,0"
             style="font-size:16px;font-variant:normal;font-weight:200;writing-mode:lr-tb;fill:#0093cb;fill-opacity:1;fill-rule:nonzero;stroke:none;font-family:AvantGardEF;-inkscape-font-specification:AvantGardEF-ExtraLight"
             id="path3061" /><path
             d="m 72.287998,-9.36 0,-1.312 -0.4,0 0,1.312 0.4,0 m 0,9.36 0,-7.648 -0.4,0 0,7.648 0.4,0"
             style="font-size:16px;font-variant:normal;font-weight:200;writing-mode:lr-tb;fill:#0093cb;fill-opacity:1;fill-rule:nonzero;stroke:none;font-family:AvantGardEF;-inkscape-font-specification:AvantGardEF-ExtraLight"
             id="path3063" /></g></g><path
         d="m 30.20634,11.45379 c -0.16349,0.1764 -0.29725,0.41929 -0.29725,0.53975 0,0.35589 0.26226,0.82645 0.50325,0.90294 0.45924,0.14575 0.19871,0.28722 -0.5929,0.32195 -0.66461,0.02916 -0.82447,0.07539 -0.85738,0.24796 -0.03543,0.18584 0.06579,0.21213 0.81693,0.21213 l 0.85738,0 0,0.44084 c 0,0.37209 -0.12457,0.58002 -0.79878,1.33333 -0.43933,0.49087 -0.85088,0.89249 -0.91456,0.89249 -0.26907,0 -1.94351,-1.2502 -2.05016,-1.53073 -0.17788,-0.46785 -0.15135,-0.51121 0.39986,-0.65363 0.28333,-0.0732 0.61061,-0.1608 0.72727,-0.19466 0.11667,-0.03386 0.21212,-0.16697 0.21212,-0.29581 0,-0.28383 -0.21656,-0.29464 -1.01998,-0.05091 -0.32766,0.0994 -0.62024,0.15622 -0.65018,0.12628 -0.02995,-0.02994 0.06087,-0.20103 0.2018,-0.3802 0.32358,-0.41136 0.32513,-0.77885 0.005,-1.18581 -0.19378,-0.24635 -0.35806,-0.31938 -0.71847,-0.31938 -0.36041,0 -0.5247,0.07303 -0.71848,0.31938 -0.13817,0.17566 -0.25122,0.44103 -0.25122,0.58971 0,0.36584 0.4459,0.9091 0.74617,0.9091 0.46959,0 0.14134,0.29335 -0.51202,0.45758 -0.76147,0.19142 -0.8702,0.26747 -0.72295,0.50572 0.08963,0.14502 0.20933,0.14981 0.73147,0.02929 0.87509,-0.202 0.93001,-0.18977 1.01308,0.22557 0.05774,0.28868 -0.04545,0.60742 -0.47091,1.45455 -0.29967,0.59667 -0.58508,1.08486 -0.63424,1.08486 -0.04917,0 -0.58274,-0.16436 -1.18572,-0.36524 -0.8914,-0.29697 -1.1359,-0.43223 -1.30801,-0.72359 l -0.21169,-0.35836 0.67135,-0.37888 c 0.6342,-0.35793 0.81771,-0.61462 0.55531,-0.77679 -0.06382,-0.03945 -0.4136,0.09621 -0.77727,0.30146 -0.38121,0.21514 -0.69223,0.32303 -0.73443,0.25476 -0.04025,-0.06514 -0.01775,-0.15269 0.05,-0.19456 0.20432,-0.12628 0.13859,-0.86445 -0.10362,-1.16355 -0.16051,-0.19824 -0.3536,-0.2801 -0.66063,-0.2801 -0.77397,0 -1.22274,0.69997 -0.87719,1.36818 0.19443,0.37599 0.40712,0.49849 0.86545,0.49849 0.4514,0 0.35122,0.17227 -0.30921,0.53172 -0.68191,0.37115 -0.7617,0.45935 -0.65859,0.72806 0.06217,0.16202 0.18168,0.13172 0.79345,-0.20118 0.70345,-0.38279 0.72437,-0.38645 0.89689,-0.15665 0.22554,0.30043 0.21445,0.74258 -0.04852,1.9341 l -0.21126,0.95726 -1.06478,-0.02561 C 19.6932,19.35676 19.5368,19.31951 19.14895,18.97025 l -0.27529,-0.2479 0.56785,-0.57651 c 0.49091,-0.49841 0.54604,-0.6028 0.40688,-0.77047 -0.14354,-0.17296 -0.22156,-0.13426 -0.72096,0.35763 -0.308,0.30337 -0.59204,0.55158 -0.6312,0.55158 -0.03917,0 -0.06551,-0.21761 -0.05853,-0.48357 0.01598,-0.60968 -0.34335,-1.01138 -0.90469,-1.01138 -0.46315,0 -0.95725,0.49642 -0.95725,0.96176 0,0.44944 0.52783,0.91944 1.00348,0.89353 0.21475,-0.0117 0.44295,-0.01574 0.50712,-0.009 0.06416,0.0068 -0.14931,0.2823 -0.47438,0.61233 -0.51125,0.51906 -0.5693,0.62623 -0.43006,0.794 0.14344,0.17284 0.22485,0.13102 0.748,-0.38427 l 0.58705,-0.57821 0.29297,0.29936 c 0.26562,0.27143 0.29665,0.41784 0.33242,1.56874 l 0.03946,1.26936 -1.21838,0.23403 c -1.16899,0.22455 -1.23166,0.22533 -1.54612,0.01929 l -0.32775,-0.21475 0.37942,-0.66315 c 0.33831,-0.5913 0.35959,-0.68298 0.19646,-0.84611 -0.16313,-0.16313 -0.22694,-0.10942 -0.58888,0.49571 -0.44649,0.74647 -0.59172,0.83732 -0.59172,0.37013 0,-0.43148 -0.50665,-0.90358 -0.9697,-0.90358 -0.84738,0 -1.27341,1.04064 -0.67217,1.64187 0.30489,0.30489 0.95258,0.40904 1.09642,0.17631 0.0412,-0.06667 0.15751,-0.12121 0.25847,-0.12121 0.13981,0 0.09208,0.1599 -0.20031,0.67093 -0.35584,0.62194 -0.40821,1.02604 -0.13297,1.02604 0.06304,0 0.28946,-0.28637 0.50315,-0.63637 0.21369,-0.35 0.4055,-0.65531 0.42625,-0.67847 0.02074,-0.02316 0.19595,0.05136 0.38934,0.1656 0.28294,0.16714 0.41803,0.41215 0.69149,1.25423 0.18692,0.57559 0.36445,1.11179 0.39452,1.19156 0.0323,0.08572 -0.39479,0.37076 -1.04431,0.69697 -1.20314,0.60425 -1.19711,0.60263 -1.63213,0.43724 -0.30085,-0.11438 -0.3012,-0.11644 -0.13054,-0.75758 0.21649,-0.81328 0.21543,-0.90408 -0.0115,-0.99116 -0.20492,-0.07863 -0.33232,0.15268 -0.5423,0.98464 -0.1255,0.49722 -0.36311,0.71174 -0.36311,0.32783 0,-0.31187 -0.5648,-0.78271 -0.93388,-0.77852 -0.38766,0.0044 -0.66171,0.18318 -0.8645,0.56394 -0.21799,0.40929 -0.17111,0.63288 0.2133,1.01729 0.41824,0.41824 0.82314,0.45122 1.26571,0.10309 0.29781,-0.23426 0.31929,-0.2363 0.31806,-0.0303 -7.2e-4,0.1215 -0.08263,0.489 -0.18203,0.81666 -0.20172,0.66495 -0.20596,0.63826 0.11051,0.69576 0.1873,0.03404 0.26635,-0.08626 0.42424,-0.64566 0.23459,-0.83111 0.26118,-0.86107 0.67263,-0.7578 0.23071,0.05791 0.51863,0.36816 0.98973,1.06651 l 0.66437,0.98484 -0.88452,0.81573 c -0.69553,0.64143 -0.96568,0.81625 -1.26433,0.81818 -0.42972,0.0028 -0.52483,-0.18798 -0.52763,-1.05815 -0.0014,-0.43379 -0.03994,-0.51515 -0.24408,-0.51515 -0.21756,0 -0.24242,0.08081 -0.24242,0.78788 0,0.43333 -0.02989,0.78787 -0.06642,0.78787 -0.03654,0 -0.18654,-0.13962 -0.33334,-0.31028 C 12.10535,29.81337 11,30.22155 11,31.07246 c 0,0.83281 1.16534,1.25438 1.67531,0.60606 0.1311,-0.16667 0.27143,-0.30303 0.31183,-0.30303 0.04041,0 0.07347,0.35454 0.07347,0.78787 0,0.7596 0.01087,0.78788 0.30303,0.78788 0.29158,0 0.30303,-0.02922 0.30303,-0.77374 0,-0.74732 0.01139,-0.776 0.33333,-0.83962 0.38741,-0.07655 0.55736,0.02473 1.54244,0.91917 l 0.72425,0.65762 -0.65633,0.99972 c -0.61966,0.94386 -1.05203,1.30769 -1.39681,1.17538 -0.07623,-0.02925 -0.2119,-0.35874 -0.30149,-0.73222 -0.11736,-0.4892 -0.21961,-0.67903 -0.36576,-0.67903 -0.33776,0 -0.35134,0.10734 -0.11718,0.92616 0.12376,0.43276 0.18693,0.76817 0.14037,0.74535 -0.04655,-0.02281 -0.28774,-0.14492 -0.53598,-0.27135 -0.52784,-0.26885 -0.91809,-0.15949 -1.25258,0.35101 -0.36912,0.56334 0.09619,1.40034 0.77848,1.40034 0.42528,0 0.98604,-0.41861 0.98604,-0.73607 0,-0.12849 0.05245,-0.23363 0.11655,-0.23363 0.10578,0 0.20109,0.27203 0.43533,1.24243 0.08648,0.35823 0.14239,0.38889 0.40547,0.22232 0.14456,-0.09154 0.14206,-0.21612 -0.01703,-0.84768 -0.19946,-0.79184 -0.20165,-0.78525 0.30066,-0.90528 0.25376,-0.06064 0.59147,0.05106 1.43472,0.47457 0.65196,0.32743 1.0805,0.61317 1.04818,0.69891 -0.03006,0.07977 -0.21138,0.62762 -0.40294,1.21744 -0.28024,0.86288 -0.41252,1.10561 -0.67707,1.24242 -0.18084,0.09351 -0.35357,0.17003 -0.38385,0.17003 -0.03028,0 -0.22509,-0.30129 -0.43291,-0.66952 -0.33146,-0.58732 -0.40671,-0.65407 -0.61292,-0.54371 -0.2252,0.12052 -0.21763,0.15477 0.1802,0.81519 0.22841,0.37916 0.39167,0.71299 0.36282,0.74184 -0.02885,0.02885 -0.21383,-0.01438 -0.41105,-0.09607 -0.96961,-0.40162 -1.78594,0.77804 -1.04864,1.51535 0.39362,0.39362 0.95074,0.39362 1.34436,0 0.16363,-0.16363 0.29752,-0.43636 0.29752,-0.60606 0,-0.46656 0.16859,-0.37341 0.53172,0.29379 0.37794,0.6944 0.4461,0.75461 0.68619,0.60617 0.14679,-0.09077 0.10938,-0.23009 -0.22527,-0.83894 l -0.40129,-0.7301 0.40129,-0.18879 c 0.36903,-0.1736 0.4937,-0.16966 1.55026,0.04907 1.17122,0.24246 1.33589,0.23875 1.33589,-0.03012 0,-0.09644 -0.41969,-0.23148 -1.14244,-0.36761 -0.62834,-0.11834 -1.16862,-0.24135 -1.20061,-0.27334 -0.032,-0.032 0.10567,-0.54672 0.30593,-1.14384 0.28671,-0.85485 0.33358,-1.12245 0.22048,-1.25872 -0.07899,-0.09519 -0.10946,-0.22835 -0.0677,-0.29592 0.04235,-0.06852 -0.4089,-0.36634 -1.02044,-0.67348 l -1.09637,-0.55063 0.32152,-0.51364 c 0.17683,-0.28251 0.47737,-0.74207 0.66787,-1.02126 0.20914,-0.30652 0.2973,-0.53792 0.22253,-0.58413 -0.0681,-0.04209 -0.08603,-0.13767 -0.03985,-0.21239 0.04902,-0.07932 -0.29064,-0.47873 -0.81621,-0.95976 l -0.90017,-0.82389 0.8794,-0.80004 c 0.48367,-0.44001 0.85096,-0.84604 0.8162,-0.90227 -0.03475,-0.05624 -0.0081,-0.13629 0.0592,-0.17789 0.07083,-0.04378 -0.12358,-0.44307 -0.46143,-0.94777 -0.32111,-0.47967 -0.62295,-0.93866 -0.67076,-1.01998 -0.05877,-0.09995 0.2696,-0.3269 1.01376,-0.70064 0.61403,-0.30838 1.06711,-0.60711 1.02475,-0.67564 -0.04176,-0.06757 -0.0113,-0.20073 0.0677,-0.29592 0.11311,-0.13628 0.06574,-0.40532 -0.22288,-1.26589 -0.20158,-0.60106 -0.3297,-1.11317 -0.28471,-1.13804 0.04499,-0.02487 0.59072,-0.14227 1.21273,-0.26088 0.99143,-0.18905 1.12365,-0.24347 1.07195,-0.44115 -0.03843,-0.14695 0.0053,-0.22551 0.1256,-0.22551 0.15635,0 0.17705,-0.18725 0.13537,-1.22486 l -0.0492,-1.22486 1.24722,0.08501 c 1.09676,0.07476 1.24722,0.06167 1.24722,-0.10847 0,-0.10642 0.07635,-0.19348 0.16965,-0.19348 0.11339,0 0.23677,-0.31153 0.37203,-0.9394 0.26425,-1.2266 0.3058,-1.36363 0.41345,-1.36363 0.04967,0 0.56686,0.16108 1.14932,0.35797 0.85458,0.28887 1.07151,0.32544 1.12368,0.18947 0.03557,-0.09267 0.13905,-0.13995 0.22997,-0.10507 0.11236,0.04312 0.34246,-0.28929 0.71845,-1.03794 l 0.55314,-1.10138 1.04879,0.69696 c 0.64561,0.42903 1.06752,0.64133 1.09753,0.55225 0.02681,-0.07959 0.11977,-0.11745 0.20658,-0.08414 0.0894,0.03431 0.50813,-0.32337 0.96583,-0.82499 l 0.808,-0.88556 0.82354,0.89891 c 0.55724,0.60825 0.87389,0.86779 0.97928,0.80266 0.09138,-0.05648 0.19675,-0.02991 0.25497,0.06429 0.07545,0.12209 0.34778,-0.0049 1.13675,-0.52991 l 1.03753,-0.69047 0.55315,1.10138 c 0.39547,0.78744 0.60312,1.0822 0.72848,1.0341 0.10725,-0.04116 0.17534,0.0069 0.17534,0.12369 0,0.10505 0.06818,0.16588 0.15151,0.13519 0.91147,-0.33566 2.18073,-0.7086 2.23318,-0.65615 0.03646,0.03645 0.14187,0.43754 0.23426,0.8913 0.26927,1.32258 0.28585,1.37047 0.47427,1.37047 0.09873,0 0.1795,0.08706 0.1795,0.19348 0,0.1701 0.15016,0.18324 1.24243,0.10869 l 1.24242,-0.08479 -0.04166,1.22464 c -0.03491,1.02631 -0.01221,1.22464 0.14017,1.22464 0.1176,0 0.161,0.07966 0.12286,0.2255 -0.0517,0.19769 0.08052,0.25211 1.07195,0.44116 0.62201,0.11861 1.16774,0.236 1.21273,0.26088 0.04499,0.02487 -0.08313,0.53698 -0.28471,1.13804 -0.28862,0.86057 -0.33599,1.12961 -0.22289,1.26589 0.079,0.09519 0.10947,0.22835 0.06771,0.29592 -0.04236,0.06853 0.41072,0.36726 1.02475,0.67564 0.74416,0.37374 1.07252,0.60069 1.01375,0.70064 -0.04781,0.08132 -0.34256,0.52981 -0.65501,0.99666 -0.43134,0.64449 -0.5457,0.90932 -0.47509,1.1002 0.05115,0.13827 0.46643,0.58872 0.92286,1.001 l 0.82986,0.74961 -0.42685,0.39261 c -0.23476,0.21594 -0.63506,0.57248 -0.88955,0.7923 -0.27558,0.23805 -0.43598,0.46933 -0.39663,0.57188 0.03634,0.0947 0.01627,0.20297 -0.0446,0.24059 -0.06087,0.03762 0.18695,0.52974 0.5507,1.0936 l 0.66136,1.0252 -1.09537,0.55013 c -0.60245,0.30257 -1.08473,0.61674 -1.07173,0.69816 0.01299,0.08142 -0.01327,0.23093 -0.05836,0.33226 -0.0451,0.10133 0.05539,0.58815 0.22331,1.08184 0.45457,1.3365 0.4856,1.28036 -0.84622,1.5312 -0.72914,0.13733 -1.15152,0.2728 -1.15152,0.36932 0,0.26887 0.16467,0.27258 1.33589,0.03012 1.05369,-0.21813 1.18201,-0.22231 1.54752,-0.05037 l 0.39855,0.18748 -0.39855,0.72851 c -0.3333,0.60923 -0.36974,0.74681 -0.22253,0.84025 0.23957,0.15205 0.30767,0.09218 0.68619,-0.60328 0.36313,-0.6672 0.53172,-0.76035 0.53172,-0.29379 0,0.43148 0.50665,0.90358 0.9697,0.90358 0.48327,0 0.96969,-0.47219 0.96969,-0.94133 0,-0.6404 -0.78495,-1.17034 -1.31407,-0.88716 -0.48192,0.25792 -0.50816,0.12156 -0.11492,-0.59724 0.3334,-0.60942 0.36986,-0.74705 0.22266,-0.84048 -0.23239,-0.1475 -0.32721,-0.07645 -0.60889,0.45625 -0.42216,0.79837 -0.41508,0.79319 -0.80653,0.59076 -0.291,-0.15048 -0.41036,-0.36454 -0.69918,-1.25385 -0.19156,-0.58982 -0.37288,-1.13767 -0.40295,-1.21744 -0.03231,-0.08574 0.39623,-0.37148 1.04819,-0.69891 0.84325,-0.42351 1.18096,-0.53521 1.43472,-0.47457 0.50231,0.12003 0.50012,0.11344 0.30066,0.90528 -0.15909,0.63156 -0.1616,0.75614 -0.01703,0.84768 0.26307,0.16657 0.31899,0.13591 0.40546,-0.22232 0.23424,-0.9704 0.32956,-1.24243 0.43534,-1.24243 0.0641,0 0.11654,0.09959 0.11654,0.2213 0,0.32279 0.50874,0.7484 0.89457,0.7484 1.01566,0 1.36353,-1.2025 0.50971,-1.76195 -0.34061,-0.22318 -0.92806,-0.15611 -1.16832,0.13338 -0.2947,0.35509 -0.33396,0.15271 -0.11734,-0.6048 0.23189,-0.81086 0.21793,-0.91814 -0.11946,-0.91814 -0.14591,0 -0.24814,0.18875 -0.36415,0.67231 -0.08871,0.36977 -0.20091,0.6968 -0.24933,0.72673 -0.04843,0.02993 -0.2463,0.02277 -0.43971,-0.01591 -0.28103,-0.05621 -0.48297,-0.27955 -1.00554,-1.11214 l -0.65389,-1.0418 0.72037,-0.65414 c 0.98087,-0.89069 1.1514,-0.99219 1.53855,-0.91569 0.32194,0.06362 0.33333,0.0923 0.33333,0.83962 0,0.74452 0.01144,0.77374 0.30303,0.77374 0.29215,0 0.30303,-0.02828 0.30303,-0.78788 0,-0.43333 0.03306,-0.78787 0.07347,-0.78787 0.0404,0 0.18072,0.13636 0.31182,0.30303 0.34204,0.43482 1.07583,0.4264 1.4241,-0.01635 0.33856,-0.43041 0.31991,-0.90716 -0.04904,-1.25378 -0.40842,-0.38369 -1.00606,-0.3614 -1.36059,0.05075 -0.14681,0.17066 -0.29681,0.31028 -0.33334,0.31028 -0.03653,0 -0.06642,-0.35454 -0.06642,-0.78787 0,-0.68869 -0.02852,-0.78788 -0.22656,-0.78788 -0.23127,0 -0.37508,0.47248 -0.37816,1.24242 -0.0012,0.29549 -0.04606,0.33306 -0.39528,0.33088 -0.31614,-0.002 -0.56862,-0.16355 -1.27846,-0.81818 l -0.88452,-0.81573 0.66437,-0.98484 c 0.46193,-0.68475 0.76085,-1.00906 0.981,-1.06432 0.43631,-0.1095 0.4858,-0.05602 0.65729,0.7103 0.11282,0.50414 0.20382,0.67219 0.36396,0.67219 0.33464,0 0.35929,-0.09507 0.17954,-0.69234 -0.09241,-0.30707 -0.16803,-0.66269 -0.16803,-0.79026 0,-0.2236 0.01152,-0.2229 0.31938,0.01926 0.44257,0.34813 0.84747,0.31515 1.2657,-0.10309 0.38442,-0.38441 0.4313,-0.608 0.21331,-1.01729 -0.19963,-0.37482 -0.47555,-0.55947 -0.84265,-0.56394 -0.39767,-0.0048 -0.95574,0.42271 -0.95574,0.73222 0,0.47967 -0.23676,0.20911 -0.43486,-0.49693 -0.22541,-0.80337 -0.28245,-0.87997 -0.53772,-0.72221 -0.14912,0.09217 -0.14561,0.20968 0.02531,0.84759 l 0.19843,0.74059 -0.30014,0.11411 c -0.43327,0.16473 -0.42802,0.16614 -1.63059,-0.43782 -0.64952,-0.32621 -1.07661,-0.61125 -1.04431,-0.69697 0.03007,-0.07977 0.21139,-0.62762 0.40295,-1.21744 0.29197,-0.89902 0.40644,-1.10247 0.70805,-1.25844 0.19788,-0.10233 0.37692,-0.13793 0.39787,-0.07912 0.11012,0.30917 0.77824,1.25845 0.88571,1.25845 0.28082,0 0.23322,-0.37648 -0.12867,-1.01772 -0.29653,-0.52541 -0.34117,-0.67925 -0.19712,-0.67925 0.10244,0 0.21995,0.05454 0.26115,0.12121 0.04121,0.06667 0.2279,0.12121 0.41487,0.12121 0.45566,0 0.97907,-0.53018 0.97907,-0.99173 0,-0.47564 -0.48299,-0.94766 -0.96969,-0.94766 -0.46305,0 -0.9697,0.4721 -0.9697,0.90358 0,0.47922 -0.18552,0.36837 -0.59358,-0.35467 -0.26311,-0.46622 -0.42857,-0.64239 -0.55702,-0.5931 -0.25732,0.09875 -0.23207,0.23149 0.18157,0.95445 l 0.36431,0.63674 -0.32775,0.21475 c -0.31447,0.20604 -0.37711,0.20526 -1.54612,-0.01946 l -1.21838,-0.2342 0.03761,-1.2692 C 42.7688,19.79266 42.7987,19.65159 43.067,19.37915 l 0.29482,-0.29937 0.58705,0.57822 c 0.52315,0.51529 0.60456,0.55711 0.74801,0.38427 0.13923,-0.16777 0.08118,-0.27495 -0.43007,-0.79401 -0.32507,-0.33002 -0.53853,-0.60557 -0.47437,-0.61233 0.06416,-0.0067 0.2838,-0.0034 0.48809,0.0074 0.82193,0.04343 1.2847,-0.88885 0.74985,-1.51065 -0.61117,-0.71053 -1.61438,-0.28863 -1.58929,0.66838 0.007,0.26596 -0.01936,0.48356 -0.05853,0.48356 -0.03916,0 -0.3232,-0.24821 -0.6312,-0.55157 -0.4994,-0.4919 -0.57742,-0.53059 -0.72096,-0.35763 -0.13916,0.16767 -0.08403,0.27206 0.40688,0.77046 l 0.56785,0.57652 -0.27529,0.2479 c -0.38801,0.34939 -0.54412,0.3865 -1.74767,0.41545 l -1.06865,0.0257 -0.2569,-1.19978 c -0.22466,-1.04921 -0.23596,-1.2416 -0.09001,-1.53311 0.09179,-0.18333 0.22086,-0.33333 0.28682,-0.33333 0.06597,0 0.41267,0.16521 0.77046,0.36713 0.59492,0.33575 0.65763,0.3487 0.73369,0.15151 0.08968,-0.23248 -0.02106,-0.34069 -0.84243,-0.8232 -0.49889,-0.29308 -0.48583,-0.32265 0.20992,-0.47495 0.40156,-0.08791 0.73634,-0.66655 0.63024,-1.08931 -0.18113,-0.72168 -1.19693,-0.99671 -1.64365,-0.44503 -0.25489,0.31477 -0.30116,0.9789 -0.08338,1.19668 0.32035,0.32034 -0.0525,0.27474 -0.68854,-0.08422 -0.37255,-0.21026 -0.72958,-0.35001 -0.7934,-0.31057 -0.26152,0.16163 -0.07989,0.41831 0.54592,0.77149 l 0.66196,0.37359 -0.20741,0.3645 c -0.17107,0.30064 -0.39862,0.42835 -1.29862,0.7289 -0.60017,0.20042 -1.13144,0.36439 -1.18061,0.36439 -0.04916,0 -0.33857,-0.49615 -0.64313,-1.10256 -0.42989,-0.85597 -0.53645,-1.1813 -0.47644,-1.45455 0.08705,-0.39633 0.15313,-0.4097 1.0275,-0.20787 0.52214,0.12052 0.64185,0.11573 0.73147,-0.02929 0.14725,-0.23825 0.03852,-0.3143 -0.72294,-0.50572 -0.65337,-0.16423 -0.98162,-0.45758 -0.51203,-0.45758 0.30027,0 0.74617,-0.54326 0.74617,-0.9091 0,-0.14868 -0.11305,-0.41405 -0.25122,-0.58971 -0.19378,-0.24635 -0.35807,-0.31938 -0.71848,-0.31938 -0.8214,0 -1.23608,0.84077 -0.73124,1.48258 0.13115,0.16673 0.21057,0.33102 0.17649,0.3651 -0.03407,0.03408 -0.39226,-0.02124 -0.79596,-0.12293 -0.62633,-0.15777 -0.74968,-0.16004 -0.84089,-0.01543 -0.14091,0.22339 0.14364,0.43285 0.72042,0.5303 0.68318,0.11542 0.79278,0.21949 0.6584,0.62515 -0.10488,0.31659 -0.89074,0.96713 -1.87294,1.55044 l -0.32209,0.19128 -0.86652,-0.98176 c -0.73749,-0.83556 -0.861,-1.03866 -0.82943,-1.36385 l 0.0371,-0.38209 0.82597,-0.03602 c 0.70167,-0.0306 0.82007,-0.06708 0.78676,-0.24242 -0.03088,-0.16259 -0.21299,-0.21927 -0.85791,-0.26701 l -0.8187,-0.06061 0.36527,-0.34361 c 0.46031,-0.433 0.48563,-0.94099 0.06775,-1.35887 -0.40511,-0.40512 -0.95649,-0.3956 -1.34463,0.02321 0,0 0.38814,-0.41881 0,0 l 10e-6,0 m 0.55124,7.63018 c -0.72167,0.19201 -1.65761,0.71483 -1.8599,1.03893 -0.09076,0.14542 -0.08182,0.25525 0.03194,0.39232 0.14124,0.17018 0.23689,0.14641 0.90206,-0.22417 1.01821,-0.56725 1.77653,-0.74719 2.38305,-0.56547 0.53785,0.16115 0.94941,0.65915 1.04829,1.26848 0.12291,0.75742 -0.28628,1.02711 -3.32916,2.19414 -1.48638,0.57007 -2.92046,1.14768 -3.18685,1.28359 -1.52231,0.77662 -2.30521,2.55065 -1.86882,4.23471 0.48659,1.87783 1.78807,3.62115 3.59712,4.81832 l 0.45985,0.30432 -0.45243,0.32813 c -1.41162,1.0238 -1.7767,2.18029 -1.23842,3.92306 0.13437,0.43504 0.44801,1.06094 0.69697,1.39087 0.8353,1.10698 2.37775,2.24409 3.48737,2.57091 l 0.48925,0.14411 -0.11952,0.72269 c -0.14836,0.89707 0.0774,1.71725 0.48885,1.77596 0.32716,0.04669 0.41558,-0.2621 0.28114,-0.98174 -0.05549,-0.29702 -0.05877,-0.69679 -0.0073,-0.88839 l 0.0936,-0.34835 1.56791,0.04405 c 1.71462,0.04817 2.38054,-0.10287 2.53002,-0.57386 0.23021,-0.72532 -0.57543,-1.12553 -2.31477,-1.14987 -1.12241,-0.01571 -1.27021,0.0088 -1.62235,0.26886 -0.46169,0.341 -0.63247,0.28834 -1.47025,-0.45331 -1.63148,-1.44427 -2.40823,-3.90132 -1.69748,-5.36953 0.3865,-0.79841 0.47487,-0.84913 1.22994,-0.70594 0.90564,0.17175 3.14806,0.15135 3.50434,-0.03188 0.67886,-0.34913 0.63907,-0.79337 -0.11038,-1.23234 -0.6245,-0.36579 -2.71377,-0.41282 -3.75052,-0.08443 l -0.78189,0.24767 -0.43023,-0.26373 c -1.05948,-0.64943 -2.27205,-2.0844 -2.79782,-3.31096 -0.36902,-0.8609 -0.32356,-1.80916 0.12031,-2.50906 0.31532,-0.49722 0.50983,-0.63782 1.60606,-1.16104 0.686,-0.32742 2.08987,-0.90608 3.1197,-1.28592 2.34434,-0.86468 2.69806,-1.04604 3.12056,-1.59997 0.304,-0.39857 0.34035,-0.54462 0.34035,-1.36753 0,-0.83443 -0.03749,-0.97972 -0.39764,-1.54097 -0.84573,-1.31795 -2.02682,-1.73799 -3.66296,-1.30266 0,0 1.63614,-0.43533 0,0 l 0,0 m 2.72203,14.67641 c 0.38566,0.06369 0.43314,0.09737 0.24242,0.17197 -0.30209,0.11815 -1.14161,0.13008 -1.98967,0.02827 -0.48479,-0.0582 -0.59816,-0.10423 -0.42424,-0.17224 0.29821,-0.11663 1.53795,-0.13262 2.17149,-0.028 0,0 -0.63354,-0.10462 0,0 l 0,0 m 1.86691,7.75107 c 0.20725,0.04146 0.34721,0.12327 0.31103,0.18182 -0.07542,0.12203 -1.7477,0.14565 -2.05174,0.02898 -0.56903,-0.21836 0.84606,-0.38972 1.74071,-0.2108 0,0 -0.89465,-0.17892 0,0 l 0,0 M 19.20021,40.79973 c -0.0425,0.45 -0.07766,1.01322 -0.07813,1.2516 -6.1e-4,0.30575 -0.09083,0.51793 -0.30629,0.72035 l -0.30544,0.28693 -0.58373,-0.57496 c -0.52025,-0.51242 -0.60125,-0.55386 -0.74471,-0.38101 -0.13915,0.16768 -0.08397,0.27211 0.40727,0.77086 0.60638,0.61563 0.62185,0.77449 0.0646,0.66304 -1.04617,-0.20923 -1.46531,1.41389 -0.45598,1.76575 0.68894,0.24016 1.25958,-0.20768 1.23952,-0.97277 -0.0068,-0.25805 0.01974,-0.46919 0.05891,-0.46919 0.03916,0 0.3232,0.24821 0.6312,0.55158 0.4994,0.49189 0.57742,0.53059 0.72096,0.35763 0.13916,-0.16767 0.08403,-0.27206 -0.40688,-0.77047 L 18.87366,43.42256 19.17017,43.144 c 0.25807,-0.24244 0.45922,-0.28685 1.55174,-0.34261 l 1.25524,-0.06407 0.20839,1.08712 c 0.25505,1.33048 0.25707,1.48822 0.0233,1.82198 l -0.18511,0.26428 -0.69328,-0.4082 c -0.4852,-0.28569 -0.72013,-0.366 -0.78273,-0.26761 -0.17361,0.27285 -0.08566,0.38661 0.57392,0.7424 0.7227,0.38985 0.83122,0.54971 0.37312,0.54971 -0.45833,0 -0.67102,0.1225 -0.86545,0.49849 -0.22611,0.43726 -0.12196,0.88465 0.27945,1.2004 0.41065,0.32302 0.82764,0.303 1.18766,-0.05702 0.30998,-0.30998 0.4184,-1.06801 0.17433,-1.21885 -0.06775,-0.04187 -0.09082,-0.12851 -0.05126,-0.19252 0.0404,-0.06537 0.3594,0.04809 0.72779,0.25886 0.36072,0.20638 0.71106,0.34112 0.77853,0.29942 0.24823,-0.15341 0.10974,-0.38762 -0.39247,-0.66369 -0.81867,-0.45004 -0.82427,-0.4581 -0.59648,-0.85849 0.16529,-0.29053 0.40322,-0.42301 1.29374,-0.72039 0.60017,-0.20042 1.13144,-0.36439 1.18061,-0.36439 0.09735,0 1.18273,2.104 1.18273,2.29272 0,0.06365 -0.05135,0.2508 -0.11411,0.41587 l -0.11411,0.30014 -0.74059,-0.19843 c -0.63791,-0.17092 -0.75542,-0.17443 -0.84759,-0.02531 -0.15776,0.25527 -0.08116,0.31231 0.7222,0.53772 0.70605,0.19811 0.97661,0.43486 0.49694,0.43486 -0.29525,0 -0.73607,0.55019 -0.73607,0.91868 0,0.36451 0.45699,0.86961 0.87574,0.96792 0.26438,0.06208 0.40344,0.0044 0.69696,-0.28914 0.43081,-0.43081 0.46699,-0.8312 0.11547,-1.27808 -0.29559,-0.37578 -0.2155,-0.39486 0.73582,-0.17527 0.52214,0.12052 0.64185,0.11573 0.73147,-0.02929 0.14455,-0.23387 0.05309,-0.29686 -0.77298,-0.53235 -0.67744,-0.19313 -0.70484,-0.21621 -0.62662,-0.5279 0.11517,-0.45886 0.22157,-0.56126 1.24757,-1.20074 l 0.91095,-0.56777 0.82653,0.90243 c 0.70919,0.77432 0.82712,0.96695 0.83069,1.35697 l 0.0041,0.45454 -0.84848,0 c -0.76768,0 -0.84849,0.02309 -0.84849,0.24243 0,0.21933 0.08081,0.24242 0.84849,0.24242 0.46667,0 0.84848,0.02308 0.84848,0.05128 0,0.02821 -0.16363,0.21492 -0.36363,0.41492 -0.44671,0.44671 -0.46949,0.89352 -0.06612,1.29689 0.84819,0.84819 2.21139,-0.3788 1.39473,-1.25538 -0.13593,-0.14591 -0.29957,-0.26528 -0.36364,-0.26528 -0.06407,0 -0.11649,-0.05455 -0.11649,-0.12122 0,-0.06926 0.36364,-0.12121 0.84849,-0.12121 0.76106,0 0.84848,-0.0244 0.84848,-0.23688 0,-0.20811 -0.09941,-0.24124 -0.81818,-0.27273 l -0.81818,-0.03584 -0.03698,-0.38046 c -0.03143,-0.32341 0.09266,-0.52663 0.82748,-1.35512 l 0.86446,-0.97466 0.93009,0.60497 c 1.11441,0.72484 1.19436,0.80002 1.29721,1.21976 0.07649,0.31214 0.04863,0.33558 -0.62838,0.52858 -0.82996,0.2366 -0.91778,0.29808 -0.76918,0.53851 0.09777,0.1582 0.19811,0.15686 0.84331,-0.01123 0.40279,-0.10494 0.75788,-0.16526 0.7891,-0.13404 0.03122,0.03122 -0.05054,0.19318 -0.18169,0.35991 -0.33906,0.43105 -0.29794,0.83567 0.12823,1.26184 0.29353,0.29353 0.43259,0.35122 0.69697,0.28915 0.41875,-0.09832 0.87574,-0.60342 0.87574,-0.96792 0,-0.36849 -0.44083,-0.91868 -0.73607,-0.91868 -0.47967,0 -0.20911,-0.23676 0.49694,-0.43487 0.80336,-0.22541 0.87996,-0.28245 0.7222,-0.53771 -0.09217,-0.14913 -0.20968,-0.14562 -0.84759,0.0253 l -0.74059,0.19843 -0.11411,-0.30013 c -0.06276,-0.16508 -0.11411,-0.35222 -0.11411,-0.41588 0,-0.18872 1.08538,-2.29272 1.18273,-2.29272 0.04917,0 0.58044,0.16398 1.18061,0.36439 0.90243,0.30136 1.12731,0.42784 1.2999,0.73114 0.23208,0.40781 0.28622,0.34677 -0.88803,1.00127 -0.35749,0.19926 -0.37456,0.23459 -0.19844,0.41071 0.17612,0.17612 0.25034,0.16016 0.86279,-0.18549 0.36855,-0.20799 0.70086,-0.3284 0.73846,-0.26756 0.03759,0.06083 0.01292,0.14487 -0.05483,0.18674 -0.06776,0.04188 -0.12319,0.28714 -0.12319,0.54504 0,0.84402 0.88234,1.25392 1.50383,0.69861 0.47038,-0.4203 0.5119,-0.83007 0.13008,-1.28384 -0.22567,-0.26819 -0.42779,-0.38283 -0.67499,-0.38283 -0.51801,0 -0.43467,-0.14619 0.31338,-0.5497 0.66369,-0.35801 0.74787,-0.46883 0.56945,-0.74965 -0.06858,-0.10793 -0.28479,-0.03287 -0.80092,0.27804 -0.38883,0.23423 -0.72035,0.40985 -0.7367,0.39026 -0.01634,-0.01959 -0.10935,-0.19081 -0.20667,-0.3805 -0.15849,-0.3089 -0.15067,-0.47176 0.07492,-1.56104 l 0.25186,-1.21616 1.25151,0.0636 c 1.08899,0.05534 1.29002,0.09978 1.54802,0.34216 l 0.29651,0.27855 -0.56785,0.57652 c -0.49091,0.4984 -0.54604,0.60279 -0.40688,0.77046 0.14354,0.17296 0.22156,0.13426 0.72096,-0.35763 0.64229,-0.63263 0.79291,-0.68363 0.67904,-0.22991 -0.19069,0.75977 0.50529,1.3801 1.25512,1.11871 0.99379,-0.34643 0.61253,-1.86864 -0.45071,-1.7995 -0.57152,0.03716 -0.5699,0.0065 0.032,-0.60456 0.51125,-0.51906 0.5693,-0.62623 0.43006,-0.794 -0.14345,-0.17286 -0.22445,-0.13142 -0.7447,0.38101 l -0.58374,0.57496 -0.29149,-0.27385 c -0.25785,-0.24224 -0.30145,-0.41984 -0.3777,-1.53853 -0.06844,-1.00404 -0.12361,-1.26469 -0.26772,-1.26469 -0.152,0 -0.17474,0.19964 -0.13985,1.22812 l 0.04166,1.22811 -1.24242,-0.08042 c -1.06996,-0.06927 -1.24243,-0.05466 -1.24243,0.10521 0,0.10211 -0.07809,0.18565 -0.17355,0.18565 -0.11841,0 -0.23723,0.29842 -0.37402,0.93939 -0.26529,1.24314 -0.30131,1.36364 -0.40755,1.36364 -0.04967,0 -0.56687,-0.16109 -1.14933,-0.35797 -0.9026,-0.3051 -1.06939,-0.33093 -1.12929,-0.17486 -0.03864,0.10072 -0.14531,0.15433 -0.23702,0.11913 -0.11415,-0.0438 -0.33863,0.27821 -0.71152,1.02069 l -0.54476,1.08468 -1.04665,-0.67521 c -0.74513,-0.48069 -1.07299,-0.63259 -1.13808,-0.52727 -0.05144,0.08323 -0.15819,0.10666 -0.24411,0.05356 -0.10128,-0.06259 -0.43132,0.2076 -0.98041,0.80265 l -0.82773,0.89702 -0.784,-0.84848 c -0.4312,-0.46667 -0.8502,-0.83197 -0.93112,-0.81179 -0.08092,0.02019 -0.18712,-0.02801 -0.236,-0.10711 -0.06158,-0.09963 -0.40948,0.06516 -1.13244,0.53641 l -1.04355,0.68022 -0.54476,-1.08468 c -0.37289,-0.74248 -0.59737,-1.06449 -0.71152,-1.02069 -0.09171,0.0352 -0.19838,-0.01841 -0.23703,-0.11913 -0.05989,-0.15607 -0.22668,-0.13024 -1.12928,0.17486 -0.58247,0.19688 -1.10124,0.35797 -1.15283,0.35797 -0.10078,0 -0.24434,-0.49468 -0.46611,-1.60606 -0.09148,-0.45848 -0.19834,-0.69697 -0.31229,-0.69697 -0.09528,0 -0.17323,-0.08354 -0.17323,-0.18565 0,-0.15991 -0.17287,-0.17446 -1.24736,-0.105 l -1.24736,0.08065 0.04934,-1.22834 c 0.04108,-1.02289 0.0195,-1.22833 -0.12905,-1.22833 -0.13179,0 -0.19857,0.21371 -0.25566,0.81818 0,0 0.05709,-0.60447 0,0 l 0,0"
         style="fill:#0093cb;fill-opacity:1;fill-rule:evenodd;stroke:none"
         id="path36" /></g></g></svg>