<?xml version="1.0" encoding="UTF-8" standalone="no"?>
<!-- Created with Inkscape (http://www.inkscape.org/) -->

<svg
   xmlns:dc="http://purl.org/dc/elements/1.1/"
   xmlns:cc="http://creativecommons.org/ns#"
   xmlns:rdf="http://www.w3.org/1999/02/22-rdf-syntax-ns#"
   xmlns:svg="http://www.w3.org/2000/svg"
   xmlns="http://www.w3.org/2000/svg"
   xmlns:sodipodi="http://sodipodi.sourceforge.net/DTD/sodipodi-0.dtd"
   xmlns:inkscape="http://www.inkscape.org/namespaces/inkscape"
   version="1.1"
   id="svg3732"
   xml:space="preserve"
   width="492"
   height="226.66667"
   viewBox="0 0 492 226.66667"
   sodipodi:docname="Logo_UWr.svg"><metadata
     id="metadata3738"><rdf:RDF><cc:Work
         rdf:about=""><dc:format>image/svg+xml</dc:format><dc:type
           rdf:resource="http://purl.org/dc/dcmitype/StillImage" /><dc:title></dc:title></cc:Work></rdf:RDF></metadata><defs
     id="defs3736"><clipPath
       clipPathUnits="userSpaceOnUse"
       id="clipPath3748"><path
         d="M 0,170 H 369 V 0 H 0 Z"
         id="path3746"
         inkscape:connector-curvature="0" /></clipPath></defs><sodipodi:namedview
     pagecolor="#ffffff"
     bordercolor="#666666"
     borderopacity="1"
     objecttolerance="10"
     gridtolerance="10"
     guidetolerance="10"
     inkscape:pageopacity="0"
     inkscape:pageshadow="2"
     inkscape:window-width="1920"
     inkscape:window-height="1022"
     id="namedview3734"
     showgrid="false"
     inkscape:zoom="3.4878049"
     inkscape:cx="246"
     inkscape:cy="113.33334"
     inkscape:window-x="0"
     inkscape:window-y="30"
     inkscape:window-maximized="1"
     inkscape:current-layer="g3740" /><g
     id="g3740"
     inkscape:groupmode="layer"
     inkscape:label="LOGO_UWR"
     transform="matrix(1.3333333,0,0,-1.3333333,0,226.66667)"><g
       id="g3742"><g
         id="g3744"
         clip-path="url(#clipPath3748)"><g
           id="g3750"
           transform="translate(141.2827,120.6157)"><path
             d="m 0,0 v -17.431 c 0,-2.214 0.158,-3.888 0.47,-4.975 0.315,-1.106 0.849,-2.073 1.589,-2.872 0.805,-0.901 1.855,-1.587 3.208,-2.098 1.325,-0.495 2.784,-0.745 4.338,-0.745 1.565,0 3.026,0.25 4.344,0.745 1.325,0.505 2.403,1.211 3.203,2.099 0.756,0.808 1.304,1.791 1.628,2.918 0.321,1.115 0.483,2.774 0.483,4.928 V 0.383 L 16.532,0 v -17.392 c 0,-2.998 -0.535,-5.126 -1.591,-6.324 -1.053,-1.19 -2.849,-1.794 -5.336,-1.794 -2.481,0 -4.273,0.608 -5.324,1.807 -1.054,1.199 -1.59,3.322 -1.59,6.311 V 0.383 Z"
             style="fill:#006eab;fill-opacity:1;fill-rule:nonzero;stroke:none"
             id="path3752"
             inkscape:connector-curvature="0" /></g><g
           id="g3754"
           transform="translate(141.2827,120.6157)"><path
             d="m 0,0 v -17.431 c 0,-2.214 0.158,-3.888 0.47,-4.975 0.315,-1.106 0.849,-2.073 1.589,-2.872 0.805,-0.901 1.855,-1.587 3.208,-2.098 1.325,-0.495 2.784,-0.745 4.338,-0.745 1.565,0 3.026,0.25 4.344,0.745 1.325,0.505 2.403,1.211 3.203,2.099 0.756,0.808 1.304,1.791 1.628,2.918 0.321,1.115 0.483,2.774 0.483,4.928 V 0.383 L 16.532,0 v -17.392 c 0,-2.998 -0.535,-5.126 -1.591,-6.324 -1.053,-1.19 -2.849,-1.794 -5.336,-1.794 -2.481,0 -4.273,0.608 -5.324,1.807 -1.054,1.199 -1.59,3.322 -1.59,6.311 V 0.383 Z"
             style="fill:none;stroke:#006eab;stroke-width:0.15000001;stroke-linecap:butt;stroke-linejoin:miter;stroke-miterlimit:4;stroke-dasharray:none;stroke-opacity:1"
             id="path3756"
             inkscape:connector-curvature="0" /></g><g
           id="g3758"
           transform="translate(171.1504,112.769)"><path
             d="M 0,0 C -1.009,-0.567 -1.915,-1.44 -2.721,-2.542 V 0.68 L -5.18,0.381 v -20.377 l 2.459,0.299 v 12.515 c 0,1.652 0.588,3.079 1.746,4.243 1.149,1.163 2.525,1.752 4.09,1.752 1.731,0 3.043,-0.566 3.901,-1.682 0.873,-1.128 1.315,-2.847 1.315,-5.111 v -12.017 l 2.398,0.3 v 12.828 c 0,2.461 -0.623,4.393 -1.851,5.743 C 7.649,0.231 5.9,0.919 3.681,0.919 2.33,0.919 1.092,0.61 0,0"
             style="fill:#006eab;fill-opacity:1;fill-rule:nonzero;stroke:none"
             id="path3760"
             inkscape:connector-curvature="0" /></g><g
           id="g3762"
           transform="translate(171.1504,112.769)"><path
             d="M 0,0 C -1.009,-0.567 -1.915,-1.44 -2.721,-2.542 V 0.68 L -5.18,0.381 v -20.377 l 2.459,0.299 v 12.515 c 0,1.652 0.588,3.079 1.746,4.243 1.149,1.163 2.525,1.752 4.09,1.752 1.731,0 3.043,-0.566 3.901,-1.682 0.873,-1.128 1.315,-2.847 1.315,-5.111 v -12.017 l 2.398,0.3 v 12.828 c 0,2.461 -0.623,4.393 -1.851,5.743 C 7.649,0.231 5.9,0.919 3.681,0.919 2.33,0.919 1.092,0.61 0,0 Z"
             style="fill:none;stroke:#006eab;stroke-width:0.15000001;stroke-linecap:butt;stroke-linejoin:miter;stroke-miterlimit:4;stroke-dasharray:none;stroke-opacity:1"
             id="path3764"
             inkscape:connector-curvature="0" /></g><g
           id="g3766"
           transform="translate(186.7852,119.3062)"><path
             d="M 0,0 1.823,-1.99 3.682,0.228 1.813,2.217 Z"
             style="fill:#006eab;fill-opacity:1;fill-rule:nonzero;stroke:none"
             id="path3768"
             inkscape:connector-curvature="0" /></g><g
           id="g3770"
           transform="translate(186.7852,119.3062)"><path
             d="M 0,0 1.823,-1.99 3.682,0.228 1.813,2.217 Z"
             style="fill:none;stroke:#006eab;stroke-width:0.15000001;stroke-linecap:butt;stroke-linejoin:miter;stroke-miterlimit:4;stroke-dasharray:none;stroke-opacity:1"
             id="path3772"
             inkscape:connector-curvature="0" /></g><g
           id="g3774"
           transform="translate(187.3848,113.1504)"><path
             d="m 0,0 v -20.419 l 2.499,0.342 V 0.298 Z"
             style="fill:#006eab;fill-opacity:1;fill-rule:nonzero;stroke:none"
             id="path3776"
             inkscape:connector-curvature="0" /></g><g
           id="g3778"
           transform="translate(187.3848,113.1504)"><path
             d="m 0,0 v -20.419 l 2.499,0.342 V 0.298 Z"
             style="fill:none;stroke:#006eab;stroke-width:0.15000001;stroke-linecap:butt;stroke-linejoin:miter;stroke-miterlimit:4;stroke-dasharray:none;stroke-opacity:1"
             id="path3780"
             inkscape:connector-curvature="0" /></g><g
           id="g3782"
           transform="translate(201.6172,98.3433)"><path
             d="M 0,0 C -0.184,0.432 -6.534,15.373 -6.534,15.373 L -8.98,14.501 -0.167,-5.887 c 0,0 7.147,15.54 7.338,15.954 0.191,-0.413 7.389,-15.95 7.389,-15.95 l 9.136,20.499 -2.275,0.754 c 0,0 -6.679,-14.879 -6.865,-15.296 C 14.36,0.487 7.29,15.49 7.29,15.49 7.29,15.49 0.2,0.424 0,0"
             style="fill:#006eab;fill-opacity:1;fill-rule:nonzero;stroke:none"
             id="path3784"
             inkscape:connector-curvature="0" /></g><g
           id="g3786"
           transform="translate(201.6172,98.3433)"><path
             d="M 0,0 C -0.184,0.432 -6.534,15.373 -6.534,15.373 L -8.98,14.501 -0.167,-5.887 c 0,0 7.147,15.54 7.338,15.954 0.191,-0.413 7.389,-15.95 7.389,-15.95 l 9.136,20.499 -2.275,0.754 c 0,0 -6.679,-14.879 -6.865,-15.296 C 14.36,0.487 7.29,15.49 7.29,15.49 7.29,15.49 0.2,0.424 0,0 Z"
             style="fill:none;stroke:#006eab;stroke-width:0.15000001;stroke-linecap:butt;stroke-linejoin:miter;stroke-miterlimit:4;stroke-dasharray:none;stroke-opacity:1"
             id="path3788"
             inkscape:connector-curvature="0" /></g><g
           id="g3790"
           transform="translate(229.5908,101.5825)"><path
             d="m 0,0 c -0.016,0.213 -0.047,0.635 -0.047,0.635 l -0.019,0.94 c 0,2.242 0.789,4.164 2.344,5.714 1.562,1.542 3.493,2.324 5.741,2.324 1.076,0 2.043,-0.174 2.873,-0.517 C 11.681,8.77 12.34,8.279 12.873,7.658 12.637,7.518 0.291,0.173 0,0 M 11.717,-5.686 C 10.498,-6.207 9.254,-6.47 8.019,-6.47 c -1.56,0 -2.985,0.388 -4.237,1.156 -1.225,0.75 -2.203,1.829 -2.924,3.187 0.196,0.116 15.609,9.211 15.609,9.211 L 16.42,7.175 C 15.626,8.73 14.492,9.938 13.051,10.766 11.62,11.593 9.927,12.012 8.019,12.012 5,12.012 2.441,11.005 0.416,9.02 -1.61,7.033 -2.639,4.513 -2.639,1.528 c 0,-2.978 1.022,-5.505 3.035,-7.51 2.014,-2.008 4.58,-3.026 7.623,-3.026 1.374,0 2.732,0.235 4.036,0.698 1.289,0.468 2.608,1.198 3.922,2.171 l 0.044,0.033 v 3.146 l -0.176,-0.139 c -1.511,-1.195 -2.901,-2.066 -4.128,-2.587"
             style="fill:#006eab;fill-opacity:1;fill-rule:nonzero;stroke:none"
             id="path3792"
             inkscape:connector-curvature="0" /></g><g
           id="g3794"
           transform="translate(229.5908,101.5825)"><path
             d="m 0,0 c -0.016,0.213 -0.047,0.635 -0.047,0.635 l -0.019,0.94 c 0,2.242 0.789,4.164 2.344,5.714 1.562,1.542 3.493,2.324 5.741,2.324 1.076,0 2.043,-0.174 2.873,-0.517 C 11.681,8.77 12.34,8.279 12.873,7.658 12.637,7.518 0.291,0.173 0,0 Z M 11.717,-5.686 C 10.498,-6.207 9.254,-6.47 8.019,-6.47 c -1.56,0 -2.985,0.388 -4.237,1.156 -1.225,0.75 -2.203,1.829 -2.924,3.187 0.196,0.116 15.609,9.211 15.609,9.211 L 16.42,7.175 C 15.626,8.73 14.492,9.938 13.051,10.766 11.62,11.593 9.927,12.012 8.019,12.012 5,12.012 2.441,11.005 0.416,9.02 -1.61,7.033 -2.639,4.513 -2.639,1.528 c 0,-2.978 1.022,-5.505 3.035,-7.51 2.014,-2.008 4.58,-3.026 7.623,-3.026 1.374,0 2.732,0.235 4.036,0.698 1.289,0.468 2.608,1.198 3.922,2.171 l 0.044,0.033 v 3.146 l -0.176,-0.139 c -1.511,-1.195 -2.901,-2.066 -4.128,-2.587 z"
             style="fill:none;stroke:#006eab;stroke-width:0.15000001;stroke-linecap:butt;stroke-linejoin:miter;stroke-miterlimit:4;stroke-dasharray:none;stroke-opacity:1"
             id="path3796"
             inkscape:connector-curvature="0" /></g><g
           id="g3798"
           transform="translate(259.2959,113.8076)"><path
             d="m 0,0 c -1.543,0 -2.925,-0.4 -4.105,-1.189 -1.086,-0.726 -2.011,-1.838 -2.788,-3.237 v 4.068 l -2.439,-0.299 v -20.378 l 2.439,0.299 v 7.603 c 0,3.447 0.539,6.072 1.601,7.804 1.058,1.717 2.716,2.696 4.931,2.911 0.089,0.066 1.007,2.269 1.007,2.269 L 0.708,0 Z"
             style="fill:#006eab;fill-opacity:1;fill-rule:nonzero;stroke:none"
             id="path3800"
             inkscape:connector-curvature="0" /></g><g
           id="g3802"
           transform="translate(259.2959,113.8076)"><path
             d="m 0,0 c -1.543,0 -2.925,-0.4 -4.105,-1.189 -1.086,-0.726 -2.011,-1.838 -2.788,-3.237 v 4.068 l -2.439,-0.299 v -20.378 l 2.439,0.299 v 7.603 c 0,3.447 0.539,6.072 1.601,7.804 1.058,1.717 2.716,2.696 4.931,2.911 0.089,0.066 1.007,2.269 1.007,2.269 L 0.708,0 Z"
             style="fill:none;stroke:#006eab;stroke-width:0.15000001;stroke-linecap:butt;stroke-linejoin:miter;stroke-miterlimit:4;stroke-dasharray:none;stroke-opacity:1"
             id="path3804"
             inkscape:connector-curvature="0" /></g><g
           id="g3806"
           transform="translate(263.3623,112.0308)"><path
             d="m 0,0 c -1.252,-1.104 -1.888,-2.479 -1.888,-4.088 0,-1.531 0.471,-2.746 1.399,-3.613 0.921,-0.86 2.656,-1.614 5.159,-2.243 1.436,-0.35 2.45,-0.806 3.013,-1.355 0.547,-0.536 0.825,-1.283 0.825,-2.22 0,-1.052 -0.382,-1.925 -1.134,-2.595 -0.758,-0.666 -1.75,-1.004 -2.95,-1.004 -0.974,0 -1.894,0.207 -2.736,0.615 -0.849,0.405 -1.635,1.019 -2.334,1.824 l -0.074,0.085 -1.832,-1.743 0.063,-0.078 c 0.829,-1.038 1.823,-1.832 2.954,-2.359 1.137,-0.533 2.415,-0.802 3.799,-0.802 1.966,0 3.626,0.607 4.931,1.805 1.304,1.195 1.965,2.724 1.965,4.545 0,1.386 -0.435,2.563 -1.292,3.5 -0.849,0.93 -2.147,1.65 -3.857,2.142 -0.001,0 -1.291,0.327 -1.291,0.327 -2.677,0.648 -4.035,1.741 -4.035,3.249 0,1.008 0.372,1.826 1.105,2.433 0.735,0.619 1.724,0.933 2.939,0.933 0.744,0 1.504,-0.167 2.26,-0.497 0.771,-0.333 1.536,-0.826 2.276,-1.466 l 0.086,-0.076 1.536,2.008 -0.076,0.067 C 9.957,0.141 9.015,0.709 8.009,1.084 7.009,1.464 5.919,1.657 4.77,1.657 2.859,1.657 1.255,1.1 0,0"
             style="fill:#006eab;fill-opacity:1;fill-rule:nonzero;stroke:none"
             id="path3808"
             inkscape:connector-curvature="0" /></g><g
           id="g3810"
           transform="translate(263.3623,112.0308)"><path
             d="m 0,0 c -1.252,-1.104 -1.888,-2.479 -1.888,-4.088 0,-1.531 0.471,-2.746 1.399,-3.613 0.921,-0.86 2.656,-1.614 5.159,-2.243 1.436,-0.35 2.45,-0.806 3.013,-1.355 0.547,-0.536 0.825,-1.283 0.825,-2.22 0,-1.052 -0.382,-1.925 -1.134,-2.595 -0.758,-0.666 -1.75,-1.004 -2.95,-1.004 -0.974,0 -1.894,0.207 -2.736,0.615 -0.849,0.405 -1.635,1.019 -2.334,1.824 l -0.074,0.085 -1.832,-1.743 0.063,-0.078 c 0.829,-1.038 1.823,-1.832 2.954,-2.359 1.137,-0.533 2.415,-0.802 3.799,-0.802 1.966,0 3.626,0.607 4.931,1.805 1.304,1.195 1.965,2.724 1.965,4.545 0,1.386 -0.435,2.563 -1.292,3.5 -0.849,0.93 -2.147,1.65 -3.857,2.142 -0.001,0 -1.291,0.327 -1.291,0.327 -2.677,0.648 -4.035,1.741 -4.035,3.249 0,1.008 0.372,1.826 1.105,2.433 0.735,0.619 1.724,0.933 2.939,0.933 0.744,0 1.504,-0.167 2.26,-0.497 0.771,-0.333 1.536,-0.826 2.276,-1.466 l 0.086,-0.076 1.536,2.008 -0.076,0.067 C 9.957,0.141 9.015,0.709 8.009,1.084 7.009,1.464 5.919,1.657 4.77,1.657 2.859,1.657 1.255,1.1 0,0 Z"
             style="fill:none;stroke:#006eab;stroke-width:0.15000001;stroke-linecap:butt;stroke-linejoin:miter;stroke-miterlimit:4;stroke-dasharray:none;stroke-opacity:1"
             id="path3812"
             inkscape:connector-curvature="0" /></g><g
           id="g3814"
           transform="translate(286.166,99.1509)"><path
             d="m 0,0 c -0.194,0.352 -8.015,14.463 -8.015,14.463 l -2.395,-0.686 c 0,0 9.136,-16.416 9.137,-16.418 -0.052,0 -5.054,-10.002 -5.054,-10.002 L -6.386,-12.761 -3.97,-13.426 9.498,13.82 7.143,14.463 C 7.143,14.463 0.179,0.36 0,0"
             style="fill:#006eab;fill-opacity:1;fill-rule:nonzero;stroke:none"
             id="path3816"
             inkscape:connector-curvature="0" /></g><g
           id="g3818"
           transform="translate(286.166,99.1509)"><path
             d="m 0,0 c -0.194,0.352 -8.015,14.463 -8.015,14.463 l -2.395,-0.686 c 0,0 9.136,-16.416 9.137,-16.418 -0.052,0 -5.054,-10.002 -5.054,-10.002 L -6.386,-12.761 -3.97,-13.426 9.498,13.82 7.143,14.463 C 7.143,14.463 0.179,0.36 0,0 Z"
             style="fill:none;stroke:#006eab;stroke-width:0.15000001;stroke-linecap:butt;stroke-linejoin:miter;stroke-miterlimit:4;stroke-dasharray:none;stroke-opacity:1"
             id="path3820"
             inkscape:connector-curvature="0" /></g><g
           id="g3822"
           transform="translate(298.8115,117.8652)"><path
             d="m 0,0 c 0,0 -0.049,-4.496 -0.051,-4.703 h -2.216 l -0.711,-2.379 h 2.925 V -17.15 c 0,-3.031 0.414,-5.062 1.266,-6.208 0.85,-1.142 2.31,-1.72 4.341,-1.72 l 1.017,0.068 1.219,0.223 -0.005,0.089 v 2.331 l -1.222,-0.207 c -10e-4,0 -0.89,-0.066 -0.89,-0.066 -1.218,0 -2.076,0.339 -2.554,1.007 -0.485,0.685 -0.731,2.102 -0.731,4.21 v 10.341 h 5.204 v 2.379 H 2.388 v 6.146 z"
             style="fill:#006eab;fill-opacity:1;fill-rule:nonzero;stroke:none"
             id="path3824"
             inkscape:connector-curvature="0" /></g><g
           id="g3826"
           transform="translate(298.8115,117.8652)"><path
             d="m 0,0 c 0,0 -0.049,-4.496 -0.051,-4.703 h -2.216 l -0.711,-2.379 h 2.925 V -17.15 c 0,-3.031 0.414,-5.062 1.266,-6.208 0.85,-1.142 2.31,-1.72 4.341,-1.72 l 1.017,0.068 1.219,0.223 -0.005,0.089 v 2.331 l -1.222,-0.207 c -10e-4,0 -0.89,-0.066 -0.89,-0.066 -1.218,0 -2.076,0.339 -2.554,1.007 -0.485,0.685 -0.731,2.102 -0.731,4.21 v 10.341 h 5.204 v 2.379 H 2.388 v 6.146 z"
             style="fill:none;stroke:#006eab;stroke-width:0.15000001;stroke-linecap:butt;stroke-linejoin:miter;stroke-miterlimit:4;stroke-dasharray:none;stroke-opacity:1"
             id="path3828"
             inkscape:connector-curvature="0" /></g><g
           id="g3830"
           transform="translate(311.6777,101.5825)"><path
             d="m 0,0 c -0.016,0.213 -0.047,0.635 -0.047,0.635 l -0.019,0.94 c 0,2.243 0.788,4.165 2.343,5.714 1.563,1.542 3.494,2.324 5.742,2.324 1.076,0 2.043,-0.174 2.874,-0.517 C 11.681,8.769 12.34,8.279 12.873,7.658 12.637,7.518 0.291,0.173 0,0 M 11.717,-5.686 C 10.498,-6.207 9.254,-6.47 8.019,-6.47 c -1.56,0 -2.985,0.388 -4.237,1.156 -1.227,0.751 -2.204,1.83 -2.924,3.187 0.196,0.116 15.609,9.211 15.609,9.211 L 16.42,7.175 C 15.626,8.73 14.492,9.938 13.05,10.766 11.62,11.593 9.927,12.012 8.019,12.012 5,12.012 2.441,11.005 0.416,9.02 -1.61,7.033 -2.639,4.513 -2.639,1.528 c 0,-2.977 1.021,-5.504 3.034,-7.51 2.014,-2.008 4.58,-3.026 7.624,-3.026 1.376,0 2.733,0.235 4.035,0.698 1.291,0.469 2.61,1.199 3.922,2.171 l 0.044,0.033 v 3.146 l -0.176,-0.139 c -1.509,-1.194 -2.898,-2.065 -4.127,-2.587"
             style="fill:#006eab;fill-opacity:1;fill-rule:nonzero;stroke:none"
             id="path3832"
             inkscape:connector-curvature="0" /></g><g
           id="g3834"
           transform="translate(311.6777,101.5825)"><path
             d="m 0,0 c -0.016,0.213 -0.047,0.635 -0.047,0.635 l -0.019,0.94 c 0,2.243 0.788,4.165 2.343,5.714 1.563,1.542 3.494,2.324 5.742,2.324 1.076,0 2.043,-0.174 2.874,-0.517 C 11.681,8.769 12.34,8.279 12.873,7.658 12.637,7.518 0.291,0.173 0,0 Z M 11.717,-5.686 C 10.498,-6.207 9.254,-6.47 8.019,-6.47 c -1.56,0 -2.985,0.388 -4.237,1.156 -1.227,0.751 -2.204,1.83 -2.924,3.187 0.196,0.116 15.609,9.211 15.609,9.211 L 16.42,7.175 C 15.626,8.73 14.492,9.938 13.05,10.766 11.62,11.593 9.927,12.012 8.019,12.012 5,12.012 2.441,11.005 0.416,9.02 -1.61,7.033 -2.639,4.513 -2.639,1.528 c 0,-2.977 1.021,-5.504 3.034,-7.51 2.014,-2.008 4.58,-3.026 7.624,-3.026 1.376,0 2.733,0.235 4.035,0.698 1.291,0.469 2.61,1.199 3.922,2.171 l 0.044,0.033 v 3.146 l -0.176,-0.139 c -1.509,-1.194 -2.898,-2.065 -4.127,-2.587 z"
             style="fill:none;stroke:#006eab;stroke-width:0.15000001;stroke-linecap:butt;stroke-linejoin:miter;stroke-miterlimit:4;stroke-dasharray:none;stroke-opacity:1"
             id="path3836"
             inkscape:connector-curvature="0" /></g><g
           id="g3838"
           transform="translate(332.9805,117.8652)"><path
             d="m 0,0 c 0,0 -0.049,-4.496 -0.051,-4.703 h -2.216 l -0.71,-2.379 h 2.924 V -17.15 c 0,-3.031 0.415,-5.061 1.268,-6.208 0.849,-1.142 2.309,-1.72 4.339,-1.72 l 1.018,0.068 1.218,0.223 -0.005,0.089 v 2.331 l -1.221,-0.207 c -0.001,0 -0.89,-0.066 -0.89,-0.066 -1.218,0 -2.078,0.339 -2.555,1.007 -0.485,0.686 -0.731,2.103 -0.731,4.21 v 10.341 h 5.205 v 2.379 H 2.388 v 6.146 z"
             style="fill:#006eab;fill-opacity:1;fill-rule:nonzero;stroke:none"
             id="path3840"
             inkscape:connector-curvature="0" /></g><g
           id="g3842"
           transform="translate(332.9805,117.8652)"><path
             d="m 0,0 c 0,0 -0.049,-4.496 -0.051,-4.703 h -2.216 l -0.71,-2.379 h 2.924 V -17.15 c 0,-3.031 0.415,-5.061 1.268,-6.208 0.849,-1.142 2.309,-1.72 4.339,-1.72 l 1.018,0.068 1.218,0.223 -0.005,0.089 v 2.331 l -1.221,-0.207 c -0.001,0 -0.89,-0.066 -0.89,-0.066 -1.218,0 -2.078,0.339 -2.555,1.007 -0.485,0.686 -0.731,2.103 -0.731,4.21 v 10.341 h 5.205 v 2.379 H 2.388 v 6.146 z"
             style="fill:none;stroke:#006eab;stroke-width:0.15000001;stroke-linecap:butt;stroke-linejoin:miter;stroke-miterlimit:4;stroke-dasharray:none;stroke-opacity:1"
             id="path3844"
             inkscape:connector-curvature="0" /></g><g
           id="g3846"
           transform="translate(158.6079,67.8672)"><path
             d="M 0,0 C -0.19,0.459 -3.968,9.605 -3.968,9.605 L -6.251,9.092 c 0,0 4.999,-12.145 4.999,-12.146 -0.031,0 -3.553,-8.494 -4.165,-9.972 -0.196,0.47 -9.379,22.63 -9.379,22.63 l -2.572,-0.509 11.77,-28.32 c 0,0 5.406,12.767 5.598,13.22 0.192,-0.453 5.598,-13.22 5.598,-13.22 l 11.77,28.32 -2.579,0.509 c 0,0 -9.159,-22.163 -9.352,-22.632 -0.192,0.456 -4.226,10.057 -4.226,10.057 0,-0.083 4.992,11.945 4.992,11.945 L 6.252,9.092 3.968,9.605 C 3.968,9.605 0.19,0.459 0,0"
             style="fill:#006eab;fill-opacity:1;fill-rule:nonzero;stroke:none"
             id="path3848"
             inkscape:connector-curvature="0" /></g><g
           id="g3850"
           transform="translate(158.6079,67.8672)"><path
             d="M 0,0 C -0.19,0.459 -3.968,9.605 -3.968,9.605 L -6.251,9.092 c 0,0 4.999,-12.145 4.999,-12.146 -0.031,0 -3.553,-8.494 -4.165,-9.972 -0.196,0.47 -9.379,22.63 -9.379,22.63 l -2.572,-0.509 11.77,-28.32 c 0,0 5.406,12.767 5.598,13.22 0.192,-0.453 5.598,-13.22 5.598,-13.22 l 11.77,28.32 -2.579,0.509 c 0,0 -9.159,-22.163 -9.352,-22.632 -0.192,0.456 -4.226,10.057 -4.226,10.057 0,-0.083 4.992,11.945 4.992,11.945 L 6.252,9.092 3.968,9.605 C 3.968,9.605 0.19,0.459 0,0 Z"
             style="fill:none;stroke:#006eab;stroke-width:0.15000001;stroke-linecap:butt;stroke-linejoin:miter;stroke-miterlimit:4;stroke-dasharray:none;stroke-opacity:1"
             id="path3852"
             inkscape:connector-curvature="0" /></g><g
           id="g3854"
           transform="translate(187.3867,70.168)"><path
             d="m 0,0 c -1.544,0 -2.926,-0.4 -4.106,-1.189 -1.085,-0.726 -2.009,-1.838 -2.787,-3.239 v 4.069 l -2.44,-0.299 v -20.377 l 2.44,0.299 v 7.602 c 0,3.447 0.539,6.073 1.601,7.804 1.057,1.717 2.715,2.696 4.93,2.911 0.089,0.065 1.008,2.269 1.008,2.269 L 0.708,0 Z"
             style="fill:#006eab;fill-opacity:1;fill-rule:nonzero;stroke:none"
             id="path3856"
             inkscape:connector-curvature="0" /></g><g
           id="g3858"
           transform="translate(187.3867,70.168)"><path
             d="m 0,0 c -1.544,0 -2.926,-0.4 -4.106,-1.189 -1.085,-0.726 -2.009,-1.838 -2.787,-3.239 v 4.069 l -2.44,-0.299 v -20.377 l 2.44,0.299 v 7.602 c 0,3.447 0.539,6.073 1.601,7.804 1.057,1.717 2.715,2.696 4.93,2.911 0.089,0.065 1.008,2.269 1.008,2.269 L 0.708,0 Z"
             style="fill:none;stroke:#006eab;stroke-width:0.15000001;stroke-linecap:butt;stroke-linejoin:miter;stroke-miterlimit:4;stroke-dasharray:none;stroke-opacity:1"
             id="path3860"
             inkscape:connector-curvature="0" /></g><g
           id="g3862"
           transform="translate(206.1533,53.7305)"><path
             d="m 0,0 c -1.578,-1.577 -3.51,-2.377 -5.741,-2.377 -2.232,0 -4.17,0.8 -5.76,2.377 -1.591,1.578 -2.397,3.512 -2.397,5.747 0,2.232 0.806,4.162 2.397,5.739 1.59,1.578 3.528,2.378 5.76,2.378 2.231,0 4.163,-0.8 5.741,-2.377 C 1.577,9.909 2.377,7.979 2.377,5.747 2.377,3.512 1.577,1.578 0,0 m 1.829,13.218 c -2.014,1.995 -4.56,3.007 -7.57,3.007 -3.017,0 -5.574,-1.012 -7.603,-3.007 -2.026,-1.993 -3.054,-4.509 -3.054,-7.478 0,-2.964 1.032,-5.489 3.067,-7.505 2.026,-2.011 4.579,-3.032 7.59,-3.032 3.009,0 5.555,1.019 7.57,3.026 2.023,2.008 3.048,4.536 3.048,7.511 0,2.967 -1.025,5.483 -3.048,7.478"
             style="fill:#006eab;fill-opacity:1;fill-rule:nonzero;stroke:none"
             id="path3864"
             inkscape:connector-curvature="0" /></g><g
           id="g3866"
           transform="translate(206.1533,53.7305)"><path
             d="m 0,0 c -1.578,-1.577 -3.51,-2.377 -5.741,-2.377 -2.232,0 -4.17,0.8 -5.76,2.377 -1.591,1.578 -2.397,3.512 -2.397,5.747 0,2.232 0.806,4.162 2.397,5.739 1.59,1.578 3.528,2.378 5.76,2.378 2.231,0 4.163,-0.8 5.741,-2.377 C 1.577,9.909 2.377,7.979 2.377,5.747 2.377,3.512 1.577,1.578 0,0 Z m 1.829,13.218 c -2.014,1.995 -4.56,3.007 -7.57,3.007 -3.017,0 -5.574,-1.012 -7.603,-3.007 -2.026,-1.993 -3.054,-4.509 -3.054,-7.478 0,-2.964 1.032,-5.489 3.067,-7.505 2.026,-2.011 4.579,-3.032 7.59,-3.032 3.009,0 5.555,1.019 7.57,3.026 2.023,2.008 3.048,4.536 3.048,7.511 0,2.967 -1.025,5.483 -3.048,7.478 z"
             style="fill:none;stroke:#006eab;stroke-width:0.15000001;stroke-linecap:butt;stroke-linejoin:miter;stroke-miterlimit:4;stroke-dasharray:none;stroke-opacity:1"
             id="path3868"
             inkscape:connector-curvature="0" /></g><g
           id="g3870"
           transform="translate(217.7891,66.9619)"><path
             d="m 0,0 c -2.026,-1.986 -3.055,-4.507 -3.055,-7.491 0,-2.965 1.033,-5.489 3.067,-7.505 2.026,-2.012 4.579,-3.032 7.59,-3.032 1.277,0 2.578,0.215 3.867,0.637 1.295,0.431 2.515,1.043 3.629,1.818 l 0.095,0.066 -1.621,1.986 -0.082,-0.057 c -0.946,-0.653 -1.937,-1.161 -2.948,-1.512 -0.995,-0.344 -1.984,-0.518 -2.94,-0.518 -2.234,0 -4.172,0.801 -5.76,2.383 -1.591,1.592 -2.398,3.523 -2.398,5.741 0,2.213 0.807,4.141 2.398,5.733 1.588,1.582 3.526,2.384 5.76,2.384 1.027,0 2.01,-0.153 2.921,-0.453 0.933,-0.307 1.891,-0.79 2.848,-1.438 l 0.081,-0.054 1.622,1.955 -0.095,0.067 C 13.885,1.487 12.724,2.07 11.528,2.442 10.352,2.808 9.03,2.993 7.602,2.993 4.583,2.993 2.025,1.985 0,0"
             style="fill:#006eab;fill-opacity:1;fill-rule:nonzero;stroke:none"
             id="path3872"
             inkscape:connector-curvature="0" /></g><g
           id="g3874"
           transform="translate(217.7891,66.9619)"><path
             d="m 0,0 c -2.026,-1.986 -3.055,-4.507 -3.055,-7.491 0,-2.965 1.033,-5.489 3.067,-7.505 2.026,-2.012 4.579,-3.032 7.59,-3.032 1.277,0 2.578,0.215 3.867,0.637 1.295,0.431 2.515,1.043 3.629,1.818 l 0.095,0.066 -1.621,1.986 -0.082,-0.057 c -0.946,-0.653 -1.937,-1.161 -2.948,-1.512 -0.995,-0.344 -1.984,-0.518 -2.94,-0.518 -2.234,0 -4.172,0.801 -5.76,2.383 -1.591,1.592 -2.398,3.523 -2.398,5.741 0,2.213 0.807,4.141 2.398,5.733 1.588,1.582 3.526,2.384 5.76,2.384 1.027,0 2.01,-0.153 2.921,-0.453 0.933,-0.307 1.891,-0.79 2.848,-1.438 l 0.081,-0.054 1.622,1.955 -0.095,0.067 C 13.885,1.487 12.724,2.07 11.528,2.442 10.352,2.808 9.03,2.993 7.602,2.993 4.583,2.993 2.025,1.985 0,0 Z"
             style="fill:none;stroke:#006eab;stroke-width:0.15000001;stroke-linecap:butt;stroke-linejoin:miter;stroke-miterlimit:4;stroke-dasharray:none;stroke-opacity:1"
             id="path3876"
             inkscape:connector-curvature="0" /></g><g
           id="g3878"
           transform="translate(238.1553,77.501)"><path
             d="m 0,0 v -13.389 c -0.026,0.035 -2.157,-1.472 -2.157,-1.472 l -0.046,-2.21 v -0.209 c 0,0 1.913,1.352 2.203,1.556 V -28.41 l 2.459,0.343 v 13.774 c 0.026,-0.033 2.138,1.479 2.138,1.479 l 0.046,2.211 v 0.213 c 0,0 -1.893,-1.384 -2.184,-1.597 v 12.33 z"
             style="fill:#006eab;fill-opacity:1;fill-rule:nonzero;stroke:none"
             id="path3880"
             inkscape:connector-curvature="0" /></g><g
           id="g3882"
           transform="translate(238.1553,77.501)"><path
             d="m 0,0 v -13.389 c -0.026,0.035 -2.157,-1.472 -2.157,-1.472 l -0.046,-2.21 v -0.209 c 0,0 1.913,1.352 2.203,1.556 V -28.41 l 2.459,0.343 v 13.774 c 0.026,-0.033 2.138,1.479 2.138,1.479 l 0.046,2.211 v 0.213 c 0,0 -1.893,-1.384 -2.184,-1.597 v 12.33 z"
             style="fill:none;stroke:#006eab;stroke-width:0.15000001;stroke-linecap:butt;stroke-linejoin:miter;stroke-miterlimit:4;stroke-dasharray:none;stroke-opacity:1"
             id="path3884"
             inkscape:connector-curvature="0" /></g><g
           id="g3886"
           transform="translate(256.8223,52.7041)"><path
             d="m 0,0 c -0.904,-0.924 -2.114,-1.392 -3.597,-1.392 -1.484,0 -2.728,0.485 -3.696,1.441 -0.969,0.961 -1.459,2.174 -1.459,3.602 0,1.444 0.49,2.656 1.458,3.604 0.964,0.951 2.222,1.433 3.738,1.433 C -2.105,8.688 -0.909,8.219 0,7.291 0.902,6.355 1.36,5.131 1.36,3.651 1.36,2.15 0.903,0.922 0,0 m 2.278,15.794 c -1.021,1.028 -2.651,1.55 -4.842,1.55 -0.868,0 -1.786,-0.086 -2.729,-0.255 -0.954,-0.176 -1.897,-0.428 -2.884,-0.77 -0.067,-0.067 -0.939,-2.657 -0.939,-2.657 l -0.076,-0.227 0.22,0.093 c 1.259,0.535 2.407,0.932 3.411,1.18 0.997,0.245 1.925,0.369 2.763,0.369 1.422,0 2.482,-0.321 3.148,-0.955 0.671,-0.626 1.01,-1.624 1.01,-2.97 V 8.88 c -0.664,0.67 -1.422,1.215 -2.284,1.586 -0.941,0.399 -1.934,0.602 -2.951,0.602 -2.035,0 -3.799,-0.732 -5.241,-2.175 -1.444,-1.443 -2.175,-3.206 -2.175,-5.242 0,-2.047 0.729,-3.814 2.168,-5.254 1.437,-1.438 3.204,-2.168 5.248,-2.168 1.069,0 2.069,0.214 2.974,0.636 0.831,0.382 1.584,0.967 2.261,1.698 v -2.359 l 2.46,0.532 V 10.92 c 0,2.197 -0.519,3.837 -1.542,4.874"
             style="fill:#006eab;fill-opacity:1;fill-rule:nonzero;stroke:none"
             id="path3888"
             inkscape:connector-curvature="0" /></g><g
           id="g3890"
           transform="translate(256.8223,52.7041)"><path
             d="m 0,0 c -0.904,-0.924 -2.114,-1.392 -3.597,-1.392 -1.484,0 -2.728,0.485 -3.696,1.441 -0.969,0.961 -1.459,2.174 -1.459,3.602 0,1.444 0.49,2.656 1.458,3.604 0.964,0.951 2.222,1.433 3.738,1.433 C -2.105,8.688 -0.909,8.219 0,7.291 0.902,6.355 1.36,5.131 1.36,3.651 1.36,2.15 0.903,0.922 0,0 Z m 2.278,15.794 c -1.021,1.028 -2.651,1.55 -4.842,1.55 -0.868,0 -1.786,-0.086 -2.729,-0.255 -0.954,-0.176 -1.897,-0.428 -2.884,-0.77 -0.067,-0.067 -0.939,-2.657 -0.939,-2.657 l -0.076,-0.227 0.22,0.093 c 1.259,0.535 2.407,0.932 3.411,1.18 0.997,0.245 1.925,0.369 2.763,0.369 1.422,0 2.482,-0.321 3.148,-0.955 0.671,-0.626 1.01,-1.624 1.01,-2.97 V 8.88 c -0.664,0.67 -1.422,1.215 -2.284,1.586 -0.941,0.399 -1.934,0.602 -2.951,0.602 -2.035,0 -3.799,-0.732 -5.241,-2.175 -1.444,-1.443 -2.175,-3.206 -2.175,-5.242 0,-2.047 0.729,-3.814 2.168,-5.254 1.437,-1.438 3.204,-2.168 5.248,-2.168 1.069,0 2.069,0.214 2.974,0.636 0.831,0.382 1.584,0.967 2.261,1.698 v -2.359 l 2.46,0.532 V 10.92 c 0,2.197 -0.519,3.837 -1.542,4.874 z"
             style="fill:none;stroke:#006eab;stroke-width:0.15000001;stroke-linecap:butt;stroke-linejoin:miter;stroke-miterlimit:4;stroke-dasharray:none;stroke-opacity:1"
             id="path3892"
             inkscape:connector-curvature="0" /></g><g
           id="g3894"
           transform="translate(272.3799,54.7041)"><path
             d="m 0,0 c -0.184,0.431 -6.534,15.371 -6.534,15.371 l -2.447,-0.87 8.813,-20.388 c 0,0 7.147,15.538 7.337,15.952 0.191,-0.413 7.39,-15.948 7.39,-15.948 l 9.137,20.498 -2.276,0.753 c 0,0 -6.679,-14.879 -6.865,-15.295 C 14.359,0.486 7.29,15.489 7.29,15.489 7.29,15.489 0.2,0.424 0,0"
             style="fill:#006eab;fill-opacity:1;fill-rule:nonzero;stroke:none"
             id="path3896"
             inkscape:connector-curvature="0" /></g><g
           id="g3898"
           transform="translate(272.3799,54.7041)"><path
             d="m 0,0 c -0.184,0.431 -6.534,15.371 -6.534,15.371 l -2.447,-0.87 8.813,-20.388 c 0,0 7.147,15.538 7.337,15.952 0.191,-0.413 7.39,-15.948 7.39,-15.948 l 9.137,20.498 -2.276,0.753 c 0,0 -6.679,-14.879 -6.865,-15.295 C 14.359,0.486 7.29,15.489 7.29,15.489 7.29,15.489 0.2,0.424 0,0 Z"
             style="fill:none;stroke:#006eab;stroke-width:0.15000001;stroke-linecap:butt;stroke-linejoin:miter;stroke-miterlimit:4;stroke-dasharray:none;stroke-opacity:1"
             id="path3900"
             inkscape:connector-curvature="0" /></g><g
           id="g3902"
           transform="translate(300.1113,68.3906)"><path
             d="m 0,0 c -1.252,-1.104 -1.888,-2.479 -1.888,-4.088 0,-1.529 0.471,-2.745 1.399,-3.613 0.921,-0.861 2.656,-1.614 5.159,-2.242 1.436,-0.352 2.45,-0.808 3.013,-1.357 0.547,-0.535 0.825,-1.282 0.825,-2.22 0,-1.051 -0.381,-1.924 -1.135,-2.593 -0.757,-0.666 -1.749,-1.004 -2.949,-1.004 -0.974,0 -1.894,0.206 -2.736,0.614 -0.848,0.404 -1.633,1.019 -2.334,1.824 l -0.075,0.085 -1.831,-1.744 0.063,-0.077 c 0.829,-1.038 1.823,-1.831 2.954,-2.359 1.137,-0.533 2.415,-0.803 3.799,-0.803 1.967,0 3.627,0.608 4.931,1.806 1.304,1.195 1.966,2.724 1.966,4.544 0,1.384 -0.435,2.562 -1.293,3.501 -0.848,0.929 -2.146,1.649 -3.856,2.141 -10e-4,0 -1.292,0.328 -1.292,0.328 -2.677,0.648 -4.035,1.741 -4.035,3.249 0,1.022 0.361,1.818 1.105,2.433 0.735,0.619 1.724,0.932 2.939,0.932 0.745,0 1.505,-0.167 2.26,-0.496 0.772,-0.333 1.537,-0.827 2.276,-1.467 l 0.086,-0.076 1.537,2.009 -0.076,0.067 C 9.956,0.142 9.013,0.711 8.009,1.085 7.009,1.464 5.919,1.657 4.77,1.657 2.859,1.657 1.255,1.1 0,0"
             style="fill:#006eab;fill-opacity:1;fill-rule:nonzero;stroke:none"
             id="path3904"
             inkscape:connector-curvature="0" /></g><g
           id="g3906"
           transform="translate(300.1113,68.3906)"><path
             d="m 0,0 c -1.252,-1.104 -1.888,-2.479 -1.888,-4.088 0,-1.529 0.471,-2.745 1.399,-3.613 0.921,-0.861 2.656,-1.614 5.159,-2.242 1.436,-0.352 2.45,-0.808 3.013,-1.357 0.547,-0.535 0.825,-1.282 0.825,-2.22 0,-1.051 -0.381,-1.924 -1.135,-2.593 -0.757,-0.666 -1.749,-1.004 -2.949,-1.004 -0.974,0 -1.894,0.206 -2.736,0.614 -0.848,0.404 -1.633,1.019 -2.334,1.824 l -0.075,0.085 -1.831,-1.744 0.063,-0.077 c 0.829,-1.038 1.823,-1.831 2.954,-2.359 1.137,-0.533 2.415,-0.803 3.799,-0.803 1.967,0 3.627,0.608 4.931,1.806 1.304,1.195 1.966,2.724 1.966,4.544 0,1.384 -0.435,2.562 -1.293,3.501 -0.848,0.929 -2.146,1.649 -3.856,2.141 -10e-4,0 -1.292,0.328 -1.292,0.328 -2.677,0.648 -4.035,1.741 -4.035,3.249 0,1.022 0.361,1.818 1.105,2.433 0.735,0.619 1.724,0.932 2.939,0.932 0.745,0 1.505,-0.167 2.26,-0.496 0.772,-0.333 1.537,-0.827 2.276,-1.467 l 0.086,-0.076 1.537,2.009 -0.076,0.067 C 9.956,0.142 9.013,0.711 8.009,1.085 7.009,1.464 5.919,1.657 4.77,1.657 2.859,1.657 1.255,1.1 0,0 Z"
             style="fill:none;stroke:#006eab;stroke-width:0.15000001;stroke-linecap:butt;stroke-linejoin:miter;stroke-miterlimit:4;stroke-dasharray:none;stroke-opacity:1"
             id="path3908"
             inkscape:connector-curvature="0" /></g><g
           id="g3910"
           transform="translate(330.3809,50.4336)"><path
             d="m 0,0 c 0,0 -8.663,8.985 -8.795,9.122 0.122,0.147 7.726,9.248 7.726,9.248 l -2.058,1.223 -8.666,-10.299 v 18.114 l -2.46,-0.299 V -1.428 l 2.46,0.431 V 8.731 L -1.89,-1.442 Z"
             style="fill:#006eab;fill-opacity:1;fill-rule:nonzero;stroke:none"
             id="path3912"
             inkscape:connector-curvature="0" /></g><g
           id="g3914"
           transform="translate(330.3809,50.4336)"><path
             d="m 0,0 c 0,0 -8.663,8.985 -8.795,9.122 0.122,0.147 7.726,9.248 7.726,9.248 l -2.058,1.223 -8.666,-10.299 v 18.114 l -2.46,-0.299 V -1.428 l 2.46,0.431 V 8.731 L -1.89,-1.442 Z"
             style="fill:none;stroke:#006eab;stroke-width:0.15000001;stroke-linecap:butt;stroke-linejoin:miter;stroke-miterlimit:4;stroke-dasharray:none;stroke-opacity:1"
             id="path3916"
             inkscape:connector-curvature="0" /></g><g
           id="g3918"
           transform="translate(333.1787,75.666)"><path
             d="M 0,0 1.824,-1.99 3.682,0.228 1.814,2.218 Z"
             style="fill:#006eab;fill-opacity:1;fill-rule:nonzero;stroke:none"
             id="path3920"
             inkscape:connector-curvature="0" /></g><g
           id="g3922"
           transform="translate(333.1787,75.666)"><path
             d="M 0,0 1.824,-1.99 3.682,0.228 1.814,2.218 Z"
             style="fill:none;stroke:#006eab;stroke-width:0.15000001;stroke-linecap:butt;stroke-linejoin:miter;stroke-miterlimit:4;stroke-dasharray:none;stroke-opacity:1"
             id="path3924"
             inkscape:connector-curvature="0" /></g><g
           id="g3926"
           transform="translate(333.7783,69.5098)"><path
             d="m 0,0 v -20.419 l 2.5,0.343 V 0.299 Z"
             style="fill:#006eab;fill-opacity:1;fill-rule:nonzero;stroke:none"
             id="path3928"
             inkscape:connector-curvature="0" /></g><g
           id="g3930"
           transform="translate(333.7783,69.5098)"><path
             d="m 0,0 v -20.419 l 2.5,0.343 V 0.299 Z"
             style="fill:none;stroke:#006eab;stroke-width:0.15000001;stroke-linecap:butt;stroke-linejoin:miter;stroke-miterlimit:4;stroke-dasharray:none;stroke-opacity:1"
             id="path3932"
             inkscape:connector-curvature="0" /></g><g
           id="g3934"
           transform="translate(93.7764,91.23)"><path
             d="M 0,0 C 0,-1.338 9.73,3.892 8.149,14.23 2.554,14.108 4.5,17.879 7.784,15.933 c -0.608,1.703 -0.608,4.379 0.973,3.527 0.73,-0.973 0.852,-2.189 0.122,-3.649 1.703,0.852 2.797,0.973 3.162,0.73 0.365,-1.216 0,-1.824 -2.797,-2.311 C 10.217,5.959 7.663,-0.973 -0.122,-3.649 v -9.974 c 3.163,-5.959 9.366,-12.892 14.839,-3.77 -3.527,-0.852 -6.081,0.243 -6.689,3.041 l -0.609,3.527 1.825,-2.432 c 3.527,-1.338 6.203,-1.825 9.243,2.675 l -2.31,0.122 -1.46,0.608 c -2.189,1.095 -3.284,3.163 -3.405,5.96 1.702,-1.703 7.054,-4.014 9.243,0.851 -2.675,0 -3.892,1.095 -4.622,4.135 v 4.014 c 1.216,-0.486 2.19,-0.365 3.041,0.486 -4.014,1.825 -4.014,4.744 -4.621,8.393 -0.73,9.487 -12.042,10.46 -11.677,1.459 L 3.892,13.744 C 3.527,10.46 4.135,7.662 0,7.662 Z m 18.609,-3.649 -1.46,0.243 c -3.526,2.433 -2.31,6.811 -3.77,7.663 -1.216,0.121 -1.703,-0.365 -1.46,-1.581 l 0.122,-1.947 1.095,-2.797 c 2.676,-3.649 5.351,-1.703 5.473,-1.581 m -4.013,-7.784 v 0 c 0.243,-0.121 1.459,-0.486 1.459,-0.486 -5.352,-0.852 -7.298,0.486 -8.879,5.594 0.122,4.622 3.041,3.528 3.162,0 0.852,-3.284 1.703,-3.77 4.258,-5.108 m -3.406,-7.298 c -0.122,-0.121 -4.135,0.608 -4.378,2.919 -0.244,2.798 0.486,5.352 -2.312,7.541 -5.108,-0.852 -1.216,-6.446 0.244,-8.148 2.797,-2.676 2.311,-2.676 6.202,-2.798 0,0 0.366,0.608 0.244,0.486 M -30.407,0.121 c 0,-1.337 -9.731,3.406 -8.149,13.744 5.594,-0.121 3.648,3.649 0.365,1.703 0.486,1.703 0.608,4.378 -0.974,3.649 -0.73,-1.095 -0.973,-2.311 -0.121,-3.771 -1.703,0.852 -2.798,0.973 -3.163,0.73 -0.365,-1.216 0,-1.824 2.798,-2.311 -0.973,-8.271 1.46,-14.838 9.244,-17.636 l 0.243,-10.095 c -3.163,-6.081 -9.365,-13.013 -14.839,-3.891 3.527,-0.852 6.082,0.242 6.69,3.04 l 0.608,3.527 -1.824,-2.433 c -3.65,-1.337 -6.203,-1.824 -9.244,2.676 l 2.189,0.122 1.581,0.608 c 2.068,1.094 3.284,3.162 3.284,5.96 -1.703,-1.703 -7.054,-4.136 -9.122,0.851 2.676,0 3.892,1.095 4.622,4.135 v 4.014 c -1.217,-0.486 -2.311,-0.365 -3.041,0.365 3.892,1.946 3.892,4.744 4.5,8.392 0.73,9.609 12.042,10.582 11.555,1.582 L -34.3,13.379 c 0.365,-3.284 -0.121,-5.96 3.893,-6.082 z m -18.488,-4.135 1.459,0.243 c 3.406,2.433 2.311,6.69 3.649,7.663 1.217,0.121 1.703,-0.365 1.46,-1.581 l -0.122,-1.946 -1.094,-2.798 c -2.554,-3.649 -5.352,-1.824 -5.352,-1.581 m 3.892,-7.783 v 0 c -0.243,-0.122 -1.338,-0.609 -1.338,-0.609 5.352,-0.73 7.176,0.609 8.758,5.717 -0.122,4.621 -2.919,3.526 -3.163,0 -0.73,-3.285 -1.581,-3.771 -4.257,-5.108 m 3.527,-7.298 c 0.122,-0.122 4.136,0.729 4.257,2.919 0.365,2.797 -0.364,5.351 2.433,7.541 5.108,-0.731 1.095,-6.447 -0.243,-8.029 -2.798,-2.796 -2.311,-2.796 -6.203,-2.918 0,0 -0.365,0.608 -0.244,0.487 m 12.528,32.109 v -48.772 l -1.094,-0.366 c -1.946,-0.972 -1.825,-2.067 0.364,-3.405 l 0.73,-0.486 c -1.094,-3.284 2.676,-3.041 1.46,0.121 l 0.729,0.365 c 2.312,0.73 2.433,2.311 0.365,3.405 l -0.608,0.488 v 48.65 c 2.433,0.73 3.649,2.189 3.893,3.77 0,0.365 -0.244,0.487 -0.487,0.365 -1.094,-0.243 -2.311,-0.608 -3.406,-0.243 -0.122,0.121 -0.365,1.094 0.243,1.702 0.609,0.609 1.095,1.46 0.852,1.704 -0.243,0.121 -0.73,0 -1.095,0 -0.122,0 -0.365,1.216 -0.243,1.946 0,0.242 0.851,0.851 0.608,1.094 -0.487,0.486 -2.189,0.243 -2.189,0 0,-0.365 0.729,-1.094 0.729,-0.973 0,0.121 0.122,-2.067 -0.121,-2.067 -0.608,0 -1.217,0.121 -1.217,0 -0.364,-0.244 0.366,-1.217 0.852,-1.825 0.122,-0.243 0.122,-1.581 0,-1.581 -1.216,-0.365 -2.311,0 -3.527,0.243 -0.487,0.122 -0.365,0.122 -0.365,-0.365 0,-2.067 1.459,-3.284 3.527,-3.77 m -1.946,3.162 v -0.121 c -0.365,0.121 -0.365,0.243 -0.243,-0.122 0.851,-3.406 5.96,-2.433 6.447,-0.243 0.121,0.729 0,0.365 -0.487,0.243 -1.703,-0.243 -3.771,-0.487 -5.717,0.243 M -3.527,12.771 V -36.001 L -4.5,-36.367 c -2.068,-0.851 -1.946,-2.067 0.243,-3.405 l 0.73,-0.486 c -1.095,-3.284 2.675,-3.041 1.459,0.121 l 0.73,0.365 c 2.311,0.852 2.433,2.311 0.365,3.527 l -0.608,0.365 v 48.651 c 2.433,0.729 3.649,2.189 3.892,3.892 0,0.243 -0.243,0.364 -0.487,0.243 -1.095,-0.243 -2.31,-0.608 -3.405,-0.243 -0.122,0.121 -0.365,1.094 0.365,1.702 0.486,0.609 0.973,1.46 0.73,1.703 -0.244,0.122 -0.73,0 -1.095,0 -0.122,0 -0.365,1.217 -0.244,1.946 0,0.244 0.852,0.851 0.609,1.095 -0.487,0.486 -2.19,0.243 -2.19,0 0,-0.365 0.73,-1.095 0.73,-0.973 0,0.122 0.122,-2.068 -0.121,-2.068 -0.609,0 -1.217,0.122 -1.217,0 -0.365,-0.243 0.365,-1.094 0.851,-1.824 0.122,-0.244 0.122,-1.46 0,-1.581 -1.216,-0.365 -2.311,0 -3.526,0.243 -0.487,0.121 -0.366,0.121 -0.366,-0.365 0,-2.067 1.46,-3.284 3.528,-3.77 m -1.947,3.162 v 0 c -0.364,0 -0.364,0.243 -0.243,-0.243 0.852,-3.406 5.961,-2.433 6.446,-0.244 0.123,0.73 0,0.365 -0.485,0.365 -1.582,-0.365 -3.771,-0.608 -5.718,0.122 m -26.028,-46.461 c -1.703,-0.244 -3.284,0.608 -4.622,1.094 -0.122,0 -0.243,0.122 -0.365,0.122 -0.486,0 -0.608,0 -0.243,-1.216 0.73,-2.068 2.676,-3.649 5.23,-4.136 z m 31.988,0.73 c 1.703,-0.244 3.163,0.607 4.501,1.093 0.121,0 0.243,0.122 0.365,0.122 0.364,0 0.486,0 0.121,-1.215 -0.729,-2.069 -2.432,-3.65 -4.987,-4.136 z m -30.772,11.553 c -1.216,-0.486 -2.432,-1.824 -3.284,-4.986 l -1.338,-0.729 c 0.365,-2.068 4.014,-0.366 4.501,1.094 z m 30.408,-0.121 c 1.216,-0.608 2.432,-1.946 3.283,-4.987 l 1.339,-0.73 c -0.366,-2.188 -4.015,-0.486 -4.5,1.095 z m -25.908,13.622 c 7.42,-0.851 14.352,-0.729 21.042,-0.121 l -0.243,-3.892 c -1.824,-1.095 -0.973,-2.676 0,-3.892 l 0.243,-8.028 c -0.364,-1.946 -1.094,-3.406 -2.189,-4.5 -2.189,2.311 -3.041,4.257 -2.554,5.839 0.365,1.093 0.487,2.431 -0.243,4.013 -1.947,-0.973 -2.433,-4.622 -0.974,-6.082 0.852,-1.581 0.487,-3.283 -0.243,-4.621 1.338,-2.677 3.163,-3.649 6.082,-4.865 v -4.743 l -2.19,-0.365 c -2.189,0.121 -3.283,0.85 -4.622,1.581 -0.972,-3.406 -0.729,-5.109 -3.283,-7.42 -2.311,1.703 -4.014,3.892 -4.014,7.176 -1.338,-1.703 -4.379,-1.946 -6.203,-1.337 l 0.121,4.865 c 2.798,0.729 4.866,2.067 5.23,5.108 -2.31,1.338 -1.581,3.405 -0.121,5.351 0.973,3.527 0.851,4.135 -1.338,5.473 l -0.73,-2.189 v -2.311 l 0.244,-1.46 -0.365,-2.553 -1.217,-1.581 -1.824,2.31 -0.365,3.65 -0.122,6.081 c 2.311,2.189 1.338,2.919 -0.122,5.472 z m 3.528,-28.704 c 0.122,0.609 3.527,1.947 4.135,6.081 0.973,-2.553 0.487,-5.959 -4.5,-7.662 z m 7.541,6.569 v 0 c 0,0.851 3.77,-6.204 0.121,-11.312 z m 8.757,-4.5 c 0.122,-0.245 -4.135,1.337 -5.96,4.134 0.852,-4.622 1.946,-4.379 5.838,-5.96 z m -3.162,23.594 c -1.703,-4.5 -3.893,-6.932 -6.325,-9.365 -3.406,3.284 -5.108,6.203 -5.96,9.122 0.365,0.365 1.581,-1.216 2.433,-1.095 0.486,0 1.095,1.217 1.581,1.338 0.73,0 1.338,-1.702 1.946,-1.459 0.73,0.244 1.703,1.338 2.189,1.459 0.609,0.122 1.095,-1.094 1.703,-1.094 0.973,0 1.46,1.094 2.433,1.094 m -9.609,-15.932 c 0,0 0.973,-0.243 3.771,-0.122 2.918,0.122 3.283,0.365 3.283,0.365 1.217,-0.852 -0.851,-2.19 -3.648,-2.433 -3.406,0.609 -3.406,2.19 -3.406,2.19 m 0.486,1.946 c 0,0 0.73,0.121 2.92,0.121 2.31,-0.121 2.554,-0.243 2.554,-0.243 0.851,0.486 -0.608,1.095 -2.919,1.216 -2.555,-0.243 -2.555,-1.094 -2.555,-1.094 m -1.094,11.433 1.946,1.459 1.825,-1.338 c -0.487,-1.337 -1.338,-2.676 -1.825,-3.162 l -0.73,0.608 c -0.73,1.217 -1.216,1.946 -1.216,2.433 m 4.257,0.243 1.946,1.46 1.824,-1.339 c -0.486,-1.338 -1.216,-2.675 -1.703,-3.162 l -0.729,0.73 c -0.852,1.094 -1.338,1.824 -1.338,2.311 m -1.946,-3.649 c 0,-0.851 1.216,-1.946 1.581,-2.189 0.487,0.364 1.46,1.095 1.946,2.433 l -1.824,1.458 z m 2.491,40.713 c -1.063,-0.01 -1.555,-0.681 -1.395,-1.011 0.49,-0.263 1.591,-0.74 2.356,-0.067 0.332,0.292 0.444,0.291 0.824,0.433 -0.451,0.069 -1.071,0.427 -1.785,0.645 m 0.428,-17.117 v 0 c -0.244,-0.974 0.973,-2.068 1.46,-2.798 0.607,0.73 1.215,1.824 1.337,2.798 -0.243,0.365 -0.851,0.851 -1.337,1.459 -0.122,0.122 -1.46,-1.216 -1.46,-1.459 m 2.919,0 v 0 C -11.434,9 -10.217,7.905 -9.73,7.297 c 0.608,0.73 0.972,1.338 1.094,2.432 -0.243,0.244 -0.851,1.095 -1.338,1.704 0,0.121 -1.216,-1.216 -1.216,-1.581 m -5.716,0 v 0 c -0.122,-0.852 0.972,-1.947 1.459,-2.555 0.609,0.608 1.094,1.581 1.217,2.676 -0.244,0.244 -0.852,0.851 -1.217,1.46 -0.121,0 -1.338,-1.216 -1.459,-1.581 m 7.541,-3.041 v 0 C -9.609,5.959 -8.393,5.352 -7.906,4.744 -7.298,5.473 -7.054,6.446 -6.689,7.176 -6.933,7.419 -7.541,8.514 -8.149,9 -8.271,9.122 -9.365,7.054 -9.365,6.811 m -3.041,-0.244 v 0 c -0.122,-0.851 0.972,-1.702 1.459,-2.31 0.608,0.608 0.852,1.338 1.217,2.31 -0.244,0.244 -0.851,1.338 -1.338,1.947 -0.122,0.121 -1.217,-1.703 -1.338,-1.947 M -13.744,3.77 v 0 c -0.243,-0.73 0.973,-1.46 1.459,-2.067 0.608,0.486 1.217,0.73 1.338,1.703 -0.243,0.242 -0.972,1.459 -1.581,2.067 -0.121,0.122 -1.216,-1.338 -1.216,-1.703 m -3.284,-0.486 v 0 c 0.243,-0.73 0.973,-1.216 1.581,-1.825 0.609,0.487 0.973,1.217 1.217,2.189 -0.365,0.244 -0.73,1.217 -1.217,1.704 -0.121,0.121 -1.581,-1.825 -1.581,-2.068 m 1.581,3.283 v 0 c -0.121,-0.729 0.973,-1.581 1.46,-2.189 0.608,0.487 1.094,1.217 1.216,2.189 -0.244,0.244 -0.852,1.217 -1.338,1.825 -0.121,0.122 -1.216,-1.581 -1.338,-1.825 m -3.284,0.122 v 0 c -0.244,-0.851 1.095,-1.703 1.581,-2.432 0.73,0.608 1.338,1.338 1.46,2.31 -0.244,0.366 -0.852,1.217 -1.338,1.825 -0.122,0.122 -1.703,-1.459 -1.703,-1.703 M -20.19,4.257 v 0 c -0.244,-0.851 0.851,-2.433 1.459,-3.041 0.73,0.487 1.095,1.581 1.338,2.676 -0.365,0.243 -0.852,0.973 -1.46,1.581 -0.122,0.122 -1.337,-0.851 -1.337,-1.216 M -8.271,3.648 v 0 c -0.243,0.852 -0.487,1.217 -1.094,1.947 -0.122,0 -1.339,-1.825 -1.339,-2.189 0.123,-0.487 0.73,-0.973 1.217,-1.703 0.365,0.243 0.851,1.459 1.216,1.945 m 2.189,0.609 c 0.366,0.365 0.974,0.972 0.73,1.459 -0.243,0.487 -0.973,1.338 -0.973,1.217 -0.121,-0.244 -0.364,-0.487 -0.729,-1.217 0,-0.121 -0.487,-0.243 0.972,-1.459 m 0.123,-0.609 v 0 c 0,0.122 -1.217,1.338 -1.217,1.338 0,0.122 -0.73,-1.216 -0.73,-1.338 -0.122,-0.242 0.608,-1.702 0.852,-1.824 0.243,0 1.216,1.703 1.095,1.824 M -22.623,3.04 v 0 c -0.243,-0.851 0.729,-1.459 1.216,-2.189 0.608,0.73 1.581,1.338 1.338,1.946 -0.487,0.851 -0.243,0.851 -1.095,1.703 -0.121,0.122 -1.337,-1.094 -1.459,-1.46 m -1.703,2.798 v 0 c -0.243,-0.852 0.608,-1.946 1.217,-2.676 0.729,0.73 0.729,0.852 1.459,1.703 -0.244,0.364 -0.608,1.581 -1.216,2.068 -0.122,0.121 -1.46,-0.73 -1.46,-1.095 m 1.946,1.703 v 0 c -0.243,-0.852 0.973,-2.189 1.46,-2.797 0.73,0.485 1.581,1.094 1.702,2.189 -0.243,0.243 -1.094,1.459 -1.702,2.067 -0.122,0.122 -1.338,-1.095 -1.46,-1.459 m 2.068,2.311 v 0 c -0.244,-0.852 0.851,-2.068 1.459,-2.676 0.608,0.486 1.582,1.824 1.703,2.676 -0.243,0.243 -0.973,0.972 -1.581,1.581 -0.122,0.121 -1.581,-1.216 -1.581,-1.581 m 0.851,1.581 v 0 c -0.243,-0.487 -0.851,-0.73 -1.216,-1.581 l -1.581,-1.217 -0.851,-1.094 -1.825,-1.459 1.459,-3.163 1.338,-1.946 0.73,-0.852 1.46,1.825 1.338,-1.46 c 0.608,0.487 0.973,1.46 1.216,2.311 l 1.946,-1.824 1.094,1.46 0.609,0.486 c 0.608,-0.973 0.608,-1.338 1.581,-1.946 l 1.338,1.46 1.338,-1.46 c 0.608,0.365 0.851,1.095 1.459,1.946 0.244,-0.73 0.487,-1.216 0.974,-1.825 0.972,1.095 1.581,2.798 2.189,4.258 l -0.122,0.972 c -0.972,1.217 -2.554,3.163 -3.527,4.136 -0.851,0.73 -0.608,1.338 -1.216,1.946 -0.365,0.243 -0.487,0 -0.851,-0.487 -0.244,-0.243 -0.487,-1.216 -0.731,-1.095 -0.365,0 -0.851,1.095 -0.973,1.095 -0.364,0.73 -0.608,0.365 -0.851,0 l -0.851,-0.973 -0.608,0.608 c -0.73,0.73 -1.095,1.703 -1.703,0.122 l -0.73,-0.973 -0.973,0.973 c -0.974,0.852 -0.852,0.73 -1.46,-0.243 m -6.083,13.782 c 0.601,1.578 1.337,2.598 3.891,2.842 l 0.854,0.08 1.46,-0.324 1.74,-0.442 c 0.95,1.215 1.929,2.146 3.89,1.781 l 1.707,-0.564 c 1.702,-0.73 3.366,-1.344 5.191,-1.222 l -1.58,-2.109 c -0.588,-0.953 -0.993,-1.845 -1.216,-2.676 -0.282,-0.704 -0.488,-1.446 -0.527,-2.271 -0.133,-2.384 -0.006,-4.257 0.951,-6.688 0.852,-2.189 2.737,-4.257 4.683,-5.717 l -0.244,-9 c -5.108,-1.581 -10.338,1.703 -10.581,1.581 -2.798,-1.824 -8.758,-1.581 -10.096,-1.459 l -0.243,8.878 c 1.556,-0.029 5.434,4.318 6.203,5.96 1.003,2.311 1.511,4.622 1.146,7.054 l -1.431,1.176 c -2.311,1.094 -2.838,1.801 -2.717,2.653 l 0.187,-0.131 c 2.923,-1.393 3.452,-0.565 2.819,0.029 -1.746,0.642 -2.546,1.537 -6.113,0.393 z"
             style="fill:#006eab;fill-opacity:1;fill-rule:evenodd;stroke:none"
             id="path3936"
             inkscape:connector-curvature="0" /></g><g
           id="g3938"
           transform="translate(99.4639,127.2905)"><path
             d="m 0,0 v 0 c -23.403,11.396 -51.854,1.568 -63.288,-21.873 -11.434,-23.479 -1.683,-51.929 21.759,-63.364 23.403,-11.395 51.854,-1.567 63.288,21.873 C 33.193,-39.884 23.441,-11.434 0,0 M 0.994,1.989 C 25.66,-10.019 35.946,-39.922 23.939,-64.587 11.931,-89.213 -17.973,-99.5 -42.638,-87.493 c -24.666,12.046 -34.991,41.95 -22.945,66.576 12.008,24.626 41.912,34.913 66.577,22.906"
             style="fill:#006eab;fill-opacity:1;fill-rule:evenodd;stroke:none"
             id="path3940"
             inkscape:connector-curvature="0" /></g></g></g></g></svg>