<?xml version="1.0" encoding="UTF-8" standalone="no"?>
<!-- Created with Inkscape (http://www.inkscape.org/) -->

<svg
   xmlns:dc="http://purl.org/dc/elements/1.1/"
   xmlns:cc="http://creativecommons.org/ns#"
   xmlns:rdf="http://www.w3.org/1999/02/22-rdf-syntax-ns#"
   xmlns:svg="http://www.w3.org/2000/svg"
   xmlns="http://www.w3.org/2000/svg"
   xmlns:sodipodi="http://sodipodi.sourceforge.net/DTD/sodipodi-0.dtd"
   xmlns:inkscape="http://www.inkscape.org/namespaces/inkscape"
   id="svg2"
   version="1.1"
   width="492"
   height="226.66667"
   xml:space="preserve"
   sodipodi:docname="Logo_KSI.svg"><metadata
     id="metadata8"><rdf:RDF><cc:Work
         rdf:about=""><dc:format>image/svg+xml</dc:format><dc:type
           rdf:resource="http://purl.org/dc/dcmitype/StillImage" /><dc:title></dc:title></cc:Work></rdf:RDF></metadata><defs
     id="defs6" /><sodipodi:namedview
     pagecolor="#ffffff"
     bordercolor="#666666"
     borderopacity="1"
     objecttolerance="10"
     gridtolerance="10"
     guidetolerance="10"
     inkscape:pageopacity="0"
     inkscape:pageshadow="2"
     inkscape:window-width="1920"
     inkscape:window-height="1022"
     id="namedview4"
     showgrid="false"
     inkscape:zoom="1.5345029"
     inkscape:cx="108.17835"
     inkscape:cy="38.75"
     inkscape:window-x="0"
     inkscape:window-y="30"
     inkscape:window-maximized="1"
     inkscape:current-layer="g14"
     showguides="false"><inkscape:grid
       type="xygrid"
       id="grid3743" /></sodipodi:namedview><g
     id="g10"
     inkscape:groupmode="layer"
     inkscape:label="Logo KSI"
     transform="matrix(1.25,0,0,-1.25,0,226.66667)"><g
       id="g12" /><g
       id="g14"><g
         id="g16"
         transform="matrix(2.3803167,0,0,-2.2303161,124.0754,130.10572)"><g
           transform="translate(0,14)"
           id="text18"><path
             d="M 7.632,0 3.664,-5.408 7.632,-10.672 H 7.12 l -5.472,7.216 v -7.216 H 1.232 V 0 H 1.648 V -2.784 L 3.392,-5.056 7.12,0 h 0.512"
             style="font-variant:normal;font-weight:200;font-size:16px;font-family:AvantGardEF;-inkscape-font-specification:AvantGardEF-ExtraLight;writing-mode:lr-tb;fill:#0093cb;fill-opacity:1;fill-rule:nonzero;stroke:none"
             id="path3014"
             inkscape:connector-curvature="0" /><path
             d="m 16.576,-3.84 c 0,-2.2399978 -1.824002,-4 -4.048,-4 -2.255998,0 -3.9999999,1.8080022 -3.9999999,4.048 0,2.1759978 1.8080019,3.984 3.9839999,3.984 2.223998,0 4.064,-1.8080022 4.064,-4.032 m -0.4,0.016 c 0,1.999998 -1.632002,3.648 -3.632,3.648 -2.015998,0 -3.6159999,-1.648002 -3.6159999,-3.648 0,-2.031998 1.6000019,-3.648 3.6319999,-3.648 2.031998,0 3.616,1.632002 3.616,3.648"
             style="font-variant:normal;font-weight:200;font-size:16px;font-family:AvantGardEF;-inkscape-font-specification:AvantGardEF-ExtraLight;writing-mode:lr-tb;fill:#0093cb;fill-opacity:1;fill-rule:nonzero;stroke:none"
             id="path3016"
             inkscape:connector-curvature="0" /></g><g
           transform="translate(17.152,14)"
           id="text22"><path
             d="m 2.592,-6.4 v -0.464 l -0.96,0.72 v -4.528 h -0.4 v 4.768 l -0.96,0.72 v 0.48 l 0.96,-0.72 V 0 h 0.4 v -5.68 l 0.96,-0.72"
             style="font-variant:normal;font-weight:200;font-size:16px;font-family:AvantGardEF;-inkscape-font-specification:AvantGardEF-ExtraLight;writing-mode:lr-tb;fill:#0093cb;fill-opacity:1;fill-rule:nonzero;stroke:none"
             id="path3019"
             inkscape:connector-curvature="0" /></g><g
           transform="translate(20.016,14)"
           id="text26"><path
             d="m 8.624,-3.84 c 0,-2.2399978 -1.8240022,-4 -4.048,-4 -2.2559977,0 -4,1.8080022 -4,4.048 0,2.1759978 1.8080022,3.984 3.984,3.984 2.2239978,0 4.064,-1.8080022 4.064,-4.032 m -0.4,0.016 c 0,1.999998 -1.632002,3.648 -3.632,3.648 -2.015998,0 -3.616,-1.648002 -3.616,-3.648 0,-2.031998 1.600002,-3.648 3.632,-3.648 2.031998,0 3.616,1.632002 3.616,3.648"
             style="font-variant:normal;font-weight:200;font-size:16px;font-family:AvantGardEF;-inkscape-font-specification:AvantGardEF-ExtraLight;writing-mode:lr-tb;fill:#0093cb;fill-opacity:1;fill-rule:nonzero;stroke:none"
             id="path3022"
             inkscape:connector-curvature="0" /><path
             d="m 19.84,-2.8 c 0,-0.9439991 -0.384001,-1.7760006 -1.152,-2.336 -0.624,-0.4479996 -1.264001,-0.5600002 -1.984,-0.736 -1.263999,-0.3039997 -2.384,-0.8000015 -2.384,-2.272 0,-1.3919986 1.072001,-2.32 2.432,-2.32 1.375998,0 2.112,0.7840013 2.352,2.096 h 0.448 c -0.208,-1.4879985 -1.216002,-2.496 -2.752,-2.496 -1.615999,0 -2.912,1.1520016 -2.912,2.8 0,0.5919994 0.176,1.1200004 0.544,1.568 0.943999,1.1519988 2.576001,0.9440007 3.76,1.632 0.783999,0.4479996 1.232,1.2160009 1.232,2.112 0,1.4719985 -1.248002,2.544 -2.688,2.544 -1.503999,0 -2.464,-1.0560014 -2.656,-2.496 h -0.448 c 0.144,1.6639983 1.408002,2.896 3.104,2.896 1.679998,0 3.104,-1.2800017 3.104,-2.992"
             style="font-variant:normal;font-weight:200;font-size:16px;font-family:AvantGardEF;-inkscape-font-specification:AvantGardEF-ExtraLight;writing-mode:lr-tb;fill:#0093cb;fill-opacity:1;fill-rule:nonzero;stroke:none"
             id="path3024"
             inkscape:connector-curvature="0" /><path
             d="m 24.304,-7.28 v -0.368 h -1.968 v -3.024 h -0.4 v 3.024 h -1.68 v 0.368 h 1.68 V 0 h 0.4 v -7.28 h 1.968"
             style="font-variant:normal;font-weight:200;font-size:16px;font-family:AvantGardEF;-inkscape-font-specification:AvantGardEF-ExtraLight;writing-mode:lr-tb;fill:#0093cb;fill-opacity:1;fill-rule:nonzero;stroke:none"
             id="path3026"
             inkscape:connector-curvature="0" /><path
             d="m 32.447999,0 v -7.648 h -0.4 v 3.888 c 0,0.975999 0.016,1.6480008 -0.608,2.432 -0.607999,0.76799923 -1.584001,1.152 -2.544,1.152 -0.863999,0 -1.696,-0.30400064 -2.304,-0.944 -0.703999,-0.7359993 -0.768,-1.504001 -0.768,-2.496 v -4.032 h -0.4 v 4.032 c 0,1.0719989 0.064,1.9520008 0.832,2.768 0.656,0.7039993 1.712001,1.04 2.656,1.04 0.783999,0 1.584001,-0.22400046 2.224,-0.688 0.416,-0.3039997 0.624001,-0.5760004 0.912,-1.008 V 0 h 0.4"
             style="font-variant:normal;font-weight:200;font-size:16px;font-family:AvantGardEF;-inkscape-font-specification:AvantGardEF-ExtraLight;writing-mode:lr-tb;fill:#0093cb;fill-opacity:1;fill-rule:nonzero;stroke:none"
             id="path3028"
             inkscape:connector-curvature="0" /><path
             d="m 42.432001,0 v -10.672 h -0.4 v 5.04 c -0.719999,-1.4079986 -2.144002,-2.208 -3.712,-2.208 -2.303998,0 -4.176,1.6480024 -4.176,4 0,2.3039977 1.888002,4.032 4.16,4.032 1.071999,0 2.128001,-0.40000074 2.912,-1.136 0.399999,-0.3679996 0.576,-0.6560005 0.816,-1.136 V 0 h 0.4 m -0.4,-3.84 c 0,2.0639979 -1.712002,3.664 -3.76,3.664 -2.031998,0 -3.728,-1.632002 -3.728,-3.68 0,-2.0639979 1.696002,-3.616 3.728,-3.616 2.047998,0 3.76,1.5360021 3.76,3.632"
             style="font-variant:normal;font-weight:200;font-size:16px;font-family:AvantGardEF;-inkscape-font-specification:AvantGardEF-ExtraLight;writing-mode:lr-tb;fill:#0093cb;fill-opacity:1;fill-rule:nonzero;stroke:none"
             id="path3030"
             inkscape:connector-curvature="0" /><path
             d="m 51.887998,-3.776 v -0.208 c 0,-2.0799979 -1.824002,-3.856 -3.888,-3.856 -2.175998,0 -3.872,1.8080021 -3.872,3.952 0,2.1279979 1.728002,4.08 3.904,4.08 1.551999,0 2.896001,-0.96000142 3.488,-2.384 h -0.464 c -0.559999,1.1679988 -1.696001,2.016 -3.024,2.016 -2.031998,0 -3.344,-1.6800019 -3.456,-3.6 h 7.312 m -0.448,-0.368 h -6.864 c 0.192,-1.8079982 1.520002,-3.328 3.424,-3.328 1.839998,0 3.296,1.5360018 3.44,3.328"
             style="font-variant:normal;font-weight:200;font-size:16px;font-family:AvantGardEF;-inkscape-font-specification:AvantGardEF-ExtraLight;writing-mode:lr-tb;fill:#0093cb;fill-opacity:1;fill-rule:nonzero;stroke:none"
             id="path3032"
             inkscape:connector-curvature="0" /><path
             d="m 60.608001,0 v -4.224 c 0,-0.959999 -0.160001,-1.8240007 -0.864,-2.528 -0.672,-0.6719993 -1.728001,-1.088 -2.688,-1.088 -1.151999,0 -2.560001,0.5440011 -3.072,1.648 v -1.456 h -0.4 V 0 h 0.4 v -4.4 c 0,-0.9279991 0.128,-1.5520007 0.816,-2.208 0.607999,-0.5759994 1.408001,-0.864 2.24,-0.864 1.935998,0 3.152,1.3440019 3.152,3.248 V 0 h 0.416"
             style="font-variant:normal;font-weight:200;font-size:16px;font-family:AvantGardEF;-inkscape-font-specification:AvantGardEF-ExtraLight;writing-mode:lr-tb;fill:#0093cb;fill-opacity:1;fill-rule:nonzero;stroke:none"
             id="path3034"
             inkscape:connector-curvature="0" /><path
             d="m 65.472001,-7.28 v -0.368 h -1.968 v -3.024 h -0.4 v 3.024 h -1.68 v 0.368 h 1.68 V 0 h 0.4 v -7.28 h 1.968"
             style="font-variant:normal;font-weight:200;font-size:16px;font-family:AvantGardEF;-inkscape-font-specification:AvantGardEF-ExtraLight;writing-mode:lr-tb;fill:#0093cb;fill-opacity:1;fill-rule:nonzero;stroke:none"
             id="path3036"
             inkscape:connector-curvature="0" /><path
             d="m 71.471997,-10.72 -0.24,-0.288 -2.656,2.176 0.224,0.288 2.672,-2.176 m 2.672,6.88 c 0,-2.2399978 -1.824003,-4 -4.048,-4 -2.255998,0 -4,1.8080022 -4,4.048 0,2.1759978 1.808002,3.984 3.984,3.984 2.223997,0 4.064,-1.8080022 4.064,-4.032 m -0.4,0.016 c 0,1.999998 -1.632002,3.648 -3.632,3.648 -2.015998,0 -3.616,-1.648002 -3.616,-3.648 0,-2.031998 1.600002,-3.648 3.632,-3.648 2.031998,0 3.616,1.632002 3.616,3.648"
             style="font-variant:normal;font-weight:200;font-size:16px;font-family:AvantGardEF;-inkscape-font-specification:AvantGardEF-ExtraLight;writing-mode:lr-tb;fill:#0093cb;fill-opacity:1;fill-rule:nonzero;stroke:none"
             id="path3038"
             inkscape:connector-curvature="0" /><path
             d="m 85.552001,-7.648 h -0.448 l -2.576,7.04 -2.144,-6 h -0.304 l -2.128,6 -2.608,-7.04 h -0.448 l 2.816,7.648 h 0.464 l 2.048,-5.792 2.048,5.792 h 0.464 l 2.816,-7.648"
             style="font-variant:normal;font-weight:200;font-size:16px;font-family:AvantGardEF;-inkscape-font-specification:AvantGardEF-ExtraLight;writing-mode:lr-tb;fill:#0093cb;fill-opacity:1;fill-rule:nonzero;stroke:none"
             id="path3040"
             inkscape:connector-curvature="0" /></g></g><g
         id="g30"
         transform="matrix(2.3803167,0,0,-2.2303161,124.0754,130.10572)"><g
           transform="translate(0,32)"
           id="text32"><path
             d="M 1.648,0 V -10.672 H 1.232 V 0 h 0.416"
             style="font-variant:normal;font-weight:200;font-size:16px;font-family:AvantGardEF;-inkscape-font-specification:AvantGardEF-ExtraLight;writing-mode:lr-tb;fill:#0093cb;fill-opacity:1;fill-rule:nonzero;stroke:none"
             id="path3043"
             inkscape:connector-curvature="0" /><path
             d="m 11.024,0 v -4.224 c 0,-0.959999 -0.160001,-1.8240007 -0.864,-2.528 C 9.4880008,-7.4239993 8.4319992,-7.84 7.4720001,-7.84 c -1.1519988,0 -2.5600005,0.5440011 -3.072,1.648 v -1.456 h -0.4 V 0 h 0.4 v -4.4 c 0,-0.9279991 0.1280007,-1.5520007 0.816,-2.208 0.6079994,-0.5759994 1.4080008,-0.864 2.24,-0.864 1.9359981,0 3.1519999,1.3440019 3.1519999,3.248 V 0 h 0.416"
             style="font-variant:normal;font-weight:200;font-size:16px;font-family:AvantGardEF;-inkscape-font-specification:AvantGardEF-ExtraLight;writing-mode:lr-tb;fill:#0093cb;fill-opacity:1;fill-rule:nonzero;stroke:none"
             id="path3045"
             inkscape:connector-curvature="0" /><path
             d="M 15.904,-7.28 V -7.648 H 13.92 v -0.496 c 0,-1.3119987 0.704001,-1.92 1.984,-2.016 v -0.448 c -0.528,0.032 -1.008001,0.144 -1.456,0.432 -0.767999,0.4959995 -0.928,1.1680009 -0.928,2.032 v 0.496 H 12.256 V -7.28 H 13.52 V 0 h 0.4 v -7.28 h 1.984"
             style="font-variant:normal;font-weight:200;font-size:16px;font-family:AvantGardEF;-inkscape-font-specification:AvantGardEF-ExtraLight;writing-mode:lr-tb;fill:#0093cb;fill-opacity:1;fill-rule:nonzero;stroke:none"
             id="path3047"
             inkscape:connector-curvature="0" /><path
             d="m 24.752,-3.84 c 0,-2.2399978 -1.824002,-4 -4.048,-4 -2.255997,0 -4,1.8080022 -4,4.048 0,2.1759978 1.808002,3.984 3.984,3.984 2.223998,0 4.064,-1.8080022 4.064,-4.032 m -0.4,0.016 c 0,1.999998 -1.632002,3.648 -3.632,3.648 -2.015998,0 -3.616,-1.648002 -3.616,-3.648 0,-2.031998 1.600002,-3.648 3.632,-3.648 2.031998,0 3.616,1.632002 3.616,3.648"
             style="font-variant:normal;font-weight:200;font-size:16px;font-family:AvantGardEF;-inkscape-font-specification:AvantGardEF-ExtraLight;writing-mode:lr-tb;fill:#0093cb;fill-opacity:1;fill-rule:nonzero;stroke:none"
             id="path3049"
             inkscape:connector-curvature="0" /><path
             d="M 29.551999,-7.408 V -7.84 c -1.215999,0.08 -2.128,0.4480011 -2.704,1.568 v -1.376 h -0.4 V 0 h 0.4 v -4.144 c 0,-1.1359989 0.048,-2.0160007 1.024,-2.72 0.496,-0.3679996 1.072001,-0.496 1.68,-0.544"
             style="font-variant:normal;font-weight:200;font-size:16px;font-family:AvantGardEF;-inkscape-font-specification:AvantGardEF-ExtraLight;writing-mode:lr-tb;fill:#0093cb;fill-opacity:1;fill-rule:nonzero;stroke:none"
             id="path3051"
             inkscape:connector-curvature="0" /><path
             d="m 42.352,0 v -4.288 c 0,-0.9279991 -0.032,-1.6480008 -0.624,-2.4 -0.575999,-0.7359993 -1.456001,-1.152 -2.384,-1.152 -0.815999,0 -1.632,0.3360006 -2.176,0.928 -0.287999,0.3039997 -0.416,0.5760004 -0.576,0.96 -0.24,-0.5759994 -0.496,-0.9440004 -1.008,-1.312 -0.527999,-0.3679996 -1.168,-0.576 -1.808,-0.576 -1.087999,0 -1.888,0.4960009 -2.448,1.408 V -7.648 H 30.88 V 0 h 0.4 v -4.368 c 0,-0.8319992 0.064,-1.5840007 0.624,-2.24 0.48,-0.5439995 1.200001,-0.864 1.92,-0.864 0.783999,0 1.504001,0.3840006 1.984,0.992 0.528,0.6719993 0.608,1.4400008 0.608,2.272 V 0 h 0.4 v -4.288 c 0,-0.8639991 10e-7,-1.6160007 0.592,-2.304 0.48,-0.5599994 1.200001,-0.88 1.936,-0.88 0.704,0 1.360001,0.3040005 1.856,0.8 0.656,0.6719993 0.736,1.4880009 0.736,2.384 V 0 h 0.416"
             style="font-variant:normal;font-weight:200;font-size:16px;font-family:AvantGardEF;-inkscape-font-specification:AvantGardEF-ExtraLight;writing-mode:lr-tb;fill:#0093cb;fill-opacity:1;fill-rule:nonzero;stroke:none"
             id="path3053"
             inkscape:connector-curvature="0" /><path
             d="m 52.224001,0 v -7.648 h -0.4 v 2.016 c -0.288,-0.5279995 -0.512001,-0.8480004 -0.976,-1.232 -0.751999,-0.6239994 -1.760001,-0.976 -2.736,-0.976 -2.255998,0 -4.128,1.7600023 -4.128,4.032 0,2.3199977 1.904002,4 4.176,4 1.615998,0 2.912001,-0.76800144 3.664,-2.208 V 0 h 0.4 m -0.4,-3.792 c 0,2.0639979 -1.648002,3.616 -3.68,3.616 -2.047998,0 -3.76,-1.5520021 -3.76,-3.632 0,-2.0799979 1.664002,-3.664 3.728,-3.664 2.031998,0 3.712,1.632002 3.712,3.68"
             style="font-variant:normal;font-weight:200;font-size:16px;font-family:AvantGardEF;-inkscape-font-specification:AvantGardEF-ExtraLight;writing-mode:lr-tb;fill:#0093cb;fill-opacity:1;fill-rule:nonzero;stroke:none"
             id="path3055"
             inkscape:connector-curvature="0" /><path
             d="m 57.152002,-7.28 v -0.368 h -1.968 v -3.024 h -0.4 v 3.024 h -1.68 v 0.368 h 1.68 V 0 h 0.4 v -7.28 h 1.968"
             style="font-variant:normal;font-weight:200;font-size:16px;font-family:AvantGardEF;-inkscape-font-specification:AvantGardEF-ExtraLight;writing-mode:lr-tb;fill:#0093cb;fill-opacity:1;fill-rule:nonzero;stroke:none"
             id="path3057"
             inkscape:connector-curvature="0" /><path
             d="m 63.984001,-7.648 h -0.48 l -3.008,7.088 -2.832,-7.088 h -0.448 l 3.04,7.632 -1.36,3.088 h 0.464 l 4.624,-10.72"
             style="font-variant:normal;font-weight:200;font-size:16px;font-family:AvantGardEF;-inkscape-font-specification:AvantGardEF-ExtraLight;writing-mode:lr-tb;fill:#0093cb;fill-opacity:1;fill-rule:nonzero;stroke:none"
             id="path3059"
             inkscape:connector-curvature="0" /><path
             d="m 70.496,0 -3.072,-3.904 2.816,-3.744 h -0.528 l -4.192,5.552 v -8.576 h -0.4 V 0 h 0.4 v -1.408 l 1.648,-2.176 2.8,3.584 h 0.528"
             style="font-variant:normal;font-weight:200;font-size:16px;font-family:AvantGardEF;-inkscape-font-specification:AvantGardEF-ExtraLight;writing-mode:lr-tb;fill:#0093cb;fill-opacity:1;fill-rule:nonzero;stroke:none"
             id="path3061"
             inkscape:connector-curvature="0" /><path
             d="m 72.287998,-9.36 v -1.312 h -0.4 v 1.312 h 0.4 m 0,9.36 v -7.648 h -0.4 V 0 h 0.4"
             style="font-variant:normal;font-weight:200;font-size:16px;font-family:AvantGardEF;-inkscape-font-specification:AvantGardEF-ExtraLight;writing-mode:lr-tb;fill:#0093cb;fill-opacity:1;fill-rule:nonzero;stroke:none"
             id="path3063"
             inkscape:connector-curvature="0" /></g></g><path
         d="m 65.058637,44.135487 c -0.389158,0.393428 -0.70755,0.935149 -0.70755,1.203813 0,0.793747 0.624263,1.843245 1.197896,2.013841 1.093136,0.325069 0.472992,0.640592 -1.411291,0.718051 -1.581982,0.06503 -1.962499,0.168144 -2.040835,0.553029 -0.08434,0.414482 0.156601,0.473117 1.944552,0.473117 h 2.040836 v 0.983213 c 0,0.829878 -0.296516,1.293627 -1.901349,2.973747 -1.045745,1.094795 -2.025365,1.990535 -2.176944,1.990535 -0.640471,0 -4.626169,-2.788341 -4.880029,-3.414012 -0.423411,-1.043454 -0.360262,-1.14016 0.951793,-1.457802 0.674415,-0.163259 1.453445,-0.358635 1.731133,-0.434153 0.277711,-0.07552 0.504913,-0.372396 0.504913,-0.65975 0,-0.63303 -0.515482,-0.65714 -2.427876,-0.113545 -0.779934,0.221693 -1.476368,0.34842 -1.547634,0.281644 -0.07129,-0.06678 0.14489,-0.44836 0.480348,-0.847966 0.770222,-0.917463 0.773912,-1.737081 0.0119,-2.644731 -0.461258,-0.549439 -0.852296,-0.712318 -1.710186,-0.712318 -0.85789,0 -1.248952,0.162879 -1.71021,0.712318 -0.328888,0.391777 -0.597983,0.983636 -0.597983,1.31524 0,0.815939 1.061383,2.02758 1.776121,2.02758 1.117773,0 0.336434,0.654263 -1.21877,1.020548 -1.81254,0.426927 -2.071352,0.596543 -1.72085,1.127916 0.213347,0.32344 0.498272,0.334123 1.74113,0.06533 2.082992,-0.450524 2.213719,-0.423247 2.411451,0.503092 0.13744,0.643848 -0.108185,1.354739 -1.120914,3.244107 -0.71331,1.330762 -1.392676,2.41958 -1.509692,2.41958 -0.117041,0 -1.387106,-0.366574 -2.822389,-0.814601 -2.121815,-0.662337 -2.703802,-0.964009 -3.113479,-1.613834 L 46.72884,54.25022 48.326865,53.405198 c 1.509597,-0.798297 1.946409,-1.370796 1.321815,-1.732487 -0.151913,-0.08798 -0.9845,0.214579 -1.850149,0.67235 -0.907401,0.479831 -1.647727,0.72046 -1.748176,0.568196 -0.09581,-0.145282 -0.04225,-0.340547 0.119016,-0.43393 0.486346,-0.281644 0.329887,-1.927997 -0.246649,-2.595085 -0.382065,-0.442137 -0.841681,-0.624711 -1.572509,-0.624711 -1.842294,0 -2.910508,1.561155 -2.08799,3.051474 0.462805,0.838576 0.969075,1.11179 2.060045,1.11179 1.074475,0 0.836015,0.384217 -0.736017,1.185904 -1.623162,0.827782 -1.813088,1.024496 -1.567654,1.623804 0.147985,0.361356 0.432457,0.293777 1.888663,-0.448695 1.674434,-0.853743 1.72423,-0.861906 2.134883,-0.349379 0.536856,0.670054 0.510459,1.656188 -0.115493,4.313654 l -0.502866,2.134993 -2.534514,-0.05712 c -2.855238,-0.06434 -3.22752,-0.147424 -4.150725,-0.926384 l -0.655278,-0.552896 1.351662,-1.2858 c 1.168522,-1.111611 1.299748,-1.344433 0.968503,-1.718391 -0.34167,-0.385756 -0.527383,-0.299442 -1.716112,0.797628 -0.733138,0.676611 -1.409244,1.230198 -1.502457,1.230198 -0.09324,0 -0.155934,-0.485339 -0.139319,-1.078514 0.03804,-1.35978 -0.817282,-2.255697 -2.153449,-2.255697 -1.102444,0 -2.278558,1.107173 -2.278558,2.145028 0,1.002394 1.256403,2.050643 2.3886,1.992855 0.511173,-0.02609 1.054361,-0.0351 1.207107,-0.02007 0.15272,0.01516 -0.355406,0.629617 -1.129176,1.365689 -1.216936,1.157668 -1.355114,1.396691 -1.023678,1.770871 0.341432,0.385488 0.535214,0.292216 1.780476,-0.857043 l 1.397365,-1.289592 0.697362,0.667667 c 0.63226,0.605375 0.70612,0.931916 0.791265,3.498787 l 0.09393,2.831074 -2.900131,0.521961 c -2.782566,0.500817 -2.931741,0.502557 -3.680254,0.04303 l -0.78015,-0.478961 0.90314,-1.479034 c 0.805285,-1.318786 0.855938,-1.523261 0.467637,-1.887093 -0.3883,-0.363832 -0.540189,-0.244041 -1.401721,1.10559 -1.062787,1.664864 -1.408481,1.867488 -1.408481,0.825507 0,-0.962337 -1.205987,-2.015269 -2.308193,-2.015269 -2.017033,0 -3.031119,2.320956 -1.599978,3.661889 0.725736,0.680001 2.267443,0.912289 2.609828,0.393227 0.09807,-0.148695 0.374923,-0.270337 0.61524,-0.270337 0.332792,0 0.219179,0.356628 -0.476801,1.496387 -0.847013,1.387122 -0.971669,2.288393 -0.316511,2.288393 0.150055,0 0.689007,-0.638696 1.197656,-1.419306 0.50865,-0.780611 0.965219,-1.461549 1.01461,-1.513202 0.04937,-0.05165 0.466424,0.114548 0.926753,0.369339 0.673487,0.372775 0.995044,0.919225 1.645966,2.79733 0.444928,1.283748 0.867506,2.479643 0.939082,2.657555 0.07689,0.191183 -0.939725,0.826912 -2.485789,1.554464 -2.863854,1.347668 -2.849501,1.344055 -3.884986,0.975183 -0.716118,-0.255104 -0.716952,-0.259698 -0.310727,-1.689642 0.515315,-1.813872 0.512792,-2.016385 -0.02738,-2.210601 -0.487775,-0.17537 -0.791028,0.340525 -1.290846,2.196059 -0.29873,1.108957 -0.864317,1.587405 -0.864317,0.731164 0,-0.695568 -1.344403,-1.74569 -2.22293,-1.736346 -0.922754,0.0098 -1.575079,0.40855 -2.057784,1.257765 -0.518885,0.912846 -0.407296,1.411522 0.507721,2.268878 0.995544,0.932808 1.959335,1.006363 3.012791,0.229924 0.708882,-0.522475 0.760011,-0.527024 0.757083,-0.06758 -0.0017,0.270983 -0.196685,1.090624 -0.433288,1.82141 -0.480158,1.483049 -0.49025,1.423521 0.263049,1.551765 0.445833,0.07592 0.633997,-0.192388 1.009825,-1.440027 0.558398,-1.853638 0.621692,-1.920458 1.601073,-1.690133 0.549163,0.129158 1.234504,0.821113 2.355871,2.378654 l 1.581411,2.196505 -2.105438,1.819335 c -1.655582,1.430593 -2.298625,1.820496 -3.009506,1.8248 -1.02287,0.0063 -1.249262,-0.419254 -1.255927,-2.360009 -0.0033,-0.967488 -0.09507,-1.148947 -0.580987,-1.148947 -0.517862,0 -0.577036,0.180232 -0.577036,1.757222 0,0.966463 -0.07115,1.757199 -0.158102,1.757199 -0.08697,0 -0.444024,-0.311397 -0.793454,-0.692022 -1.322263,-1.440229 -3.953346,-0.529859 -3.953346,1.36794 0,1.85743 2.773878,2.797664 3.987768,1.351705 0.312059,-0.371727 0.64609,-0.675853 0.742254,-0.675853 0.09619,0 0.174883,0.790737 0.174883,1.7572 0,1.694148 0.02588,1.757221 0.721306,1.757221 0.694053,0 0.721308,-0.06517 0.721308,-1.725685 0,-1.666759 0.02711,-1.730725 0.793431,-1.872617 0.922158,-0.170731 1.326693,0.05515 3.671495,2.050039 l 1.723945,1.466701 -1.562273,2.229692 c -1.474987,2.105105 -2.504165,2.916562 -3.32485,2.621468 -0.181452,-0.06524 -0.50439,-0.800103 -0.717642,-1.633082 -0.279354,-1.091071 -0.522741,-1.514451 -0.870625,-1.514451 -0.803976,0 -0.8363,0.239402 -0.278925,2.065629 0.294587,0.965192 0.444952,1.713266 0.334125,1.662365 -0.110804,-0.05084 -0.684913,-0.323216 -1.275803,-0.605195 -1.256426,-0.599621 -2.185344,-0.355713 -2.981537,0.78286 -0.878622,1.256431 0.228963,3.123201 1.85303,3.123201 1.012301,0 2.347087,-0.93363 2.347087,-1.64166 0,-0.28658 0.124848,-0.52107 0.277426,-0.52107 0.251789,0 0.478657,0.60671 1.036223,2.771 0.20585,0.79897 0.338934,0.86735 0.965148,0.49585 0.344098,-0.20416 0.338147,-0.48202 -0.04054,-1.89059 -0.474778,-1.766061 -0.479991,-1.751356 0.715666,-2.019062 0.60403,-0.13525 1.407886,0.113876 3.415089,1.058442 1.551871,0.73027 2.571932,1.36756 2.495,1.55879 -0.07156,0.17791 -0.503152,1.39979 -0.959125,2.71527 -0.66706,1.9245 -0.981928,2.46586 -1.611641,2.77099 -0.430456,0.20856 -0.841609,0.37922 -0.913684,0.37922 -0.07207,0 -0.535786,-0.67197 -1.030463,-1.49323 -0.788981,-1.30991 -0.968099,-1.45879 -1.458944,-1.21265 -0.536047,0.2688 -0.518029,0.34518 0.428933,1.81813 0.543688,0.84565 0.932299,1.59019 0.863627,1.65453 -0.06867,0.0644 -0.508984,-0.032 -0.978429,-0.21426 -2.307979,-0.89574 -4.251103,1.73528 -2.496096,3.37971 0.93694,0.87789 2.263062,0.87789 3.200003,0 0.38949,-0.36494 0.708191,-0.97322 0.708191,-1.35171 0,-1.04057 0.401298,-0.83282 1.265663,0.65525 0.899616,1.54873 1.061858,1.68302 1.633349,1.35195 0.349406,-0.20245 0.260359,-0.51318 -0.536214,-1.8711 l -0.955197,-1.62836 0.955197,-0.42106 c 0.878408,-0.38718 1.175163,-0.3784 3.69011,0.10945 2.787874,0.54075 3.179841,0.53248 3.179841,-0.0672 0,-0.2151 -0.998994,-0.51628 -2.719368,-0.81989 -1.495649,-0.26394 -2.781687,-0.53828 -2.857832,-0.60964 -0.07617,-0.0713 0.251527,-1.21936 0.72821,-2.55112 0.68246,-1.90659 0.794025,-2.50342 0.524811,-2.80735 -0.188021,-0.2123 -0.260548,-0.50928 -0.161146,-0.65999 0.100806,-0.15282 -0.973312,-0.81705 -2.428972,-1.502071 l -2.609707,-1.22808 0.76532,-1.14558 c 0.420911,-0.630086 1.136291,-1.65505 1.589742,-2.277732 0.497819,-0.683636 0.707668,-1.199732 0.529692,-1.302795 -0.1621,-0.09387 -0.204779,-0.307047 -0.09486,-0.473696 0.116683,-0.176909 -0.691815,-1.067719 -1.942839,-2.140569 l -2.142687,-1.837538 2.09325,-1.784343 c 1.151288,-0.981361 2.025554,-1.886936 1.942814,-2.012347 -0.08271,-0.125433 -0.01928,-0.303969 0.140915,-0.396751 0.168598,-0.09764 -0.29416,-0.988186 -1.09835,-2.113827 -0.764343,-1.069815 -1.482817,-2.093508 -1.596621,-2.274877 -0.13989,-0.222921 0.641734,-0.729091 2.413071,-1.562649 1.461586,-0.687785 2.54006,-1.354047 2.43923,-1.506891 -0.0994,-0.150702 -0.0269,-0.447692 0.161146,-0.659995 0.269238,-0.303948 0.156483,-0.903992 -0.530525,-2.823335 -0.479824,-1.340554 -0.78479,-2.482721 -0.6777,-2.538189 0.107091,-0.05547 1.406101,-0.317307 2.886682,-0.581844 2.359918,-0.421642 2.674643,-0.543016 2.55158,-0.983904 -0.09147,-0.327746 0.01262,-0.502959 0.298969,-0.502959 0.372162,0 0.421434,-0.417627 0.322223,-2.731825 l -0.117112,-2.731825 2.968779,0.189598 c 2.610636,0.16674 2.968779,0.137544 2.968779,-0.241921 0,-0.237351 0.181737,-0.431522 0.403821,-0.431522 0.269904,0 0.563587,-0.69481 0.885549,-2.095159 0.628999,-2.735705 0.727901,-3.041326 0.984142,-3.041326 0.11823,0 1.349306,0.359259 2.735746,0.798387 2.03417,0.64427 2.550533,0.725834 2.674714,0.422577 0.08467,-0.206684 0.330983,-0.312133 0.547401,-0.234339 0.267453,0.09617 0.815163,-0.645208 1.710139,-2.314934 l 1.316648,-2.456426 2.496453,1.554441 c 1.536756,0.956872 2.541036,1.430369 2.612469,1.231692 0.06382,-0.177511 0.28509,-0.261951 0.491725,-0.187659 0.212801,0.07653 1.209511,-0.721217 2.298982,-1.839988 l 1.923296,-1.975079 1.960287,2.004854 c 1.326407,1.356589 2.080134,1.935446 2.330996,1.790185 0.217513,-0.125968 0.468327,-0.06671 0.606909,0.143387 0.179595,0.2723 0.827827,-0.01093 2.705825,-1.181866 l 2.469651,-1.539967 1.316672,2.456426 c 0.941344,1.75624 1.435616,2.413648 1.734013,2.30637 0.255289,-0.0918 0.417364,0.01539 0.417364,0.275867 0,0.234295 0.16229,0.369965 0.360642,0.301517 2.169587,-0.748628 5.190828,-1.580403 5.315676,-1.463423 0.08678,0.0813 0.337696,0.975854 0.557613,1.987882 0.640948,2.949771 0.680413,3.056581 1.128913,3.056581 0.235009,0 0.427266,0.194171 0.427266,0.431522 0,0.379377 0.357429,0.408683 2.957378,0.242413 l 2.957353,-0.189109 -0.09916,2.731334 c -0.0831,2.288996 -0.02907,2.731335 0.333648,2.731335 0.279926,0 0.383232,0.177667 0.292447,0.502936 -0.123063,0.440911 0.191662,0.562285 2.55158,0.983927 1.480581,0.264537 2.779591,0.526354 2.886682,0.581844 0.10709,0.05547 -0.197876,1.197635 -0.677701,2.538189 -0.687007,1.919343 -0.799762,2.519387 -0.530548,2.823335 0.188045,0.212303 0.260573,0.509293 0.161171,0.659995 -0.10083,0.152844 0.977644,0.819106 2.439233,1.506891 1.77134,0.833558 2.55294,1.339728 2.41305,1.562649 -0.11381,0.181369 -0.81541,1.181644 -1.55914,2.222866 -1.02672,1.437417 -1.29893,2.028071 -1.13086,2.453794 0.12175,0.308386 1.11025,1.313032 2.1967,2.232546 l 1.97533,1.671868 -1.01604,0.875645 c -0.5588,0.481614 -1.51164,1.276811 -2.11741,1.767079 -0.65597,0.530926 -1.03777,1.046754 -0.94411,1.275473 0.0865,0.211211 0.0387,0.452687 -0.10616,0.536592 -0.14489,0.0839 0.445,1.181488 1.31084,2.439074 l 1.57425,2.28652 -2.60733,1.226965 c -1.434023,0.674824 -2.582002,1.375524 -2.551058,1.557114 0.03092,0.18159 -0.03159,0.51505 -0.138915,0.74105 -0.107353,0.226 0.131846,1.31175 0.531549,2.41284 1.082024,2.98082 1.155884,2.85561 -2.014272,3.41506 -1.735585,0.30629 -2.740983,0.60843 -2.740983,0.8237 0,0.59967 0.391967,0.60794 3.179842,0.0672 2.508117,-0.48649 2.813557,-0.49582 3.683587,-0.11234 l 0.94868,0.41814 -0.94868,1.62481 c -0.79336,1.35877 -0.88009,1.66562 -0.52969,1.87402 0.57025,0.33912 0.73235,0.20559 1.63335,-1.34551 0.86437,-1.48807 1.26566,-1.69581 1.26566,-0.65524 0,0.96234 1.20599,2.01527 2.3082,2.01527 1.15033,0 2.30817,-1.05313 2.30817,-2.09946 0,-1.42829 -1.86843,-2.61023 -3.12791,-1.97865 -1.14712,0.57525 -1.20958,0.27112 -0.27354,-1.33203 0.7936,-1.3592 0.88038,-1.66616 0.53,-1.87454 -0.55317,-0.32897 -0.77886,-0.17051 -1.44935,1.01758 -1.00488,1.78062 -0.98802,1.76907 -1.9198,1.31758 -0.69267,-0.33561 -0.97679,-0.81304 -1.66427,-2.79648 -0.455976,-1.31548 -0.887575,-2.53737 -0.959152,-2.71527 -0.07691,-0.19123 0.943152,-0.82853 2.495032,-1.5588 2.0072,-0.944556 2.81106,-1.193682 3.41508,-1.058441 1.19566,0.267707 1.19045,0.25301 0.71567,2.019061 -0.37869,1.40858 -0.38466,1.68644 -0.0405,1.8906 0.62619,0.3715 0.7593,0.30312 0.96512,-0.49585 0.55757,-2.1643 0.78446,-2.77101 1.03625,-2.77101 0.15258,0 0.2774,0.22212 0.2774,0.49357 0,0.71993 1.21097,1.66917 2.12936,1.66917 2.4176,0 3.24563,-2.681954 1.21328,-3.929706 -0.81077,-0.497762 -2.20908,-0.348174 -2.78098,0.29748 -0.70147,0.791966 -0.79493,0.340588 -0.27931,-1.348896 0.55198,-1.808473 0.51875,-2.047742 -0.28434,-2.047742 -0.34732,0 -0.59065,0.420972 -0.86679,1.499464 -0.21117,0.824704 -0.47824,1.554084 -0.59349,1.620837 -0.11528,0.06675 -0.58627,0.05079 -1.04665,-0.03548 -0.66894,-0.125366 -1.14963,-0.623485 -2.3935,-2.480424 l -1.55647,-2.323544 1.71471,-1.458938 c 2.33478,-1.986521 2.7407,-2.212897 3.66223,-2.042278 0.76632,0.141892 0.79343,0.205857 0.79343,1.872617 0,1.660515 0.0272,1.725685 0.72131,1.725685 0.69542,0 0.72131,-0.06307 0.72131,-1.757222 0,-0.966462 0.0787,-1.757199 0.17488,-1.757199 0.0962,0 0.43017,0.304126 0.74223,0.675853 0.81417,0.969786 2.56082,0.951007 3.38981,-0.03646 0.80588,-0.95995 0.76149,-2.023253 -0.11673,-2.796325 -0.97217,-0.855751 -2.39474,-0.806036 -3.23864,0.113188 -0.34945,0.380626 -0.7065,0.692022 -0.79345,0.692022 -0.0869,0 -0.1581,-0.790736 -0.1581,-1.757199 0,-1.535996 -0.0679,-1.757221 -0.53929,-1.757221 -0.55049,0 -0.8928,1.05378 -0.90014,2.770989 -0.003,0.659036 -0.10963,0.742829 -0.94089,0.737967 -0.75251,-0.0045 -1.35349,-0.364768 -3.04314,-1.8248 l -2.10543,-1.819336 1.58141,-2.196504 c 1.09954,-1.527209 1.81106,-2.250522 2.33509,-2.37377 1.03855,-0.24422 1.15635,-0.124942 1.56455,1.584194 0.26855,1.124391 0.48516,1.499196 0.86635,1.499196 0.79654,0 0.85522,-0.212036 0.42736,-1.544137 -0.21997,-0.684864 -0.39997,-1.478009 -0.39997,-1.76253 0,-0.498699 0.0274,-0.497137 0.76023,0.04295 1.05346,0.77644 2.01724,0.702885 3.01276,-0.229923 0.91504,-0.857356 1.02664,-1.356032 0.50775,-2.268879 -0.47518,-0.835967 -1.13196,-1.247794 -2.00577,-1.257764 -0.94658,-0.01071 -2.27497,0.942777 -2.27497,1.633082 0,1.069816 -0.56356,0.466382 -1.0351,-1.108311 -0.53655,-1.791769 -0.67232,-1.962611 -1.27994,-1.610757 -0.35496,0.205569 -0.3466,0.467653 0.0603,1.890395 l 0.47233,1.651749 -0.71443,0.254501 c -1.03133,0.3674 -1.01882,0.370545 -3.88132,-0.976477 -1.54607,-0.727551 -2.562679,-1.363281 -2.485795,-1.554463 0.07158,-0.177912 0.503175,-1.399791 0.959155,-2.715276 0.69498,-2.005099 0.96745,-2.458857 1.68538,-2.806719 0.47102,-0.228229 0.89719,-0.307628 0.94706,-0.176463 0.26212,0.689547 1.85245,2.806741 2.10826,2.806741 0.66845,0 0.55514,-0.839669 -0.30626,-2.269837 -0.70584,-1.17183 -0.8121,-1.514942 -0.46922,-1.514942 0.24385,0 0.52356,0.121642 0.62162,0.270337 0.0981,0.148695 0.54247,0.270336 0.98753,0.270336 1.08461,0 2.33049,-1.182469 2.33049,-2.211871 0,-1.060828 -1.14966,-2.113582 -2.30817,-2.113582 -1.1022,0 -2.30819,1.052932 -2.30819,2.015269 0,1.068813 -0.4416,0.821582 -1.41291,-0.791026 -0.62628,-1.039818 -1.02013,-1.432732 -1.32588,-1.3228 -0.61251,0.220243 -0.5524,0.516295 0.43219,2.128725 l 0.86717,1.420132 -0.78014,0.47896 c -0.74854,0.459534 -0.89765,0.457795 -3.680262,-0.0434 l -2.90013,-0.52234 0.08952,-2.830718 c 0.08145,-2.576126 0.152626,-2.890757 0.791266,-3.498384 l 0.701765,-0.66769 1.397365,1.289614 c 1.245262,1.149259 1.439044,1.242531 1.7805,0.857043 0.331412,-0.37418 0.193234,-0.613226 -1.023703,-1.770893 -0.773769,-0.736049 -1.281872,-1.350613 -1.12915,-1.365689 0.15272,-0.01495 0.675534,-0.0076 1.161809,0.0165 1.95645,0.09686 3.05799,-1.982417 1.78488,-3.369227 -1.454778,-1.584707 -3.842736,-0.643737 -3.783013,1.490699 0.01666,0.593174 -0.04608,1.078491 -0.139321,1.078491 -0.09321,0 -0.769318,-0.553587 -1.502455,-1.230176 -1.188731,-1.097092 -1.374443,-1.183383 -1.716114,-0.797628 -0.331245,0.373957 -0.200018,0.60678 0.968503,1.71837 l 1.351663,1.285822 -0.655277,0.552895 c -0.923587,0.77925 -1.295178,0.862017 -4.160008,0.926585 l -2.543725,0.05732 -0.611504,-2.675889 c -0.534762,-2.34007 -0.561659,-2.76916 -0.214253,-3.419319 0.21849,-0.408885 0.525717,-0.743432 0.682723,-0.743432 0.15703,0 0.982286,0.36847 1.833939,0.818816 1.416098,0.748829 1.565368,0.777711 1.746415,0.337916 0.213466,-0.518504 -0.05013,-0.759847 -2.005251,-1.835996 -1.187516,-0.653662 -1.156429,-0.719612 0.499677,-1.059289 0.955839,-0.196067 1.752722,-1.486618 1.50017,-2.429506 -0.431146,-1.609574 -2.849072,-2.222979 -3.912408,-0.992558 -0.606718,0.702037 -0.716855,2.183256 -0.198471,2.668975 0.762535,0.71446 -0.124966,0.612757 -1.638942,-0.187837 -0.886788,-0.468947 -1.736632,-0.780633 -1.888544,-0.692669 -0.622501,0.360486 -0.190164,0.932963 1.299463,1.720666 l 1.575674,0.833224 -0.493701,0.81295 c -0.407201,0.670522 -0.948843,0.955356 -3.091127,1.625677 -1.428595,0.447 -2.693186,0.812705 -2.810226,0.812705 -0.117017,0 -0.805904,-1.106571 -1.530854,-2.459057 -1.023273,-1.909084 -1.276921,-2.634673 -1.134077,-3.244106 0.207206,-0.883942 0.364498,-0.913761 2.445775,-0.463616 1.242859,0.268797 1.527806,0.258114 1.74113,-0.06533 0.350502,-0.531373 0.09169,-0.700988 -1.720826,-1.127915 -1.555227,-0.366285 -2.336566,-1.020548 -1.218794,-1.020548 0.714738,0 1.776121,-1.211642 1.776121,-2.027581 0,-0.331603 -0.269094,-0.923462 -0.597983,-1.315239 -0.461257,-0.549439 -0.852319,-0.712319 -1.71021,-0.712319 -1.955192,0 -2.942262,1.875183 -1.740583,3.306623 0.312179,0.37186 0.501224,0.738278 0.420102,0.814288 -0.0811,0.07601 -0.933703,-0.04738 -1.894637,-0.274173 -1.490863,-0.351877 -1.784475,-0.35694 -2.001584,-0.03441 -0.33541,0.49823 0.341909,0.965393 1.714828,1.182736 1.626184,0.257424 1.887067,0.489533 1.5672,1.394283 -0.249647,0.706095 -2.120243,2.157005 -4.45819,3.457972 l -0.766676,0.426614 -2.062592,-2.189635 C 67.511194,51.263039 67.2172,50.810061 67.292347,50.084785 l 0.08831,-0.852182 1.966071,-0.08034 c 1.670197,-0.06825 1.952025,-0.14961 1.872738,-0.540674 -0.07351,-0.362627 -0.506984,-0.489041 -2.042098,-0.595516 l -1.948766,-0.13518 0.869459,-0.766359 c 1.095683,-0.965727 1.155953,-2.098705 0.161267,-3.030709 -0.964291,-0.903547 -2.27675,-0.882314 -3.200646,0.05177 0,0 0.923896,-0.934079 0,0 h 2.4e-5 m 1.312126,17.017713 c -1.717803,0.428243 -3.945637,1.594297 -4.427151,2.317143 -0.216038,0.324332 -0.194758,0.569287 0.07603,0.874997 0.336196,0.379556 0.563873,0.32654 2.147188,-0.49997 2.423663,-1.265147 4.228704,-1.666469 5.672414,-1.261177 1.280253,0.359416 2.259896,1.470113 2.495262,2.829111 0.292565,1.689287 -0.681437,2.29078 -7.924455,4.893627 -3.538055,1.271436 -6.951619,2.559689 -7.585712,2.862811 -3.623581,1.732109 -5.48713,5.688756 -4.448385,9.444742 1.158239,4.188155 4.256174,8.076309 8.562286,10.746377 l 1.094589,0.678729 -1.076927,0.731834 c -3.360102,2.283398 -4.229109,4.862738 -2.947832,8.749668 0.319843,0.97027 1.066405,2.36623 1.659009,3.10208 1.988279,2.46891 5.659799,5.00502 8.301046,5.73394 l 1.16457,0.32141 -0.284496,1.61183 c -0.353144,2.00075 0.184237,3.83001 1.163619,3.96095 0.778744,0.10413 0.989211,-0.58457 0.669201,-2.18959 -0.132084,-0.66245 -0.139891,-1.55406 -0.01738,-1.98139 l 0.222798,-0.77693 3.732122,0.0982 c 4.081339,0.10744 5.66644,-0.22943 6.022249,-1.27988 0.547973,-1.6177 -1.369705,-2.51029 -5.509886,-2.56458 -2.671691,-0.0351 -3.023502,0.0196 -3.861707,0.59965 -1.098968,0.76053 -1.505479,0.64308 -3.49966,-1.01103 -3.88344,-3.22118 -5.73235,-8.70118 -4.040541,-11.975752 0.919993,-1.780706 1.130342,-1.893828 2.927648,-1.574469 2.15571,0.383056 7.49338,0.337558 8.341439,-0.0711 1.615901,-0.77867 1.521189,-1.769466 -0.26274,-2.748507 -1.486508,-0.815828 -6.459632,-0.92072 -8.927425,-0.188306 l -1.861147,0.552382 -1.024083,-0.588201 C 60.40088,91.103512 57.51458,87.903075 56.26308,85.167458 c -0.878385,-1.920079 -0.770175,-4.034999 0.286376,-5.595997 0.750562,-1.108957 1.213557,-1.42254 3.822932,-2.589486 1.632897,-0.73025 4.974552,-2.020845 7.425874,-2.868008 5.580272,-1.92851 6.422237,-2.333 7.427922,-3.568439 0.723615,-0.888937 0.81014,-1.214674 0.81014,-3.050024 0,-1.861043 -0.08924,-2.185086 -0.946509,-3.436851 -2.013105,-2.939444 -4.824473,-3.876266 -8.719005,-2.905343 0,0 3.894532,-0.970923 0,0 v 0 m 6.479294,32.733034 c 0.917993,0.142049 1.03101,0.217166 0.577036,0.383548 -0.71907,0.263511 -2.717394,0.290119 -4.736045,0.06305 -1.153954,-0.129804 -1.42381,-0.232466 -1.009826,-0.38415 0.709835,-0.260121 3.660808,-0.295784 5.168835,-0.06245 0,0 -1.508027,-0.233335 0,0 v 0 m 4.443836,17.287338 c 0.493321,0.0925 0.82647,0.27493 0.740351,0.40551 -0.179524,0.27217 -4.16008,0.32485 -4.883792,0.0646 -1.354472,-0.48701 2.013891,-0.8692 4.143441,-0.47014 0,0 -2.12955,-0.39906 0,0 v 0 M 38.860561,109.5862 c -0.101164,1.00364 -0.184856,2.2598 -0.185974,2.79147 -0.0014,0.68191 -0.216204,1.15514 -0.729068,1.60661 l -0.727044,0.63993 -1.389462,-1.28233 c -1.23836,-1.14286 -1.431165,-1.23528 -1.772645,-0.84978 -0.331221,0.37398 -0.199875,0.60689 0.969431,1.71927 1.443376,1.37304 1.4802,1.72735 0.153769,1.47878 -2.490216,-0.46664 -3.487902,3.15342 -1.085377,3.93819 1.639895,0.53563 2.9982,-0.4632 2.95045,-2.16959 -0.01618,-0.57553 0.04699,-1.04644 0.140224,-1.04644 0.09321,0 0.769319,0.55358 1.502457,1.2302 1.188729,1.09707 1.374442,1.18338 1.716112,0.79762 0.331245,-0.37395 0.200019,-0.60678 -0.968503,-1.71839 l -1.351662,-1.2858 0.705788,-0.62128 c 0.614287,-0.54071 1.093089,-0.63977 3.693632,-0.76412 l 2.987869,-0.1429 0.496034,2.42462 c 0.6071,2.96739 0.611908,3.3192 0.05546,4.06359 l -0.44062,0.58943 -1.650226,-0.91042 c -1.15493,-0.63718 -1.714138,-0.81629 -1.863145,-0.59685 -0.413247,0.60854 -0.203898,0.86226 1.366111,1.65579 1.720255,0.86949 1.978567,1.22602 0.888144,1.22602 -1.09097,0 -1.59724,0.27322 -2.060045,1.11179 -0.538213,0.97523 -0.290303,1.97306 0.665179,2.67728 0.977478,0.72043 1.970045,0.67578 2.827008,-0.12718 0.73785,-0.69135 0.995924,-2.38199 0.41496,-2.71842 -0.161267,-0.0934 -0.21618,-0.28662 -0.122015,-0.42938 0.09616,-0.14579 0.855485,0.10725 1.732371,0.57734 0.858628,0.46029 1.692548,0.76081 1.853148,0.66781 0.590865,-0.34216 0.261216,-0.86452 -0.934203,-1.48025 -1.948694,-1.00373 -1.962024,-1.02171 -1.419812,-1.9147 0.393443,-0.64797 0.959792,-0.94345 3.079512,-1.6067 1.428594,-0.447 2.693185,-0.81271 2.810225,-0.81271 0.231724,0 2.815272,4.69259 2.815272,5.11349 0,0.14197 -0.122229,0.55937 -0.271617,0.92753 l -0.271618,0.66941 -1.762839,-0.44257 c -1.518428,-0.3812 -1.798139,-0.38903 -2.017533,-0.0565 -0.375519,0.56933 -0.193187,0.69655 1.719065,1.19928 1.680622,0.44185 2.324641,0.96988 1.182875,0.96988 -0.702789,0 -1.75208,1.2271 -1.75208,2.04894 0,0.81298 1.087781,1.93952 2.084538,2.15877 0.629309,0.13846 0.960315,0.01 1.658985,-0.64487 1.025465,-0.96084 1.111585,-1.85384 0.274856,-2.85052 -0.703598,-0.83811 -0.512958,-0.88066 1.751485,-0.39091 1.242858,0.2688 1.527806,0.25812 1.74113,-0.0653 0.344075,-0.5216 0.126371,-0.6621 -1.839937,-1.18731 -1.612522,-0.43075 -1.677743,-0.48222 -1.491554,-1.17739 0.27414,-1.0234 0.527406,-1.25179 2.969612,-2.67803 l 2.168349,-1.2663 1.967403,2.0127 c 1.688097,1.72698 1.968808,2.15661 1.977305,3.02647 l 0.0098,1.01377 H 64.06249 c -1.827322,0 -2.019675,0.0515 -2.019675,0.54069 0,0.48918 0.192353,0.54068 2.019675,0.54068 1.110822,0 2.019651,0.0515 2.019651,0.11437 0,0.0629 -0.389492,0.47934 -0.865555,0.9254 -1.063311,0.99631 -1.117535,1.99284 -0.157387,2.89248 2.018962,1.89173 5.263809,-0.84485 3.3199,-2.7999 -0.323556,-0.32542 -0.713072,-0.59165 -0.865578,-0.59165 -0.152508,0 -0.277284,-0.12167 -0.277284,-0.27036 0,-0.15448 0.865578,-0.27034 2.019675,-0.27034 1.811565,0 2.019652,-0.0544 2.019652,-0.52832 0,-0.46415 -0.236628,-0.53804 -1.947528,-0.60827 l -1.947527,-0.0799 -0.08803,-0.84855 c -0.07481,-0.7213 0.22056,-1.17454 1.969665,-3.02234 l 2.057688,-2.1738 2.213909,1.34927 c 2.652649,1.61663 2.842955,1.7843 3.087771,2.72046 0.182071,0.69617 0.115755,0.74845 -1.495744,1.1789 -1.975567,0.52769 -2.184607,0.66481 -1.830892,1.20105 0.232724,0.35283 0.471565,0.34984 2.007346,-0.0251 0.958767,-0.23405 1.803994,-0.36858 1.878307,-0.29896 0.07432,0.0696 -0.120301,0.43086 -0.432479,0.80272 -0.807071,0.96137 -0.709192,1.86381 0.305228,2.8143 0.698694,0.65467 1.029701,0.78333 1.659009,0.64489 0.996758,-0.21927 2.084539,-1.34581 2.084539,-2.15876 0,-0.82185 -1.049316,-2.04894 -1.75208,-2.04894 -1.141767,0 -0.497748,-0.52806 1.182875,-0.96991 1.912251,-0.50273 2.094583,-0.62994 1.719064,-1.19925 -0.219393,-0.33262 -0.499104,-0.32479 -2.017532,0.0564 l -1.762839,0.44257 -0.271618,-0.66939 c -0.149389,-0.36818 -0.271619,-0.78556 -0.271619,-0.92755 0,-0.4209 2.583549,-5.11349 2.815273,-5.11349 0.11704,0 1.381631,0.36574 2.810226,0.81271 2.148069,0.67213 2.683355,0.95422 3.094174,1.63068 0.552424,0.90954 0.681294,0.7734 -2.113794,2.23314 -0.850939,0.44442 -0.891571,0.52321 -0.472349,0.91602 0.419221,0.3928 0.595888,0.35721 2.053713,-0.4137 0.877266,-0.46389 1.668269,-0.73244 1.757769,-0.59675 0.08948,0.13567 0.03076,0.32311 -0.130512,0.41649 -0.161291,0.0934 -0.293232,0.64042 -0.293232,1.21562 0,1.88242 2.100249,2.79663 3.579592,1.55811 1.119654,-0.9374 1.218484,-1.85131 0.309632,-2.86336 -0.537167,-0.59816 -1.018276,-0.85384 -1.60669,-0.85384 -1.233028,0 -1.034653,-0.32605 0.745943,-1.22601 1.579793,-0.79847 1.780167,-1.04563 1.355471,-1.67195 -0.163241,-0.24071 -0.67789,-0.0733 -1.906443,0.62012 -0.925538,0.52241 -1.714661,0.9141 -1.753579,0.8704 -0.0389,-0.0437 -0.260287,-0.42557 -0.49194,-0.84863 -0.377256,-0.68894 -0.358642,-1.05218 0.178333,-3.48162 l 0.599506,-2.71242 2.978991,0.14186 c 2.592141,0.12341 3.070656,0.22253 3.684778,0.76312 l 0.705788,0.62125 -1.351663,1.28582 c -1.168521,1.11159 -1.299748,1.34442 -0.968503,1.71837 0.34167,0.38576 0.527383,0.29945 1.716112,-0.79762 1.528854,-1.41097 1.887378,-1.52471 1.616331,-0.51278 -0.453902,1.69453 1.20275,3.07806 2.987583,2.49508 2.365533,-0.77265 1.458013,-4.16766 -1.072833,-4.01346 -1.360398,0.0829 -1.356542,0.0145 0.07617,-1.34836 1.216937,-1.15766 1.355114,-1.39668 1.023679,-1.77086 -0.341457,-0.38554 -0.534262,-0.29311 -1.772622,0.84977 l -1.389486,1.28234 -0.693839,-0.61078 c -0.613764,-0.54026 -0.717546,-0.93637 -0.899045,-3.4314 -0.162909,-2.23933 -0.294231,-2.82066 -0.637259,-2.82066 -0.361808,0 -0.415937,0.44526 -0.332887,2.7391 l 0.09916,2.73907 -2.957354,-0.17936 c -2.546844,-0.1545 -2.957376,-0.12192 -2.957376,0.23465 0,0.22774 -0.185879,0.41406 -0.413104,0.41406 -0.281854,0 -0.564682,0.66557 -0.890287,2.09514 -0.631474,2.77258 -0.717212,3.04134 -0.970097,3.04134 -0.118231,0 -1.34933,-0.35928 -2.73577,-0.79839 -2.148474,-0.68046 -2.545487,-0.73808 -2.688068,-0.38998 -0.09198,0.22463 -0.345883,0.3442 -0.564183,0.26569 -0.271713,-0.0977 -0.806046,0.62049 -1.693642,2.27647 l -1.296702,2.41917 -2.491358,-1.50593 c -1.773646,-1.07209 -2.554056,-1.41088 -2.708991,-1.17598 -0.122444,0.18563 -0.376542,0.23789 -0.58106,0.11946 -0.241078,-0.1396 -1.026678,0.46301 -2.333686,1.79016 l -1.97026,2.00063 -1.866168,-1.89237 c -1.026392,-1.04082 -2.023746,-1.85556 -2.216361,-1.81055 -0.192615,0.045 -0.445404,-0.0625 -0.561754,-0.23888 -0.146581,-0.22222 -0.974692,0.14532 -2.695566,1.19635 l -2.48398,1.51711 -1.296702,-2.41917 c -0.887595,-1.65598 -1.421929,-2.37416 -1.693642,-2.27647 -0.218299,0.0785 -0.472208,-0.0411 -0.564207,-0.26569 -0.142557,-0.3481 -0.53957,-0.29048 -2.688044,0.38998 -1.386463,0.43911 -2.6213,0.79839 -2.7441,0.79839 -0.239888,0 -0.581607,-1.10329 -1.10949,-3.58202 -0.217751,-1.02256 -0.472112,-1.55446 -0.743349,-1.55446 -0.226797,0 -0.412342,-0.18632 -0.412342,-0.41406 0,-0.35666 -0.411486,-0.3891 -2.969112,-0.23419 l -2.969112,0.17988 0.117445,-2.73959 c 0.09778,-2.28136 0.04642,-2.73956 -0.30718,-2.73956 -0.313702,0 -0.472659,0.47664 -0.608552,1.8248 0,0 0.135893,-1.34816 0,0 v 0"
         style="fill:#0093cb;fill-opacity:1;fill-rule:evenodd;stroke:none;stroke-width:2.30409622"
         id="path36"
         inkscape:connector-curvature="0" /></g></g></svg>