<?xml version="1.0" encoding="UTF-8" standalone="no"?>
<!-- Creator: CorelDRAW -->

<svg
   xmlns:dc="http://purl.org/dc/elements/1.1/"
   xmlns:cc="http://creativecommons.org/ns#"
   xmlns:rdf="http://www.w3.org/1999/02/22-rdf-syntax-ns#"
   xmlns:svg="http://www.w3.org/2000/svg"
   xmlns="http://www.w3.org/2000/svg"
   xmlns:sodipodi="http://sodipodi.sourceforge.net/DTD/sodipodi-0.dtd"
   xmlns:inkscape="http://www.inkscape.org/namespaces/inkscape"
   xml:space="preserve"
   width="200mm"
   height="70mm"
   style="clip-rule:evenodd;fill-rule:evenodd;image-rendering:optimizeQuality;shape-rendering:geometricPrecision;text-rendering:geometricPrecision"
   viewBox="0 0 200 70.000001"
   id="svg2"
   version="1.1"
   inkscape:version="0.92.3 (2405546, 2018-03-11)"
   sodipodi:docname="zosia_20_black.svg"><metadata
     id="metadata120"><rdf:RDF><cc:Work
         rdf:about=""><dc:format>image/svg+xml</dc:format><dc:type
           rdf:resource="http://purl.org/dc/dcmitype/StillImage" /><dc:title></dc:title></cc:Work></rdf:RDF></metadata><sodipodi:namedview
     pagecolor="#ffffff"
     bordercolor="#666666"
     borderopacity="1"
     objecttolerance="10"
     gridtolerance="10"
     guidetolerance="10"
     inkscape:pageopacity="0"
     inkscape:pageshadow="2"
     inkscape:window-width="1920"
     inkscape:window-height="1022"
     id="namedview118"
     showgrid="false"
     fit-margin-top="0"
     fit-margin-left="0"
     fit-margin-right="0"
     fit-margin-bottom="0"
     inkscape:zoom="1.5575035"
     inkscape:cx="327.12608"
     inkscape:cy="76.506376"
     inkscape:window-x="0"
     inkscape:window-y="30"
     inkscape:window-maximized="1"
     inkscape:current-layer="flowRoot117" /><defs
     id="defs4"><style
       type="text/css"
       id="style6"><![CDATA[
    .fil0 {fill:#1F1A17}
    .fil23 {fill:#001600}
    .fil79 {fill:#007800}
    .fil73 {fill:#007C00}
    .fil19 {fill:#010201}
    .fil62 {fill:#013301}
    .fil61 {fill:#014501}
    .fil41 {fill:#014E01}
    .fil76 {fill:#016A01}
    .fil81 {fill:#017101}
    .fil56 {fill:#017501}
    .fil47 {fill:#017801}
    .fil77 {fill:#017901}
    .fil71 {fill:#025202}
    .fil43 {fill:#025902}
    .fil52 {fill:#026102}
    .fil48 {fill:#027202}
    .fil78 {fill:#027302}
    .fil15 {fill:#030506}
    .fil28 {fill:#044B04}
    .fil51 {fill:#047D04}
    .fil11 {fill:#05080B}
    .fil64 {fill:#058205}
    .fil13 {fill:#060A0D}
    .fil31 {fill:#068606}
    .fil50 {fill:#068A06}
    .fil17 {fill:#070D11}
    .fil24 {fill:#078E07}
    .fil46 {fill:#079107}
    .fil29 {fill:#089508}
    .fil55 {fill:#099909}
    .fil18 {fill:#099A09}
    .fil33 {fill:#099D09}
    .fil44 {fill:#0A1116}
    .fil57 {fill:#0AA20A}
    .fil30 {fill:#0B131A}
    .fil66 {fill:#0BA60B}
    .fil54 {fill:#0CAB0C}
    .fil68 {fill:#0CAE0C}
    .fil72 {fill:#0DB50D}
    .fil63 {fill:#0EB90E}
    .fil26 {fill:#111F29}
    .fil20 {fill:#192D3C}
    .fil12 {fill:#233D52}
    .fil69 {fill:#26445A}
    .fil25 {fill:#2B4B64}
    .fil9 {fill:#315672}
    .fil21 {fill:#355C7B}
    .fil8 {fill:#3A6688}
    .fil16 {fill:#407196}
    .fil70 {fill:#467BA4}
    .fil14 {fill:#487EA8}
    .fil5 {fill:#4A82AC}
    .fil65 {fill:#4E89B6}
    .fil4 {fill:#4F8BB9}
    .fil10 {fill:#5290BF}
    .fil3 {fill:#5597C8}
    .fil1 {fill:#5BA1D6}
    .fil7 {fill:#5EA6DD}
    .fil2 {fill:#60AAE2}
    .fil6 {fill:#65B2EC}
    .fil22 {fill:#6CBEFD}
    .fil75 {fill:#703914}
    .fil80 {fill:#88471C}
    .fil58 {fill:#91CFFD}
    .fil49 {fill:#A8D8FC}
    .fil60 {fill:#B3ACAD}
    .fil59 {fill:#B6DEFC}
    .fil53 {fill:#BDE1FC}
    .fil42 {fill:#C4E3FB}
    .fil67 {fill:#C5BABA}
    .fil35 {fill:#CAC1C1}
    .fil40 {fill:#CCE6FB}
    .fil45 {fill:#CDC3C3}
    .fil84 {fill:#D2C9C9}
    .fil32 {fill:#D3CCCC}
    .fil34 {fill:#D4D4D4}
    .fil83 {fill:#D5CDCD}
    .fil27 {fill:#D6E4EE}
    .fil36 {fill:#D7EBFA}
    .fil82 {fill:#DBD4D4}
    .fil37 {fill:#DCDBDB}
    .fil85 {fill:#E2DCDC}
    .fil38 {fill:#E4E3E3}
    .fil39 {fill:#E9E6E5}
    .fil74 {fill:#FDD500}
   ]]></style></defs><g
     id="Warstwa_x0020_1"
     transform="translate(-3.0958332,-2.2902397)"><metadata
       id="CorelCorpID_0Corel-Layer" /><g
       id="_110888184"><path
         id="_55749448"
         class="fil0"
         d="m 87.6284,2.9305 -3.3869,0.2823 -2.5402,0.2822 -2.258,0.2823 -2.258,0.2822 -1.9757,0.2823 -1.6935,0.2822 -1.6935,0.2823 -1.4112,0.2822 -1.4112,0.2823 -1.4112,0.2822 -1.4113,0.2822 -1.129,0.2823 -1.4112,0.2822 -1.129,0.2823 -1.129,0.2822 -1.129,0.2823 -0.8467,0.2822 -1.129,0.2823 -1.129,0.2822 -0.8467,0.2823 -0.8467,0.2822 -1.129,0.2823 -0.8468,0.2822 -0.8467,0.2822 -0.8467,0.2823 -0.8468,0.2822 -0.8467,0.2823 -0.5645,0.2822 -0.8468,0.2823 -0.8467,0.2822 -0.8467,0.2823 -0.5645,0.2822 -0.8468,0.2823 -0.5645,0.2822 -0.8467,0.2822 -0.5645,0.2823 -0.5645,0.2822 -0.8467,0.2823 -0.5645,0.2822 -0.5645,0.2823 -0.8467,0.2822 -0.5645,0.2823 -0.5645,0.2822 -0.5645,0.2823 -0.5645,0.2822 -0.5645,0.2823 -0.5645,0.2822 -0.5645,0.2822 -0.5645,0.2823 -0.5645,0.2822 -0.5645,0.2823 -0.5645,0.2822 -2.5402,1.4113 -0.5645,0.2822 -0.5645,0.2822 -0.5645,0.2823 -0.8467,0.5645 -0.8467,0.5645 -0.5645,0.2822 -0.8468,0.5645 -0.8467,0.5645 -0.8468,0.5645 -0.8467,0.5645 -0.8467,0.5645 -0.8468,0.5645 -1.129,0.8467 -1.1289,0.8467 -1.129,0.8468 -3.1047,2.5402 -0.2823,0.2822 -0.2822,0.2823 -0.2823,0.2822 -0.5645,0.5645 -1.4112,1.129 -0.2822,0.2822 -0.2823,0.2823 -0.2822,0.2822 -0.2823,0.2823 -0.2822,0.2822 -0.2823,0.2823 -0.2822,0.2822 -0.2823,0.2823 -0.2822,0.2822 L 8.8817,36.8 8.5995,37.0823 8.3172,37.3645 8.035,37.6468 7.7527,37.929 7.4705,38.2113 6.6237,39.3402 6.3415,39.6225 5.4947,40.7515 5.2125,41.316 v 0.5645 l 0.2822,0.2822 7.0562,0.2823 h 7.3384 l 12.4189,-0.2823 3.6692,-0.2822 v -0.2823 h -1.4113 -5.0804 l -18.0638,-0.5645 -2.0134,-0.1542 2.0134,-0.314 v -0.943 H 9.4462 l 4.5159,-3.9514 3.1594,-2.3967 5.0258,-3.8128 -1.3677,-0.5861 -3.0307,2.0378 2.4227,-2.2984 2.8224,-2.5402 3.1047,-1.9757 2.258,-1.4113 4.2337,-2.5402 2.5402,-1.4112 2.258,-1.129 2.8225,-1.4112 1.9757,-0.8467 1.9757,-0.8468 2.8225,-1.129 2.5402,-0.8467 3.1047,-1.129 1.5157,-0.6899 c 4.254,-1.4388 15.0589,-3.8823 18.456,-4.4583 6.982,-1.1837 14.61,-2.1902 22.9297,-2.1902 h 11.5721 c 17.114,0 40.6784,6.2291 52.8702,11.482 8.1871,3.5275 13.9701,6.587 21.1911,10.985 4.2441,2.585 15.5468,10.9168 17.9511,14.5072 v 0.2823 l 0.2822,0.2822 h 1.4113 l 0.2822,-0.2822 v -0.8468 l -0.2822,-0.2822 -0.2823,-0.2823 -0.2822,-0.2822 -0.2823,-0.2823 -0.2822,-0.2822 -0.2823,-0.2822 -0.2822,-0.2823 -0.2823,-0.2822 -0.2822,-0.2823 -0.2823,-0.2822 -0.2822,-0.2823 -0.2823,-0.2822 -0.2822,-0.2823 -0.2822,-0.2822 -0.5645,-0.2823 -0.2823,-0.2822 -0.2822,-0.2822 -0.2823,-0.2823 -0.2822,-0.2822 -0.2823,-0.2823 -0.2822,-0.2822 -0.5645,-0.2823 -0.2823,-0.2822 -0.2822,-0.2823 -0.2823,-0.2822 -0.2822,-0.2823 -0.5645,-0.2822 -0.2822,-0.2823 -0.2823,-0.2822 -0.2822,-0.2822 -0.5645,-0.2823 -0.2823,-0.2822 -0.2822,-0.2823 -0.5645,-0.2822 -0.2823,-0.2823 -0.2822,-0.2822 -0.5645,-0.2823 -0.2822,-0.2822 -0.2823,-0.2823 -0.5645,-0.2822 -0.2822,-0.2822 -0.2823,-0.2823 -0.5645,-0.2822 -0.2822,-0.2823 -0.5645,-0.2822 -0.2823,-0.2823 -0.5644,-0.2822 -0.2823,-0.2823 -0.5645,-0.2822 -0.2822,-0.2823 -0.5645,-0.2822 -0.2823,-0.2822 -0.5645,-0.2823 -0.2822,-0.2822 -0.5645,-0.2823 -0.2822,-0.2822 -0.5645,-0.2823 -0.5645,-0.2822 -0.2823,-0.2823 -0.5645,-0.2822 -0.5645,-0.2823 -0.2822,-0.2822 -0.5645,-0.2823 -0.5645,-0.2822 -0.5645,-0.2822 -0.2822,-0.2823 -0.5645,-0.2822 -0.5645,-0.2823 -0.5645,-0.2822 -0.2823,-0.2823 -0.5645,-0.2822 -0.5644,-0.2823 -0.5645,-0.2822 -0.5645,-0.2823 -0.5645,-0.2822 -0.5645,-0.2822 -0.5645,-0.2823 -0.5645,-0.2822 -0.5645,-0.2823 -0.5645,-0.2822 -0.5645,-0.2823 -0.5645,-0.2822 -0.5645,-0.2823 -0.5645,-0.2822 -0.5645,-0.2823 -0.8467,-0.2822 -0.5645,-0.2822 -0.5645,-0.2823 -0.8467,-0.2822 -0.5645,-0.2823 -0.5645,-0.2822 -0.8467,-0.2823 -0.5645,-0.2822 -0.8468,-0.2823 -0.5645,-0.2822 -0.8467,-0.2823 -0.5645,-0.2822 -0.8467,-0.2823 -0.5645,-0.2822 -0.8468,-0.2822 -0.8467,-0.2823 -0.8467,-0.2822 -0.8468,-0.2823 -0.5645,-0.2822 -1.129,-0.2823 -0.8467,-0.2822 -0.8467,-0.2823 L 148.8759,9.9867 148.0292,9.7044 147.1824,9.4222 146.0535,9.14 145.2067,8.8577 144.0777,8.5755 143.231,8.2932 142.102,8.011 140.973,7.7287 139.844,7.4465 138.715,7.1642 137.5861,6.882 136.4571,6.5997 135.0458,6.3175 133.6346,6.0352 132.5056,5.753 130.8121,5.4708 129.4009,5.1885 127.9897,4.9063 126.014,4.624 124.3205,4.3418 122.3448,4.0595 120.369,3.7773 117.8288,3.495 115.0063,3.2128 111.6194,2.9305 106.8212,2.6483 H 92.7089 Z"
         inkscape:connector-curvature="0"
         style="fill:#1f1a17" /><polygon
         id="_54328520"
         class="fil1"
         points="82.4205,7.0958 78.3104,7.5632 78.3143,8.8577 82.548,8.2932 "
         style="fill:#5ba1d6" /><polygon
         id="_55942336"
         class="fil2"
         points="82.4205,7.0958 82.548,8.2932 87.7696,7.1642 "
         style="fill:#60aae2" /><polygon
         id="_55870848"
         class="fil3"
         points="78.3104,7.5632 72.5185,8.4596 72.3871,9.7044 78.3143,8.8577 "
         style="fill:#5597c8" /><polygon
         id="_56005144"
         class="fil4"
         points="72.5185,8.4596 67.6856,9.265 67.8712,10.2689 72.3871,9.7044 "
         style="fill:#4f8bb9" /><polygon
         id="_55640440"
         class="fil5"
         points="67.6856,9.265 60.5328,10.8334 61.0973,11.9624 67.8712,10.2689 "
         style="fill:#4a82ac" /><polygon
         id="_55871904"
         class="fil6"
         points="54.6056,12.5269 54.2882,10.6569 52.6299,11.3979 49.5252,12.5269 49.5401,13.3495 50.1887,13.8377 "
         style="fill:#65b2ec" /><polygon
         id="_57334960"
         class="fil7"
         points="46.985,13.3736 44.1625,14.5026 44.1625,16.1961 47.8317,14.5026 50.1887,13.8377 49.5401,13.3495 49.5252,12.5269 "
         style="fill:#5ea6dd" /><polygon
         id="_57048168"
         class="fil8"
         points="60.5328,10.8334 54.6056,12.5269 50.1887,13.8377 50.4459,15.0042 61.0973,11.9624 "
         style="fill:#3a6688" /><polygon
         id="_55668136"
         class="fil9"
         points="47.8317,15.9139 50.4459,15.0042 50.1887,13.8377 47.8317,14.5026 44.1625,16.1961 44.4447,17.3251 "
         style="fill:#315672" /><polygon
         id="_23117064"
         class="fil10"
         points="41.0578,17.3251 44.1625,16.1961 44.1625,14.5026 42.1868,15.3494 40.2111,16.1961 40.2872,17.0724 "
         style="fill:#5290bf" /><path
         id="_55870656"
         class="fil11"
         d="m 85.935,15.6316 v 0.8467 c 0,0.6607 0.4683,1.129 1.129,1.129 1.0194,0 0.8467,-0.7121 0.8467,-1.6934 0.4813,-0.3224 1.129,-0.6142 1.129,-1.4113 0,-0.5451 -0.5032,-1.129 -0.8468,-1.129 -0.9993,0 -2.2579,1.4513 -2.2579,2.258 z"
         inkscape:connector-curvature="0"
         style="fill:#05080b" /><polygon
         id="_55872672"
         class="fil12"
         points="37.9531,20.1475 44.4447,17.3251 44.1625,16.1961 41.0578,17.3251 37.3886,19.3008 37.9531,19.3008 "
         style="fill:#233d52" /><path
         id="_55941856"
         class="fil13"
         d="m 79.4433,15.3494 v 0.5645 c 0,1.0314 0.7789,2.2579 1.6935,2.2579 h 0.2822 c 0.462,0 0.8468,-0.169 0.8468,-0.5645 0,-0.6658 -0.5537,-1.2558 -0.8468,-1.6934 -0.0201,-0.9045 0.092,-1.4113 -0.8467,-1.4113 H 80.29 c -0.6503,0 -0.8467,0.1964 -0.8467,0.8468 z"
         inkscape:connector-curvature="0"
         style="fill:#060a0d" /><polygon
         id="_55643512"
         class="fil14"
         points="40.2872,17.0724 40.2111,16.1961 37.3886,17.6073 37.3886,19.3008 41.0578,17.3251 "
         style="fill:#487ea8" /><path
         id="_55646392"
         class="fil15"
         d="m 91.5799,17.8896 v 0.2822 c 0,0.6504 0.1964,0.8468 0.8467,0.8468 h 0.8468 c 0.579,-2.1686 2.5402,-1.2868 2.5402,-2.8225 0,-0.6503 -0.1964,-0.8467 -0.8467,-0.8467 h -0.8468 c -0.8763,0 -2.5402,1.6638 -2.5402,2.5402 z"
         inkscape:connector-curvature="0"
         style="fill:#030506" /><polygon
         id="_55943008"
         class="fil16"
         points="37.3886,19.3008 37.3886,17.6073 35.1306,18.7363 32.5904,20.1475 33.0211,21.4252 "
         style="fill:#407196" /><path
         id="_55640728"
         class="fil17"
         d="m 76.8371,20.8868 c 0.2322,-0.1281 0.6305,-0.5894 0.6305,-0.7393 0,-0.3492 -2.0902,-2.8665 -2.5402,-3.1047 -0.2578,0.1727 -0.8468,0.4595 -0.8468,0.8468 0,1.3971 1.4593,2.8892 2.7565,2.9972 z"
         inkscape:connector-curvature="0"
         style="fill:#070d11" /><path
         id="_55941280"
         class="fil18"
         d="m 105.975,25.5102 0.8901,0.0205 0.5211,-1.4317 1.2405,-0.1915 1.582,-1.2198 v -1.1289 l -1.129,-1.9758 -0.8468,-0.2822 c -0.679,1.2832 -3.5685,4.1439 -2.2579,6.2094 z"
         inkscape:connector-curvature="0"
         style="fill:#099a09" /><path
         id="_55940800"
         class="fil19"
         d="m 95.8136,20.4298 c 0,0.6503 0.1964,0.8467 0.8467,0.8467 h 0.2823 c 0.9233,0 0.7432,-0.8467 2.258,-0.8467 h 1.1289 c 0.1812,-0.7569 0.2823,-0.5321 0.2823,-1.129 0,-0.3435 -0.5838,-0.8467 -1.129,-0.8467 h -0.8467 c -1.0707,0 -2.8225,0.9765 -2.8225,1.9757 z"
         inkscape:connector-curvature="0"
         style="fill:#010201" /><polygon
         id="_55940512"
         class="fil20"
         points="33.0211,21.4252 31.4614,22.4055 32.0259,23.2522 34.5661,21.841 37.9531,20.1475 37.9531,19.3008 37.3886,19.3008 "
         style="fill:#192d3c" /><polygon
         id="_55940128"
         class="fil21"
         points="33.0211,21.4252 32.5904,20.1475 28.3567,22.6877 28.4142,24.0954 31.4614,22.4055 "
         style="fill:#355c7b" /><path
         id="_55921400"
         class="fil22"
         d="m 95.8136,20.4298 c 0,-0.9992 1.7518,-1.9757 2.8225,-1.9757 h 0.8467 c 0.5452,0 1.129,0.5032 1.129,0.8467 0,0.5969 -0.1011,0.3721 -0.2823,1.129 h -1.1289 c -1.5148,0 -1.3347,0.8467 -2.258,0.8467 h -0.2823 c -0.6503,0 -0.8467,-0.1964 -0.8467,-0.8467 z m -18.9765,0.457 c -1.2972,-0.108 -2.7565,-1.6001 -2.7565,-2.9972 0,-0.3873 0.589,-0.6741 0.8468,-0.8468 0.45,0.2382 2.5402,2.7555 2.5402,3.1047 0,0.1499 -0.4167,0.5749 -0.6305,0.7393 z m 14.7428,-2.9972 c 0,-0.8764 1.6639,-2.5402 2.5402,-2.5402 h 0.8468 c 0.6503,0 0.8467,0.1964 0.8467,0.8467 0,1.5357 -1.9612,0.6539 -2.5402,2.8225 h -0.8468 c -0.6503,0 -0.8467,-0.1964 -0.8467,-0.8468 z m -9.3141,-0.2823 c 0,0.3955 -0.3848,0.5645 -0.8468,0.5645 h -0.2822 c -0.9146,0 -1.6935,-1.2265 -1.6935,-2.2579 v -0.5645 c 0,-0.6504 0.1964,-0.8468 0.8467,-0.8468 h 0.2823 c 0.9387,0 0.8266,0.5068 0.8467,1.4113 0.2931,0.4376 0.8468,1.0276 0.8468,1.6934 z m 3.6692,-1.9757 c 0,-0.8067 1.2586,-2.258 2.2579,-2.258 0.3436,0 0.8468,0.5839 0.8468,1.129 0,0.7971 -0.6477,1.0889 -1.129,1.4113 0,0.9813 0.1727,1.6934 -0.8467,1.6934 -0.6607,0 -1.129,-0.4683 -1.129,-1.129 z m -31.6462,-4.9715 0.3168,1.8668 5.9272,-1.6935 7.1528,-1.5684 4.8329,-0.8054 5.7919,-0.8964 4.1101,-0.4674 5.3491,0.0684 -5.2216,1.129 -4.2337,0.5645 -5.9272,0.8467 -4.5159,0.5645 -6.7739,1.6935 -10.6514,3.0418 -2.6142,0.9097 -3.387,1.4112 -6.4916,2.8224 -3.387,1.6935 -2.5402,1.4112 -5.3627,3.387 -4.5159,2.8224 -8.1852,6.2095 -4.5159,3.9514 h 1.9757 l 3.2778,-0.2823 4.4529,-0.2015 3.8965,-0.0403 4.966,0.5553 -5.0137,0.5797 -3.9441,0.0464 -4.5819,0.1894 -2.2067,0.2823 11.8168,0.3669 6.6346,0.1236 5.2573,0.3562 h 0.5645 L 44.1625,36.8 42.1868,33.9776 h -1.4113 c -0.342,-0.6465 -2.2579,-7.154 -2.2579,-8.1851 0,-1.4962 13.5861,-3.2265 15.985,-3.7723 5.5424,-1.261 11.2948,-2.0117 16.7556,-3.2839 0.4393,0.2942 0.8467,0.3742 0.8467,1.129 0,1.2583 -12.75,9.0916 -14.6001,10.5198 C 54.1307,32.99 46.0651,38.5664 42.469,40.4692 l -0.5594,0.6031 13.825,-1.7321 h 8.7496 c 3.163,0 7.2363,0.2346 8.7497,1.9758 l 1.7083,-0.033 c -1.3356,-1.9435 -2.6475,-3.8088 -3.4018,-6.0353 l -0.2822,0.7056 v 1.129 c -0.606,0.5267 -1.4452,1.129 -2.5403,1.129 H 67.589 c -0.5452,0 -1.129,-0.5033 -1.129,-0.8468 0,-0.6328 0.2234,-0.6196 0.5645,-1.129 2.3089,0 2.4349,-0.8467 3.3869,-0.8467 0.7948,0 0.5226,0.1221 0.8468,0.5645 l 0.2822,-0.7056 -0.2822,-0.9879 v -3.9514 l -0.2823,0.5645 c -0.5094,0.3411 -0.4962,0.5645 -1.129,0.5645 H 67.589 c -0.8667,0 -1.6935,-0.2614 -1.6935,-1.129 v -0.2823 c 0,-0.6503 0.1964,-0.8467 0.8467,-0.8467 h 2.258 c 1.0219,0 2.1926,0.6397 1.9757,1.6935 l 0.2823,-0.5645 1.5266,-4.5797 1.2958,-1.912 -0.5645,-0.2822 c -0.0561,0.5448 -0.3217,0.9928 -0.5645,1.4112 l -0.5645,0.2823 c -0.5593,-0.296 -2.8224,-1.172 -2.8224,-1.6935 0,-0.6465 0.0957,-0.3282 0.2822,-1.129 h 1.6935 c 1.1488,0 1.5182,0.4458 1.9757,1.129 l 0.5645,0.2822 2.8803,-2.5827 c 0.9747,-0.874 2.0556,-1.6097 4.1794,-2.2119 1.7099,-0.4848 3.0926,-0.8503 5.3592,-0.8503 6.8066,0 8.282,3.2528 11.8543,5.6449 1.4627,-0.9794 8.4363,-7.3384 9.5964,-7.3384 h 0.2822 c 0.8816,0 11.6795,9.4359 14.2843,10.1191 l 2.9328,-7.8611 c 1.5036,0.4015 1.7435,4.9668 2.2872,6.4624 0.7911,2.1764 3.8757,5.1919 1.0997,4.5452 l -0.6068,-0.2681 0.3246,0.5503 c 0.251,0.9402 2.6643,2.8225 3.1047,2.8225 0.3877,0 18.59,-14.959 19.7572,-14.959 h 0.2823 c 0.6128,0 12.6371,10.7818 13.8989,12.0677 1.3236,1.3489 13.6114,10.735 14.8902,11.0764 h 18.6283 c -2.4043,-3.5904 -13.707,-11.9222 -17.9511,-14.5072 -7.221,-4.398 -13.004,-7.4575 -21.1911,-10.985 C 147.7818,10.2886 124.2174,4.0595 107.1034,4.0595 H 95.5313 C 87.2116,4.0595 79.5836,5.066 72.6016,6.2497 68.5,6.8539 56.3709,9.8362 54.2888,10.6601 Z"
         inkscape:connector-curvature="0"
         style="fill:#6cbefd" /><path
         id="_56178680"
         class="fil23"
         d="m 121.498,28.8972 c 0.8006,-1.2893 -3.2621,-3.403 -4.3461,-4.1213 -1.2394,-0.8211 -4.4887,-3.389 -5.8148,-3.4994 z"
         inkscape:connector-curvature="0"
         style="fill:#001600" /><path
         id="_56177912"
         class="fil15"
         d="m 72.9516,24.9457 c 0.2624,-0.4125 0.4918,-0.8582 0.5645,-1.4112 -0.4575,-0.6832 -0.8269,-1.129 -1.9757,-1.129 h -1.6935 c -0.1865,0.8008 -0.2822,0.4825 -0.2822,1.129 0,0.5215 2.2631,1.3975 2.8224,1.6935 z"
         inkscape:connector-curvature="0"
         style="fill:#030506" /><polygon
         id="_56177144"
         class="fil24"
         points="107.386,26.6392 110.208,27.4859 111.627,25.5501 112.466,25.228 111.337,23.2522 110.218,24.1015 109.926,25.5102 109.079,25.5102 109.07,26.3142 "
         style="fill:#078e07" /><polygon
         id="_57375504"
         class="fil25"
         points="28.3567,22.6877 26.0987,24.099 22.994,26.0747 20.1716,28.6149 17.7489,30.9133 20.7796,28.8755 26.5873,25.1084 28.4142,24.0954 "
         style="fill:#2b4b64" /><polygon
         id="_57375216"
         class="fil26"
         points="32.0259,23.2522 31.4614,22.4055 28.4142,24.0954 26.5873,25.1084 26.6632,25.5102 26.6632,26.6392 "
         style="fill:#111f29" /><polygon
         id="_57374736"
         class="fil27"
         points="57.9926,23.5345 59.6861,26.0747 65.606,22.0832 "
         style="fill:#d6e4ee" /><polygon
         id="_57373968"
         class="fil28"
         points="98.3538,26.6392 98.6361,26.6392 98.8619,26.0182 "
         style="fill:#044b04" /><polygon
         id="_55122512"
         class="fil29"
         points="107.386,24.099 106.865,25.5307 105.975,25.5102 107.386,26.6392 109.07,26.3142 109.079,25.5102 109.926,25.5102 110.218,24.1015 111.337,23.2522 110.49,21.841 110.208,21.5588 110.208,22.6877 108.626,23.9075 "
         style="fill:#089508" /><polygon
         id="_57372816"
         class="fil30"
         points="26.6632,26.6392 26.6632,25.5102 26.5873,25.1084 24.123,26.6392 20.7796,28.8755 22.1473,29.4616 "
         style="fill:#0b131a" /><polygon
         id="_57373392"
         class="fil31"
         points="112.466,25.228 111.627,25.5501 110.208,27.4859 113.313,28.6149 113.877,27.2037 "
         style="fill:#068606" /><polygon
         id="_57372720"
         class="fil32"
         points="156.779,25.228 156.779,24.6635 154.239,22.4055 154.239,27.7682 154.521,27.7682 156.779,27.4859 "
         style="fill:#d3cccc" /><polygon
         id="_56045456"
         class="fil33"
         points="123.756,29.7439 125.126,29.7779 125.718,30.5483 125.174,30.8454 128.272,31.4374 127.143,29.1794 124.884,25.9011 124.638,26.072 124.321,24.3812 122.359,29.2217 122.909,28.8972 123.756,28.8972 "
         style="fill:#099d09" /><polygon
         id="_56044976"
         class="fil34"
         points="151.698,20.1475 151.416,28.0504 154.239,27.7682 154.239,22.4055 "
         style="fill:#d4d4d4" /><polygon
         id="_56044592"
         class="fil35"
         points="156.779,25.228 156.779,27.4859 154.521,27.7682 160.827,28.2248 156.779,24.6635 "
         style="fill:#cac1c1" /><path
         id="_56044016"
         class="fil36"
         d="m 54.0411,24.3812 c 1.2404,0.9088 1.888,3.3158 2.258,3.9515 l 3.387,-2.258 -1.6935,-2.5402 z"
         inkscape:connector-curvature="0"
         style="fill:#d7ebfa" /><path
         id="_56043440"
         class="fil24"
         d="m 124.321,24.3812 0.3178,1.6908 0.2457,-0.1709 2.2589,3.2783 v -0.5645 h 1.4113 c -1.5727,-2.3485 -2.0896,-4.7572 -2.9272,-7.9416 z"
         inkscape:connector-curvature="0"
         style="fill:#078e07" /><polygon
         id="_56042960"
         class="fil37"
         points="151.698,20.1475 148.876,22.1233 148.876,28.3327 151.416,28.0504 "
         style="fill:#dcdbdb" /><polygon
         id="_57313464"
         class="fil38"
         points="148.876,22.1233 146.336,24.099 146.336,28.8972 148.876,28.3327 "
         style="fill:#e4e3e3" /><path
         id="_57313080"
         class="fil32"
         d="m 103.434,30.3084 0.58,-10e-5 -0.2977,-7.9028 c -1.2758,0.8543 -4.5159,3.4888 -4.5159,5.3627 0,1.1785 3.1018,2.2765 4.2336,2.5402 z"
         inkscape:connector-curvature="0"
         style="fill:#d3cccc" /><path
         id="_57312504"
         class="fil39"
         d="M 146.336,28.8972 V 24.099 l -6.4917,4.5159 c 0.3306,0.4757 0.0405,0.5645 0.8468,0.5645 l 2.5482,0.064 z"
         inkscape:connector-curvature="0"
         style="fill:#e9e6e5" /><path
         id="_57311544"
         class="fil40"
         d="m 50.6542,24.9457 3.1047,5.3627 2.5402,-1.9757 c -0.37,-0.6357 -1.0176,-3.0427 -2.258,-3.9515 z"
         inkscape:connector-curvature="0"
         style="fill:#cce6fb" /><path
         id="_57310968"
         class="fil41"
         d="m 110.208,21.5588 0.2822,0.2822 c 1.3625,0.3174 6.3817,4.8881 6.4917,6.2094 1.6956,0.1855 0.5437,1.0191 2.0151,1.9363 0.5474,0.3413 2.1037,1.3877 2.5008,1.7329 l 0.8306,-1.6318 -1.1655,-0.3641 0.3349,-0.8265 -10.1609,-7.6207 -2.2579,-1.6935 z"
         inkscape:connector-curvature="0"
         style="fill:#014e01" /><polygon
         id="_56092816"
         class="fil42"
         points="50.6542,24.9457 48.114,25.5102 52.3476,31.1551 53.7589,30.3084 "
         style="fill:#c4e3fb" /><path
         id="_56091664"
         class="fil43"
         d="m 111.337,23.2522 1.129,1.9758 1.4113,1.9757 7.0561,5.6449 0.5645,-1.129 c -0.3971,-0.3452 -1.9534,-1.3916 -2.5008,-1.7329 -1.4714,-0.9172 -0.3195,-1.7508 -2.0151,-1.9363 -0.11,-1.3213 -5.1292,-5.892 -6.4917,-6.2094 z"
         inkscape:connector-curvature="0"
         style="fill:#025902" /><polygon
         id="_57605760"
         class="fil42"
         points="48.114,25.5102 46.1382,25.7925 50.6542,32.2841 52.3476,31.1551 "
         style="fill:#c4e3fb" /><path
         id="_57604992"
         class="fil44"
         d="m 69.0002,29.1794 h -2.258 c -0.6503,0 -0.8467,0.1964 -0.8467,0.8467 v 0.2823 c 0,0.8676 0.8268,1.129 1.6935,1.129 h 2.2579 c 0.6328,0 0.6196,-0.2234 1.129,-0.5645 0.242,-1.0778 -1.0126,-1.6935 -1.9757,-1.6935 z"
         inkscape:connector-curvature="0"
         style="fill:#0a1116" /><path
         id="_57604416"
         class="fil45"
         d="m 103.717,22.4055 0.2977,7.9028 -0.58,10e-5 2.5403,1.4112 0.2822,-4.5159 c -2.5277,-3.4501 -0.9278,-4.8314 0.9955,-8.0579 z"
         inkscape:connector-curvature="0"
         style="fill:#cdc3c3" /><path
         id="_54259424"
         class="fil35"
         d="m 105.975,31.7196 c 0.1159,0.1731 1.1289,1.6526 1.1289,1.6935 0,1.0669 -0.6886,1.8826 -1.1289,2.5402 l 0.2822,8.1851 h 2.258 l 1.4112,-1.9757 v -13.83 l -3.6692,-1.129 z"
         inkscape:connector-curvature="0"
         style="fill:#cac1c1" /><path
         id="_57030104"
         class="fil46"
         d="m 139.279,37.3645 1.9758,1.129 3.3869,-7.3384 h -0.8467 -1.9757 v 1.129 h -0.8468 c -0.0344,1.5458 -0.5446,4.6167 -1.6935,5.0804 z"
         inkscape:connector-curvature="0"
         style="fill:#079107" /><path
         id="_55636048"
         class="fil47"
         d="m 147.465,41.8805 h 1.129 l 1.9863,-5.7751 1.9298,-3.6389 1.7288,-2.7226 h -1.129 -0.2822 c -0.2674,1.0013 -0.9989,2.0334 -1.7441,2.4897 -1.1389,0.6973 -0.8202,1.5026 -1.6229,2.8929 -0.2193,0.3797 -1.9389,6.0712 -1.9957,6.754 z"
         inkscape:connector-curvature="0"
         style="fill:#017801" /><path
         id="_56173952"
         class="fil48"
         d="m 148.594,41.8805 h 3.3869 c 0.6573,-0.946 1.8807,-4.891 2.9148,-6.6816 1.0313,-1.7857 2.8411,-4.113 4.4236,-5.1728 l -6.2094,-0.2822 h 1.129 l -1.7288,2.7226 -1.9298,3.6389 z"
         inkscape:connector-curvature="0"
         style="fill:#027202" /><polygon
         id="_55110584"
         class="fil49"
         points="42.1627,26.9065 42.469,26.3569 40.8639,26.6997 42.469,31.4374 45.2915,35.9533 46.985,34.8243 "
         style="fill:#a8d8fc" /><polygon
         id="_56072200"
         class="fil50"
         points="143.796,31.1551 144.642,31.1551 141.255,38.4935 142.949,39.6225 146.618,30.8729 "
         style="fill:#068a06" /><path
         id="_55649424"
         class="fil51"
         d="m 149.44,30.3084 0.2625,0.5531 -0.827,1.7048 c -1.036,-1.0948 -1.4251,1.9468 -1.8611,3.5016 -0.2277,0.812 -1.4949,4.4722 -1.8081,4.9658 l 0.2823,0.5645 0.2822,0.2823 h 1.6935 c 0.0568,-0.6828 1.7764,-6.3743 1.9957,-6.754 0.8027,-1.3903 0.484,-2.1956 1.6229,-2.8929 0.7452,-0.4563 1.4767,-1.4884 1.7441,-2.4897 z"
         inkscape:connector-curvature="0"
         style="fill:#047d04" /><path
         id="_55623472"
         class="fil52"
         d="m 175.972,43.0094 1.4112,0.2823 h 2.258 -1.3469 c -0.9681,-0.6482 -5.1529,-4.0539 -5.427,-5.0804 l -9.0319,-6.7739 c 0.2436,0.9123 5.0127,4.7489 6.039,5.8152 1.1734,1.2191 0.7758,0.5207 1.6425,1.18 0.6725,0.5114 0.3414,0.9154 1.2686,1.8362 0.8727,0.8667 2.2577,1.9334 3.1865,2.7406 z"
         inkscape:connector-curvature="0"
         style="fill:#026102" /><path
         id="_55138128"
         class="fil53"
         d="m 43.598,26.3569 c 0.327,0.4884 1.9757,2.8722 1.9757,3.387 v 0.8467 l 0.2675,-0.2238 1.6455,2.2088 0.345,1.6842 2.8225,-1.9757 -4.516,-6.4916 z"
         inkscape:connector-curvature="0"
         style="fill:#bde1fc" /><polygon
         id="_110932736"
         class="fil54"
         points="123.756,29.7439 122.345,32.2841 128.272,34.2598 130.252,34.5394 128.272,31.4374 125.174,30.8454 125.718,30.5483 125.126,29.7779 "
         style="fill:#0cab0c" /><path
         id="_55749472"
         class="fil55"
         d="m 136.457,35.6711 2.8224,1.6934 c 1.1489,-0.4637 1.6591,-3.5346 1.6935,-5.0804 h 0.8468 v -1.129 l -3.387,-0.8467 -0.2822,1.9757 h -0.8468 v 1.4112 c 0,0.9727 -0.3991,1.4608 -0.8467,1.9758 z"
         inkscape:connector-curvature="0"
         style="fill:#099909" /><path
         id="_55112536"
         class="fil56"
         d="m 151.981,41.8805 v 0.2822 h 4.516 c 0.2478,-2.9782 4.5715,-9.5964 7.0561,-9.5964 0.7909,0 1.6293,1.1761 1.9758,1.6935 2.3575,1.5787 7.4336,6.2626 8.7496,8.7496 h 1.6935 c -0.9288,-0.8072 -2.3138,-1.8739 -3.1865,-2.7406 -0.9272,-0.9208 -0.5961,-1.3248 -1.2686,-1.8362 -0.8667,-0.6593 -0.4691,0.0391 -1.6425,-1.18 -1.0263,-1.0663 -5.7954,-4.9029 -6.039,-5.8152 l -4.516,-1.4113 c -1.5825,1.0598 -3.3923,3.3871 -4.4236,5.1728 -1.0341,1.7906 -2.2575,5.7356 -2.9148,6.6816 z"
         inkscape:connector-curvature="0"
         style="fill:#017501" /><path
         id="_55640208"
         class="fil57"
         d="m 136.457,35.6711 c 0.4476,-0.515 0.8467,-1.0031 0.8467,-1.9758 v -1.4112 h 0.8468 l 0.2822,-1.9757 -0.8169,0.0321 -3.7904,3.7848 z"
         inkscape:connector-curvature="0"
         style="fill:#0aa20a" /><polygon
         id="_110927192"
         class="fil58"
         points="42.469,31.4374 42.1868,33.9776 44.1625,36.8 45.2915,35.9533 "
         style="fill:#91cffd" /><path
         id="_55639736"
         class="fil59"
         d="m 46.985,34.8243 0.8467,-0.5645 -0.345,-1.6842 -1.6455,-2.2088 -0.2675,0.2238 v -0.8467 c 0,-0.5148 -1.6487,-2.8986 -1.9757,-3.387 h -1.129 l -0.3063,0.5496 z"
         inkscape:connector-curvature="0"
         style="fill:#b6defc" /><path
         id="_57158784"
         class="fil33"
         d="m 96.3781,39.9047 2.258,-0.8467 c 0.0602,-2.7033 2.1125,-6.3997 3.1047,-8.4674 L 99.765,29.7439 C 99.1115,32.5491 96.4718,35.7 96.3781,39.9047 Z"
         inkscape:connector-curvature="0"
         style="fill:#099d09" /><path
         id="_55086912"
         class="fil0"
         d="m 125.732,39.6225 0.5041,0.0191 0.9071,3.3678 h -1.4112 l -2.1079,0.0497 0.9899,-3.7534 z m 1.4112,-10.4431 1.129,2.258 1.9798,3.102 -1.9798,-0.2796 2.8225,6.4917 c -1.4927,-0.7898 -4.5883,-2.258 -6.7739,-2.258 h -2.258 c -0.7623,0 -0.7782,0.1348 -1.4112,0.2823 0.512,-0.9677 2.5402,-3.4496 2.5402,-4.516 0,-0.7246 -0.7149,-0.3402 -1.4112,-0.2822 l -0.5504,0.3246 1.1149,-2.0181 1.4112,-2.5402 v -0.8467 h -0.8468 l -0.5503,0.3245 1.9616,-4.8405 1.3065,-3.7079 c 0.8376,3.1844 1.3545,5.5931 2.9272,7.9416 h -1.4113 z m 24.2732,-1.129 -2.5402,0.2823 -2.5402,0.5645 -3.0967,0.3462 -2.5482,-0.064 c -0.8063,0 -0.5162,-0.0888 -0.8468,-0.5645 l 6.4917,-4.5159 2.5402,-1.9757 2.8225,-1.9758 2.5402,2.258 2.5402,2.258 4.0483,3.5613 -6.3063,-0.4566 h -0.2822 z m -51.6511,1.6935 1.9758,0.8467 1.9757,0.8468 1.4112,0.8467 c 0.4813,0.3223 1.129,0.6141 1.129,1.4112 v 0.2823 c 0,0.9988 -2.0562,2.417 -2.8225,2.8224 l -2.5402,1.129 -2.2579,1.129 -2.258,0.8467 -3.387,1.129 -2.2579,0.8468 -1.9758,0.5645 -6.6297,1.5795 7.4765,-8.9179 3.1047,-3.1047 3.6692,-3.387 1.9757,-1.9757 0.5081,-0.621 -0.2258,0.621 c -0.1812,0.7569 -0.2823,0.532 -0.2823,1.129 0,0.9117 0.9902,1.401 1.4112,1.9757 z M 80.5726,43.0094 C 77.1586,41.203 73.2342,37.9392 73.2342,32.8486 v -0.8467 c 0,-6.153 6.0817,-11.8544 12.1366,-11.8544 h 1.6935 c 3.5304,0 8.3237,2.9576 9.5963,5.3627 -3.56,2.3839 -14.057,13.6608 -16.088,17.4992 z m -3.6114,-21.7754 -2.8803,2.5827 -1.2958,1.912 -1.5266,4.5797 v 3.9514 l 0.2822,0.9879 c 0.5334,1.8671 2.2359,4.4377 3.4018,6.0353 0.6218,0.8521 2.6268,2.6083 4.2189,3.7022 l 0.2822,0.5645 0.2822,0.2822 h 1.4113 l 0.2822,-0.2822 0.8468,-0.2823 1.129,-0.2822 0.8467,-0.2823 7.6206,-2.2579 2.5403,-0.8468 3.1047,-1.129 2.8224,-1.129 3.387,-1.6934 2.258,-1.6935 c 0.4403,-0.6576 1.1289,-1.4733 1.1289,-2.5402 0,-0.0409 -1.013,-1.5204 -1.1289,-1.6935 l -2.5403,-1.4112 c -1.1318,-0.2637 -4.2336,-1.3617 -4.2336,-2.5402 0,-1.8739 3.2401,-4.5084 4.5159,-5.3627 l 3.5357,-3.2597 c -1.9233,3.2265 -3.5232,4.6078 -0.9955,8.0579 l 3.6692,1.129 3.9515,1.4112 c 0.959,0.5075 2.8224,1.4538 2.8224,2.8224 0,1.1441 -2.1067,4.0367 -2.8224,4.516 l -3.9515,5.0804 -1.4112,1.9757 0.2822,0.2823 h 0.5645 l 0.2823,-0.2823 0.2822,-0.2822 v -0.2823 l 5.0804,-6.2094 c 0.3676,-1.3765 2.258,-2.5852 2.258,-4.2337 v -1.1289 c 0,-1.5985 -2.9018,-2.6577 -3.9514,-3.387 l -3.1047,-1.129 -2.8225,-0.8467 -1.4112,-1.129 c -1.3106,-2.0655 1.5789,-4.9262 2.2579,-6.2094 l 0.8468,0.2822 2.2579,1.6935 c 1.3261,0.1104 4.5754,2.6783 5.8148,3.4994 1.084,0.7183 5.1467,2.832 4.3461,4.1213 l -0.3349,0.8265 1.1655,0.3641 -0.8306,1.6318 -0.5645,1.129 -1.129,2.258 2.396,-0.1859 -3.2427,4.984 c 0.9522,0.5914 1.5556,-0.5645 3.387,-0.5645 h 1.6934 l 0.2648,0.118 -1.9582,3.5512 v 0.8468 h 5.6449 l 0.2822,-0.2823 v -0.5645 l -0.2822,-0.2822 -0.8441,-2.8289 1.9731,0.8532 3.1047,1.4112 0.5641,-0.282 -2.2576,-4.5162 -0.8277,-2.0437 2.5212,0.6325 10.1608,5.6449 1.129,1.129 c 0.4206,0.4205 1.2512,0.4421 1.6935,0 l 0.2823,-0.2822 v -0.8468 l -0.2823,-0.5645 -2.258,-1.4112 -1.6934,-1.129 -1.9758,-1.129 -2.8224,-1.6934 -2.6316,-1.5458 3.7904,-3.7848 0.8169,-0.0321 3.387,0.8467 h 1.9757 l 2.8224,-0.2822 2.8225,-0.5645 3.387,-0.5645 h 0.2822 l 6.2094,0.2822 4.516,1.4113 9.0319,6.7739 6.4916,4.7981 0.2823,0.2823 0.2822,0.2822 0.2823,0.2823 0.5645,0.2822 h 1.4112 l 0.2822,-0.2822 V 42.445 l -0.2822,-0.2823 -0.2823,-0.2822 -0.5644,-0.2823 -0.2823,-0.2822 -0.5645,-0.2823 C 179.209,40.6923 166.9212,31.3062 165.5976,29.9573 164.3358,28.6714 152.3115,17.8896 151.6987,17.8896 h -0.2823 c -1.1672,0 -19.3695,14.959 -19.7572,14.959 -0.4404,0 -2.8537,-1.8823 -3.1047,-2.8225 l -0.3246,-0.5503 0.6068,0.2681 c 2.776,0.6467 -0.3086,-2.3688 -1.0997,-4.5452 -0.5437,-1.4956 -0.7836,-6.0609 -2.2872,-6.4624 l -2.9328,7.8611 C 119.9122,25.9142 109.1143,16.4783 108.2327,16.4783 h -0.2822 c -1.1601,0 -8.1337,6.359 -9.5964,7.3384 -3.5723,-2.3921 -5.0477,-5.6449 -11.8543,-5.6449 -2.2666,0 -3.6493,0.3655 -5.3592,0.8503 -2.1238,0.6022 -3.2049,1.3381 -4.1794,2.2119 z"
         inkscape:connector-curvature="0"
         style="fill:#1f1a17" /><path
         id="_56041224"
         class="fil31"
         d="m 103.434,36.8 c 0.7663,-0.4054 2.8225,-1.8236 2.8225,-2.8224 v -0.2823 c 0,-0.7971 -0.6477,-1.0889 -1.129,-1.4112 z"
         inkscape:connector-curvature="0"
         style="fill:#068606" /><path
         id="_55644712"
         class="fil60"
         d="m 113.877,37.0823 c 0.7157,-0.4793 2.8224,-3.3719 2.8224,-4.516 0,-1.3686 -1.8634,-2.3149 -2.8224,-2.8224 z"
         inkscape:connector-curvature="0"
         style="fill:#b3acad" /><path
         id="_57565312"
         class="fil61"
         d="m 130.53,37.3645 5.4869,4.7339 -0.1242,0.6288 h 1.6935 1.4688 l -0.0576,-0.5645 c -0.1215,-1.1919 -5.0837,-5.2455 -6.439,-5.3829 l -0.3349,-0.8265 -2.5212,-0.6325 z"
         inkscape:connector-curvature="0"
         style="fill:#014501" /><path
         id="_57566656"
         class="fil46"
         d="m 100.894,37.929 2.5402,-1.129 1.6935,-4.5159 -1.4112,-0.8467 c -0.213,0.5883 -1.0325,1.4876 -1.6076,2.9083 -0.4938,1.22 -0.9155,2.2981 -1.2149,3.5833 z"
         inkscape:connector-curvature="0"
         style="fill:#079107" /><path
         id="_55184680"
         class="fil62"
         d="m 139.055,42.7272 h 4.4583 l -1.129,-1.129 -10.1608,-5.6449 0.3349,0.8265 c 1.3553,0.1374 6.3174,4.1911 6.439,5.3829 z"
         inkscape:connector-curvature="0"
         style="fill:#013301" /><path
         id="_55138592"
         class="fil11"
         d="m 71.2582,37.0823 v -1.129 c -0.3242,-0.4424 -0.052,-0.5645 -0.8468,-0.5645 -0.952,0 -1.078,0.8467 -3.3869,0.8467 -0.3411,0.5094 -0.5645,0.4962 -0.5645,1.129 0,0.3435 0.5838,0.8468 1.129,0.8468 h 1.1289 c 1.0951,0 1.9343,-0.6023 2.5403,-1.129 z"
         inkscape:connector-curvature="0"
         style="fill:#05080b" /><path
         id="_110915816"
         class="fil29"
         d="m 98.6361,39.058 2.2579,-1.129 c 0.2994,-1.2852 0.7211,-2.3633 1.2149,-3.5833 0.5751,-1.4207 1.3946,-2.32 1.6076,-2.9083 l -1.9757,-0.8468 c -0.9922,2.0677 -3.0445,5.7641 -3.1047,8.4674 z"
         inkscape:connector-curvature="0"
         style="fill:#089508" /><polygon
         id="_57461776"
         class="fil8"
         points="19.1526,39.1387 14.6997,39.3402 14.4754,40.4692 19.0573,40.2798 "
         style="fill:#3a6688" /><path
         id="_57297040"
         class="fil63"
         d="m 121.23,34.3022 0.5504,-0.3246 c 0.6963,-0.058 1.4112,-0.4424 1.4112,0.2822 0,1.0664 -2.0282,3.5483 -2.5402,4.516 0.633,-0.1475 0.6489,-0.2823 1.4112,-0.2823 h 2.258 c 2.1856,0 5.2812,1.4682 6.7739,2.258 l -2.8225,-6.4917 -5.9271,-1.9757 z"
         inkscape:connector-curvature="0"
         style="fill:#0eb90e" /><path
         id="_56027688"
         class="fil64"
         d="m 146.618,30.8729 -3.6692,8.7496 2.258,1.4112 c 0.3132,-0.4936 1.5804,-4.1538 1.8081,-4.9658 0.436,-1.5548 0.8251,-4.5964 1.8611,-3.5016 l 0.827,-1.7048 -0.2625,-0.5531 z"
         inkscape:connector-curvature="0"
         style="fill:#058205" /><path
         id="_57235744"
         class="fil41"
         d="m 179.641,43.2917 -0.2823,-0.2823 -6.4916,-4.7981 c 0.2741,1.0265 4.4589,4.4322 5.427,5.0804 z"
         inkscape:connector-curvature="0"
         style="fill:#014e01" /><polygon
         id="_56008576"
         class="fil65"
         points="19.0573,40.2798 23.0014,40.2334 23.0491,39.0984 19.1526,39.1387 "
         style="fill:#4e89b6" /><path
         id="_55191568"
         class="fil66"
         d="m 96.3781,28.6149 c 0.2769,0.5877 -3.387,9.1376 -3.387,12.4188 l 3.387,-1.129 c 0.0937,-4.2047 2.7334,-7.3556 3.3869,-10.1608 -0.421,-0.5747 -1.4112,-1.064 -1.4112,-1.9757 0,-0.597 0.1011,-0.3721 0.2823,-1.129 h -0.2823 z"
         inkscape:connector-curvature="0"
         style="fill:#0ba60b" /><polygon
         id="_56327656"
         class="fil67"
         points="109.926,28.3327 109.926,42.1627 113.877,37.0823 113.877,29.7439 "
         style="fill:#c5baba" /><path
         id="_55947232"
         class="fil68"
         d="m 92.7089,32.0019 -1.9757,9.8786 2.2579,-0.8468 c 0,-3.2812 3.6639,-11.8311 3.387,-12.4188 z"
         inkscape:connector-curvature="0"
         style="fill:#0cae0c" /><polygon
         id="_55899408"
         class="fil69"
         points="11.4219,41.0337 29.4857,41.5982 24.0855,41.1184 12.2687,40.7515 14.4754,40.4692 14.6997,39.3402 11.4219,39.6225 11.4219,40.5655 9.4085,40.8795 "
         style="fill:#26445a" /><polygon
         id="_56775256"
         class="fil70"
         points="24.0855,41.1184 29.4857,41.5982 35.9774,41.5982 30.7201,41.242 "
         style="fill:#467ba4" /><polygon
         id="_55572432"
         class="fil71"
         points="136.017,42.0984 130.53,37.3645 132.787,41.8807 132.223,42.1627 132.223,42.7272 135.893,42.7272 "
         style="fill:#025202" /><polygon
         id="_55572624"
         class="fil56"
         points="127.99,42.7272 129.119,42.7272 129.401,42.7272 129.73,41.8458 129.119,41.5982 129.119,40.7515 127.146,39.8983 "
         style="fill:#017501" /><polygon
         id="_111734424"
         class="fil72"
         points="88.7574,42.445 90.7332,41.8805 92.7089,32.0019 89.6042,35.1066 89.3219,38.2113 88.7574,38.2113 "
         style="fill:#0db50d" /><path
         id="_110876000"
         class="fil47"
         d="m 156.497,42.1627 1.9757,0.2823 h 0.2822 c 0.0778,-3.4899 3.7628,-7.4836 6.774,-8.1852 -0.3465,-0.5174 -1.1849,-1.6935 -1.9758,-1.6935 -2.4846,0 -6.8083,6.6182 -7.0561,9.5964 z"
         inkscape:connector-curvature="0"
         style="fill:#017801" /><path
         id="_55685608"
         class="fil73"
         d="m 160.73,42.445 3.9514,0.2822 h 4.7982 c 0.0965,-1.1598 0.2822,-0.6305 0.2822,-1.6935 0,-2.2728 -1.1378,-4.2337 -3.3869,-4.2337 -3.0621,0 -5.0487,3.0857 -5.6449,5.645 z"
         inkscape:connector-curvature="0"
         style="fill:#007c00" /><path
         id="_55118568"
         class="fil0"
         d="m 42.1868,33.9776 0.2822,-2.5402 -1.6051,-4.7377 1.6051,-0.3428 h 1.129 l 2.5402,-0.5644 1.9758,-0.2823 2.5402,-0.5645 3.3869,-0.5645 3.9515,-0.8467 7.6134,-1.4513 -5.9199,3.9915 -3.387,2.258 -2.5402,1.9757 -1.4113,0.8467 -1.6934,1.129 -2.8225,1.9757 -0.8467,0.5645 -1.6935,1.129 -1.129,0.8467 -7.6206,4.7982 -0.2823,0.2823 -0.2822,0.2822 v 1.4112 l 0.2822,0.2823 0.5645,0.2822 h 0.8467 l 1.6935,-0.2822 1.9757,-0.2823 1.6935,-0.2822 1.9757,-0.2823 1.9758,-0.2822 2.2579,-0.2822 2.5403,-0.2823 3.1047,-0.2822 h 11.0076 l 2.5402,0.2822 1.6935,0.2823 1.129,0.2822 h 1.1289 l 0.5645,-0.2822 0.2823,-0.5645 V 41.316 c -1.5134,-1.7412 -5.5867,-1.9758 -8.7497,-1.9758 h -8.7496 l -13.825,1.7321 0.5594,-0.6031 c 3.5961,-1.9028 11.6617,-7.4792 15.0358,-10.0841 1.8501,-1.4282 14.6001,-9.2615 14.6001,-10.5198 0,-0.7548 -0.4074,-0.8348 -0.8467,-1.129 -5.4608,1.2722 -11.2132,2.0229 -16.7556,3.2839 -2.3989,0.5458 -15.985,2.2761 -15.985,3.7723 0,1.0311 1.9159,7.5386 2.2579,8.1851 z"
         inkscape:connector-curvature="0"
         style="fill:#1f1a17" /><path
         id="_55647784"
         class="fil74"
         d="m 80.5723,43.0094 c 2.031,-3.8384 12.528,-15.1153 16.088,-17.4992 -1.2726,-2.4051 -6.0659,-5.3627 -9.5963,-5.3627 h -1.6935 c -6.0549,0 -12.1366,5.7014 -12.1366,11.8544 v 0.8467 c 0,5.0906 3.9244,8.3544 7.3384,10.1608 z"
         inkscape:connector-curvature="0"
         style="fill:#fdd500" /><polygon
         id="_56337064"
         class="fil75"
         points="125.732,39.6225 125.732,43.0094 127.143,43.0094 126.236,39.6416 "
         style="fill:#703914" /><polygon
         id="_55635496"
         class="fil76"
         points="129.119,40.7515 129.119,41.5982 129.73,41.8458 129.401,42.7272 132.223,42.7272 132.223,42.1627 "
         style="fill:#016a01" /><path
         id="_56956064"
         class="fil77"
         d="m 158.755,42.445 h 1.9758 c 0.5962,-2.5593 2.5828,-5.645 5.6449,-5.645 2.2491,0 3.3869,1.9609 3.3869,4.2337 0,1.063 -0.1857,0.5337 -0.2822,1.6935 l 1.6935,0.2822 h 3.1047 c -1.316,-2.487 -6.3921,-7.1709 -8.7496,-8.7496 -3.0112,0.7016 -6.6962,4.6953 -6.774,8.1852 z"
         inkscape:connector-curvature="0"
         style="fill:#017901" /><path
         id="_110949392"
         class="fil78"
         d="m 113.313,28.6149 c 1.0496,0.7293 3.9514,1.7885 3.9514,3.387 v 1.1289 c 0,1.6485 -1.8904,2.8572 -2.258,4.2337 l -0.8467,5.9272 h 1.9757 c 0,-3.456 1.2696,-7.5444 3.6692,-8.1851 l 1.129,-2.258 -7.0561,-5.6449 z"
         inkscape:connector-curvature="0"
         style="fill:#027302" /><path
         id="_57432520"
         class="fil56"
         d="m 119.805,35.1066 c -2.3996,0.6407 -3.6692,4.7291 -3.6692,8.1851 h 0.8468 l 1.129,-0.2823 0.2971,-3.411 0.5496,0.3063 3.2427,-4.984 z"
         inkscape:connector-curvature="0"
         style="fill:#017501" /><path
         id="_56852920"
         class="fil79"
         d="m 118.958,39.9047 -0.5496,-0.3063 -0.2971,3.411 h 4.2337 l 1.9582,-3.5512 -0.2648,-0.118 h -1.6934 c -1.8314,0 -2.4348,1.1559 -3.387,0.5645 z"
         inkscape:connector-curvature="0"
         style="fill:#007800" /><polygon
         id="_110960992"
         class="fil80"
         points="123.624,43.0591 125.732,43.0094 125.732,39.6225 124.614,39.3057 "
         style="fill:#88471c" /><polygon
         id="_110929920"
         class="fil81"
         points="115.006,37.3645 109.926,43.5739 111.055,43.5739 114.16,43.2917 "
         style="fill:#017101" /><polygon
         id="_57303704"
         class="fil63"
         points="89.6042,35.1066 82.1277,44.0245 88.7574,42.445 88.7574,38.2113 89.3219,38.2113 "
         style="fill:#0eb90e" /><polygon
         id="_55663728"
         class="fil38"
         points="91.8621,42.445 92.4266,42.445 92.419,44.0985 91.5799,44.4207 94.9669,44.4207 94.9669,41.5982 94.4024,41.5982 "
         style="fill:#e4e3e3" /><polygon
         id="_55947696"
         class="fil82"
         points="99.765,44.4207 100.33,44.1384 100.33,39.3402 97.5071,40.4692 97.7944,44.0998 98.9183,44.4207 "
         style="fill:#dbd4d4" /><polygon
         id="_56005320"
         class="fil83"
         points="103.717,37.6468 100.33,39.3402 100.33,44.1384 103.999,44.1384 "
         style="fill:#d5cdcd" /><polygon
         id="_55660176"
         class="fil84"
         points="105.975,35.9533 103.717,37.6468 103.999,44.1384 106.257,44.1384 "
         style="fill:#d2c9c9" /><polygon
         id="_55661752"
         class="fil38"
         points="92.419,44.0985 92.4266,42.445 91.8621,42.445 84.2415,44.7029 90.7332,44.7029 91.5799,44.4207 "
         style="fill:#e4e3e3" /><polygon
         id="_55993024"
         class="fil85"
         points="98.9183,44.4207 97.7944,44.0998 97.5071,40.4692 94.4024,41.5982 94.9669,41.5982 94.9669,44.4207 "
         style="fill:#e2dcdc" /><polygon
         id="_56177432"
         class="fil1"
         points="23.0491,39.0984 23.0014,40.2334 28.0151,39.6537 "
         style="fill:#5ba1d6" /></g></g><g
     aria-label="20 EDYCJA !"
     transform="matrix(0.68868598,0,0,0.59279918,-91.02126,-58.351474)"
     style="font-style:normal;font-weight:normal;font-size:40px;line-height:1.25;font-family:sans-serif;letter-spacing:0px;word-spacing:0px;fill:#000000;fill-opacity:1;stroke:none"
     id="flowRoot117"><path
       d="m 187.73875,202.70195 q 0,1.88 -0.32,3.6 -0.28,1.72 -0.84,3.08 -4.64,-0.04 -10.08,-0.76 -5.4,-0.72 -8.68,-1.76 0,-1.68 0.12,-2.6 0.12,-0.96 0.4,-1.76 5.8,-3.8 9.04,-7.4 3.24,-3.6 3.24,-6.2 0,-1.32 -0.48,-2 -0.44,-0.68 -1.36,-0.68 -1.08,0 -1.76,1.2 -0.64,1.2 -1.24,4.28 -2.28,0 -4.08,-0.32 -1.8,-0.36 -3.24,-1.08 1.12,-4.28 3.76,-6.36 2.68,-2.08 7.04,-2.08 4.24,0 6.92,2.12 2.68,2.08 2.68,5.4 0,3.44 -2.56,6.4 -2.52,2.92 -9.12,7.16 6,0 7.6,-0.04 1.6,-0.08 2.96,-0.2 z"
       style="font-style:normal;font-variant:normal;font-weight:bold;font-stretch:normal;font-family:Atma;-inkscape-font-specification:'Atma Bold';fill:#000000;fill-opacity:1"
       id="path121" /><path
       d="m 191.84062,195.78195 q 0,-6.68 3.72,-10.92 3.72,-4.28 9.6,-4.28 4.72,0 7.28,2.84 2.56001,2.8 2.56001,8 0,2.96 -0.88001,6.04 -0.84,3.04 -2.4,5.36 -1.8,2.72 -4.36,4.12 -2.56,1.36 -5.76,1.36 -4.64,0 -7.2,-3.36 -2.56,-3.4 -2.56,-9.16 z m 14.8,-2.16 q 0,-3.92 -0.72,-5.88 -0.72,-1.96 -2.16,-1.96 -1.68,0 -2.72,2.44 -1,2.4 -1,6.44 0,3.56 0.88,6 0.92,2.44 2.4,2.44 1.56,0 2.44,-2.64 0.88,-2.64 0.88,-6.84 z"
       style="font-style:normal;font-variant:normal;font-weight:bold;font-stretch:normal;font-family:Atma;-inkscape-font-specification:'Atma Bold';fill:#000000;fill-opacity:1"
       id="path123" /><path
       d="m 248.17562,207.90195 q -1.16,0.36 -7.44,0.84 -6.24,0.48 -10.44,0.48 -1,-6.36 -1.84,-14.84 -0.8,-8.48 -0.88,-14.12 6.16,-1.16 10.68,-1.64 4.56,-0.52 8.92,-0.52 0,1.48 -0.2,3.16 -0.16,1.64 -0.56,3.44 -2.24,0 -4.64,0.08 -2.39999,0.08 -5,0.24 -0.08,0.88 -0.12,2.04 -0.04,1.12 -0.08,3.4 2.04,-0.6 4.08,-0.88 2.04,-0.28 4.16,-0.28 0.32,1.4 0.48,2.88 0.16,1.48 0.16,3.48 -2.28,0 -4.51999,0.16 -2.24001,0.12 -4.36001,0.36 0.04,1.8 0.12,3.52 0.08,1.72 0.24,3.28 1.16,0 4.88,-0.44 3.72,-0.48 5.6,-0.84 0.32,0.84 0.52001,2.76 0.23999,1.88 0.23999,3.44 z"
       style="font-style:normal;font-variant:normal;font-weight:bold;font-stretch:normal;font-family:Atma;-inkscape-font-specification:'Atma Bold';fill:#000000;fill-opacity:1"
       id="path125" /><path
       d="m 273.91062,189.86195 q 0,5.56 -4.28,10.88 -4.28,5.32 -10.36,7.12 -1.76,0 -3.6,-0.16 -1.84,-0.12 -3.2,-0.36 -0.64,-5.64 -0.96,-10.68 -0.32,-5.08 -0.32,-9.48 0,-1.48 0,-3 0.04,-1.52 0.12,-3.04 2.68,-1.24 4.96,-1.76 2.28001,-0.56 4.76,-0.56 6.28001,0 9.56,2.84 3.32,2.84 3.32,8.2 z m -14.2,-6.28 q -0.32,3.8 -0.52,7.88 -0.16,4.04 -0.16,8.4 0,0.88 0,1.36 0,0.44 0.04,0.8 3.2,-1.68 4.92001,-4.8 1.71999,-3.16 1.71999,-7.28 0,-2.92 -1.48,-4.64 -1.44,-1.76 -3.88,-1.76 -0.28,0 -0.4,0 -0.12,0 -0.24,0.04 z"
       style="font-style:normal;font-variant:normal;font-weight:bold;font-stretch:normal;font-family:Atma;-inkscape-font-specification:'Atma Bold';fill:#000000;fill-opacity:1"
       id="path127" /><path
       d="m 297.45375,181.06195 q -2.52,9.64 -5.52,16.92 -2.96,7.28 -7,13.64 -1.6,-0.4 -3.4,-1.2 -1.76,-0.8 -2.76,-1.6 1.4,-2.36 2.56,-4.56 1.2,-2.24 2.16,-4.44 -2.92,-3.6 -5.08,-8.44 -2.16,-4.84 -3.52,-10.8 1.68,-1.2 3.6,-1.8 1.96,-0.64 4.36,-0.76 0.6,4.44 1.44,7.64 0.84,3.2 2.2,6.16 0.92,-2.84 1.68,-6.12 0.76,-3.28 1.44,-7.36 2.4,0.32 4.28,1 1.92,0.64 3.56,1.72 z"
       style="font-style:normal;font-variant:normal;font-weight:bold;font-stretch:normal;font-family:Atma;-inkscape-font-specification:'Atma Bold';fill:#000000;fill-opacity:1"
       id="path129" /><path
       d="m 313.58938,198.10195 q 1.63999,-0.16 3.44,0.2 1.83999,0.32 2.63999,0.92 -0.32,4.6 -3.36,7.16 -3,2.52 -8.24,2.52 -4.96,0 -7.76,-3.08 -2.8,-3.08 -2.8,-8.76 0,-7.28 4,-12.28 4,-5 10.08001,-5 3.71999,0 6,2.32 2.27999,2.28 2.63999,6.4 -2.12,0.92 -3.63999,1.2 -1.52001,0.28 -3.84001,0.28 0,-2.6 -0.68,-4 -0.64,-1.4 -1.84,-1.4 -1.68,0 -2.8,3.08 -1.12,3.08 -1.12,7.44 0,4.24 1,6.52 1.04,2.24 2.92,2.24 1.92001,0 2.80001,-1.52 0.87999,-1.52 0.56,-4.24 z"
       style="font-style:normal;font-variant:normal;font-weight:bold;font-stretch:normal;font-family:Atma;-inkscape-font-specification:'Atma Bold';fill:#000000;fill-opacity:1"
       id="path131" /><path
       d="m 338.52625,201.42195 q -0.88,4.64 -3.2,7.12 -2.32,2.48 -5.76,2.48 -3.24,0 -5.8,-2.56 -2.56,-2.52 -2.96,-6.04 1.2,-1.04 2.68,-1.64 1.48,-0.64 3.28,-0.88 0.56,3.64 1.08,4.8 0.56,1.16 1.44,1.16 1.2,0 1.72,-1.68 0.52,-1.72 0.52,-5.4 0,-4.16 -0.32,-9.4 -0.32,-5.24 -0.88,-9.56 0.92,-0.64 2.4,-1 1.48,-0.36 3.08,-0.36 1.12,0 2.04,0.12 0.92,0.12 1.84,0.36 0.04,1.24 0.08,2.8 0.04,1.52 0.04,3.24 0,5.36 -0.28,9 -0.28,3.6 -1,7.44 z"
       style="font-style:normal;font-variant:normal;font-weight:bold;font-stretch:normal;font-family:Atma;-inkscape-font-specification:'Atma Bold';fill:#000000;fill-opacity:1"
       id="path133" /><path
       d="m 366.66125,209.70195 q -1.4,0.92 -3.36,1.52 -1.92,0.64 -4.6,0.96 -0.24,-2.4 -0.68,-5 -0.4,-2.64 -1.04,-5.36 -2.56,0.04 -4.6,0.16 -2.04,0.12 -3.84,0.36 -0.64,1.8 -1.32,3.44 -0.68,1.64 -1.36,3 -1.96,-0.32 -3.72,-1.28 -1.72,-0.92 -2.72,-2.2 3.08,-5.72 5.36,-11.52 2.28,-5.84 4.76,-14.68 1.96,0 3.52,0.2 1.6,0.16 3.52,0.64 3.48,5.52 6.04,13.12 2.56,7.6 4.04,16.64 z m -13.8,-21.44 q -0.52,1.96 -1.16,4.16 -0.64,2.2 -1.36,4.48 1.36,-0.2 2.64,-0.32 1.32,-0.12 2.64,-0.16 -0.68,-2.24 -1.36,-4.28 -0.68,-2.04 -1.4,-3.88 z"
       style="font-style:normal;font-variant:normal;font-weight:bold;font-stretch:normal;font-family:Atma;-inkscape-font-specification:'Atma Bold';fill:#000000;fill-opacity:1"
       id="path135" /><path
       d="m 379.0825,197.50195 q -0.48,-3.76 -0.72,-7.48 -0.2,-3.76 -0.2,-8.44 0,-0.4 0,-0.88 0.04,-0.48 0.08,-1.4 1.28,-0.64 2.56,-0.96 1.32,-0.32 2.76,-0.32 0.92,0 1.76,0.16 0.84,0.12 1.6,0.4 -0.84,3.76 -1.36,9.4 -0.48,5.6 -0.36,9.72 -0.36,0.12 -0.88,0.16 -0.52,0.04 -1.36,0.04 -0.92,0 -1.96,-0.08 -1,-0.12 -1.92,-0.32 z m 3.76,11.2 q -1.12,0 -2.24,-0.24 -1.08,-0.2 -1.8,-0.56 -0.12,-1.6 -0.12,-3.16 0,-1.6 0.12,-3.36 0.96,0 1.92,0.04 0.96,0.04 2.72,0.12 1,0.04 1.48,0.08 0.52,0 1,0 0.12,2.2 0.2,3.72 0.12,1.48 0.28,3 -0.96,0.2 -1.76,0.28 -0.8,0.08 -1.8,0.08 z"
       style="font-style:normal;font-variant:normal;font-weight:bold;font-stretch:normal;font-family:Atma;-inkscape-font-specification:'Atma Bold';fill:#000000;fill-opacity:1"
       id="path137" /></g></svg>